<svg width="939" height="547" viewBox="0 0 939 547" fill="none" xmlns="http://www.w3.org/2000/svg">
<path d="M191.35 66.8928C176.444 71.3976 161.449 75.7812 146.366 80.0434C131.7 72.339 117.147 64.5191 102.708 56.5836L110.716 5.80023C139.607 9.61202 168.542 12.9733 197.522 15.8841C195.502 32.8986 193.445 49.9014 191.35 66.8928Z" fill="#19ABFD" stroke="#263238" stroke-miterlimit="10"/>
<path d="M301.141 75.7636C286.475 80.846 271.708 85.8071 256.839 90.6469C241.782 83.4623 226.888 76.2083 212.159 68.8851L217.838 17.8419C246.868 20.5448 275.898 22.7914 304.928 24.5818C303.665 41.6424 302.403 58.703 301.141 75.7636Z" stroke="#263238" stroke-miterlimit="10"/>
<path d="M410.953 80.4241C396.551 86.0609 382.036 91.5822 367.408 96.988C352.073 90.4387 336.864 83.7681 321.781 76.9762C322.879 59.8924 323.983 42.8203 325.094 25.7596C354.124 27.3306 383.217 28.4568 412.373 29.1383L410.953 80.4241Z" fill="#FF337C" stroke="#263238" stroke-miterlimit="10"/>
<path d="M521.06 80.8389C506.975 87.0186 492.725 93.0943 478.311 99.0661C462.698 93.1059 447.186 87.0244 431.775 80.8216L432.74 29.5184C461.846 29.992 490.958 29.992 520.076 29.5184C520.404 46.6368 520.732 63.7436 521.06 80.8389Z" stroke="#263238" stroke-miterlimit="10"/>
<path d="M631.027 77.0101C617.143 83.7327 603.177 90.3572 589.129 96.8834C573.264 91.5353 557.487 86.0545 541.798 80.4407C541.344 63.3455 540.883 46.2502 540.416 29.1549C569.521 28.4965 598.614 27.3818 627.694 25.8109L631.027 77.0101Z" fill="#19ABFD" stroke="#263238" stroke-miterlimit="10"/>
<path d="M740.771 68.9699C727.24 76.2354 713.584 83.3912 699.801 90.4372C683.696 85.7014 667.685 80.8269 651.769 75.8138L647.983 24.632C677.013 22.8531 706.042 20.618 735.072 17.9267C736.991 34.9642 738.89 51.9786 740.771 68.9699Z" stroke="#263238" stroke-miterlimit="10"/>
<path d="M850.188 56.6879C836.973 64.4732 823.638 72.1488 810.184 79.7146C793.851 75.614 777.614 71.3691 761.471 66.9797C759.439 49.9769 757.407 32.9798 755.375 15.9885C784.404 13.0776 813.346 9.72211 842.199 5.92188C844.874 22.8785 847.538 39.8006 850.188 56.6879Z" fill="#FF337C" stroke="#263238" stroke-miterlimit="10"/>
<path d="M76.0835 1C341.64 39.499 612.164 39.499 877.721 1" stroke="#263238" stroke-miterlimit="10"/>
<path d="M738.609 116.385H211.95V398.023H738.609V116.385Z" fill="white" stroke="#263238" stroke-miterlimit="10"/>
<path d="M524.942 179.478V171.044C524.942 169.084 524.768 166.224 524.419 162.435C524.07 158.646 523.879 156.105 523.879 154.799C523.879 153.492 523.879 151.895 524.022 150.109C524.165 148.324 524.165 146.945 524.165 146.03C523.964 146.611 523.155 149.654 521.738 155.161C518.079 169.379 515.461 176.488 513.886 176.488C513.48 176.506 513.074 176.447 512.695 176.315C512.315 176.182 511.97 175.979 511.681 175.718C511.129 175.148 510.844 174.403 510.887 173.642C510.449 169.286 509.551 164.978 508.207 160.78C506.398 154.276 504.891 149.296 503.638 145.841C502.728 161.327 502.274 171.808 502.274 177.286L502.369 179.26C502.411 179.838 502.237 180.411 501.877 180.886C501.682 181.091 501.436 181.249 501.16 181.347C500.884 181.446 500.586 181.482 500.291 181.453C499.672 181.478 499.061 181.309 498.562 180.973C498.362 180.852 498.197 180.688 498.081 180.496C497.965 180.304 497.901 180.089 497.896 179.87C497.896 175.379 498.266 168.653 499.006 159.691C499.746 150.729 500.116 144.007 500.116 139.526C499.83 139.12 499.681 138.645 499.688 138.162C499.688 137.912 499.771 137.667 499.927 137.462C500.083 137.257 500.304 137.101 500.561 137.015C501.154 136.752 501.805 136.618 502.464 136.623C503.522 136.623 505.563 141.046 508.587 149.892C511.612 158.738 513.494 164.854 514.235 168.242C514.441 167.588 514.885 165.962 515.551 163.349C516.218 160.736 516.931 158.036 517.677 155.22C518.423 152.403 519.263 149.529 520.136 146.654C522.166 140.034 523.879 136.724 525.275 136.724C525.915 136.726 526.542 136.892 527.084 137.203C527.344 137.33 527.561 137.521 527.71 137.754C527.858 137.988 527.933 138.254 527.925 138.524C527.925 141.704 528.067 146.451 528.385 152.766C528.702 159.081 528.845 163.669 528.845 166.529L528.654 173.482C528.654 173.976 528.797 175.544 529.083 178.186L529.225 179.464C529.428 179.926 529.535 180.418 529.543 180.915C529.511 181.525 529.279 182.112 528.876 182.599C528.695 182.878 528.437 183.108 528.128 183.266C527.819 183.424 527.47 183.504 527.116 183.499C525.688 183.601 524.942 182.236 524.942 179.478Z" fill="black"/>
<path d="M549.838 166.761L550.616 170.811C550.74 172.136 550.968 173.451 551.298 174.745C551.642 176.092 551.87 177.46 551.98 178.839V178.839C552.036 179.228 551.95 179.623 551.734 179.962C551.519 180.3 551.187 180.564 550.79 180.712C549.973 180.75 549.159 180.595 548.427 180.262C548.129 180.067 547.894 179.802 547.746 179.496C547.598 179.19 547.543 178.853 547.586 178.52C547.482 175.783 547.127 173.058 546.523 170.376L539.416 169.403C538.943 170.978 538.604 172.585 538.401 174.208C538.25 175.487 538.022 176.756 537.719 178.012C537.306 179.638 536.513 180.451 535.371 180.451C534.796 180.456 534.237 180.282 533.785 179.957C533.561 179.813 533.38 179.622 533.255 179.399C533.131 179.177 533.068 178.93 533.071 178.68L533.245 178.099C536.381 167.111 538.791 155.961 540.463 144.709C540.463 144.418 540.574 143.533 540.669 142.067C540.907 138.844 541.352 136.797 542.002 135.911H544.429C545.038 135.897 545.638 136.043 546.158 136.332C546.391 136.466 546.583 136.652 546.713 136.874C546.844 137.095 546.91 137.344 546.904 137.595C547.05 142.593 547.538 147.577 548.363 152.519C549.159 157.236 549.651 161.991 549.838 166.761V166.761ZM546.063 168.067C545.897 166.956 545.828 165.835 545.857 164.714C545.857 163.102 545.761 161.114 545.555 158.747C545.349 156.381 545.079 153.608 544.699 150.472C544.318 147.336 544.064 145.043 543.921 143.62C541.743 154.682 540.336 162.478 539.702 167.008C541.726 167.74 543.887 168.1 546.063 168.067V168.067Z" fill="black"/>
<path d="M560.751 179.1L560.608 174.034C560.608 174.034 560.608 173.264 560.719 171.783C560.528 171.222 560.148 166.257 559.577 156.888C559.006 147.52 558.694 141.795 558.641 139.714H558.355C554.453 139.714 552.518 139.003 552.518 137.754C552.531 137.538 552.609 137.328 552.743 137.149C552.878 136.97 553.063 136.828 553.279 136.738C553.759 136.477 554.307 136.337 554.865 136.332L564.653 136.941H565.811C567.397 136.941 568.063 137.479 568.063 138.524C568.069 138.78 568.005 139.033 567.878 139.261C567.751 139.489 567.564 139.685 567.334 139.83C566.852 140.157 566.267 140.33 565.668 140.324L562.369 139.874L562.226 140.556C562.226 144.728 562.622 150.965 563.416 159.269C564.209 167.573 564.611 173.825 564.621 178.026C564.613 178.292 564.539 178.554 564.405 178.79C564.27 179.027 564.078 179.232 563.844 179.39C563.378 179.774 562.773 179.986 562.147 179.986L560.751 179.1Z" fill="black"/>
<path d="M575.779 140.426L575.493 156.889C576.79 157.149 578.117 157.261 579.443 157.223H582.045C582.213 156.522 582.272 155.804 582.219 155.088C582.219 153.869 582.061 151.169 581.744 147.017C581.426 142.865 581.268 139.758 581.268 137.624C581.263 137.388 581.317 137.153 581.427 136.939C581.537 136.725 581.7 136.537 581.902 136.39C582.221 136.098 582.642 135.918 583.092 135.882C583.402 135.871 583.713 135.906 584.012 135.984C584.278 136.052 584.538 136.139 584.789 136.245L585.455 136.463C585.455 142.182 585.683 150.535 586.138 161.52C586.592 172.505 586.825 178.181 586.836 178.549C586.807 178.769 586.723 178.981 586.591 179.167C586.459 179.353 586.282 179.509 586.074 179.623C585.593 179.976 584.993 180.166 584.377 180.16C583.758 180.16 583.266 179.739 582.886 178.897C582.426 177.701 582.169 176.448 582.124 175.181C581.997 173.54 581.918 172.117 581.87 170.912C581.87 170.39 581.87 169.809 581.87 169.141C581.87 168.241 581.87 167.211 581.87 166.049C581.87 164.002 581.87 162.826 581.87 162.507V162.246L581.981 160.344L581.553 159.734C581.127 159.825 580.69 159.868 580.252 159.865L575.604 159.255V166.833L576.033 177.678C576.043 178.269 575.86 178.85 575.509 179.347C575.34 179.587 575.103 179.781 574.824 179.908C574.545 180.036 574.234 180.093 573.923 180.073C572.971 180.073 572.337 179.275 571.94 177.663C571.52 175.503 571.334 173.31 571.385 171.116L571.607 161.055C571.644 159.907 571.607 158.758 571.496 157.615V157.295C571.686 154.992 571.781 153.7 571.781 153.419L571.29 138.539C571.284 138.027 571.494 137.533 571.877 137.159C572.058 136.973 572.281 136.824 572.529 136.722C572.778 136.619 573.047 136.566 573.32 136.564C575.018 136.492 575.779 137.813 575.779 140.426Z" fill="black"/>
<path d="M606.355 194.664H490.331C489.911 194.664 489.507 194.511 489.21 194.238C488.912 193.966 488.745 193.597 488.745 193.212C488.745 192.827 488.912 192.458 489.21 192.185C489.507 191.913 489.911 191.76 490.331 191.76H606.355C606.776 191.76 607.179 191.913 607.477 192.185C607.774 192.458 607.941 192.827 607.941 193.212C607.941 193.597 607.774 193.966 607.477 194.238C607.179 194.511 606.776 194.664 606.355 194.664Z" fill="black"/>
<path d="M490.331 189.741C489.911 189.741 489.507 189.588 489.21 189.316C488.912 189.044 488.745 188.675 488.745 188.29C488.745 187.905 488.912 187.535 489.21 187.263C489.507 186.991 489.911 186.838 490.331 186.838L595.615 185.865C596.036 185.865 596.44 186.018 596.737 186.291C597.035 186.563 597.202 186.932 597.202 187.317C597.202 187.702 597.035 188.071 596.737 188.344C596.44 188.616 596.036 188.769 595.615 188.769L490.347 189.741H490.331Z" fill="black"/>
<path d="M480.648 159.269C480.388 159.268 480.131 159.208 479.902 159.095L465.943 152.214C465.572 152.031 465.297 151.721 465.176 151.352C465.056 150.983 465.1 150.585 465.3 150.246C465.5 149.908 465.839 149.655 466.242 149.545C466.645 149.435 467.079 149.476 467.45 149.659L481.409 156.54C481.721 156.694 481.967 156.938 482.109 157.235C482.251 157.531 482.28 157.863 482.193 158.177C482.105 158.49 481.906 158.768 481.626 158.966C481.346 159.164 481.002 159.271 480.648 159.269V159.269Z" fill="black"/>
<path d="M486.041 150.429C485.755 150.425 485.475 150.349 485.232 150.211L474.493 144.317C474.283 144.238 474.094 144.119 473.939 143.967C473.784 143.816 473.666 143.636 473.594 143.439C473.521 143.242 473.496 143.034 473.519 142.827C473.542 142.621 473.613 142.421 473.728 142.242C473.842 142.063 473.997 141.908 474.183 141.789C474.368 141.669 474.579 141.587 474.802 141.549C475.025 141.51 475.254 141.515 475.474 141.565C475.695 141.614 475.901 141.706 476.079 141.835L486.834 147.729C487.193 147.928 487.452 148.248 487.553 148.621C487.654 148.994 487.589 149.388 487.373 149.718C487.236 149.93 487.041 150.107 486.808 150.232C486.575 150.356 486.311 150.424 486.041 150.429V150.429Z" fill="black"/>
<path d="M599.898 154.349C599.602 154.348 599.312 154.272 599.061 154.128C598.81 153.984 598.608 153.78 598.478 153.536C598.347 153.293 598.294 153.021 598.323 152.752C598.353 152.482 598.464 152.226 598.645 152.011L609.384 139.236C609.641 138.93 610.02 138.73 610.438 138.679C610.856 138.629 611.278 138.732 611.613 138.967C611.947 139.202 612.166 139.549 612.221 139.932C612.276 140.314 612.163 140.701 611.906 141.007L601.167 153.782C601.018 153.96 600.825 154.104 600.605 154.202C600.385 154.3 600.143 154.35 599.898 154.349V154.349Z" fill="black"/>
<path d="M602.056 165.164C601.847 165.165 601.64 165.129 601.447 165.056C601.254 164.984 601.078 164.878 600.93 164.743C600.634 164.471 600.468 164.103 600.468 163.72C600.468 163.336 600.634 162.968 600.93 162.696L617.047 147.946C617.189 147.794 617.364 147.671 617.561 147.584C617.757 147.497 617.972 147.448 618.19 147.44C618.409 147.432 618.627 147.466 618.83 147.539C619.034 147.612 619.219 147.723 619.373 147.864C619.528 148.006 619.649 148.175 619.728 148.361C619.808 148.547 619.845 148.747 619.837 148.947C619.828 149.147 619.775 149.343 619.679 149.523C619.584 149.703 619.449 149.863 619.283 149.993L603.166 164.743C602.871 165.011 602.472 165.163 602.056 165.164V165.164Z" fill="black"/>
<path d="M738.607 386.57H211.948V398.024H738.607V386.57Z" fill="#263238" stroke="#263238" stroke-miterlimit="10"/>
<path d="M494.314 247.623L495.234 224.496C495.236 224.221 495.317 223.951 495.47 223.713C495.624 223.476 495.843 223.28 496.107 223.146C496.614 222.833 497.208 222.657 497.82 222.638L499.406 224.09V228.053C499.406 236.638 499.337 243.04 499.2 247.26L502.071 247.057C504.054 247.057 505.038 247.652 505.038 248.828C505.038 250.004 503.721 250.846 501.056 250.846C499.993 250.846 499.47 251.092 499.47 251.571C499.47 253.43 499.549 255.927 499.739 259.237C499.72 261.193 499.97 263.144 500.485 265.044C500.365 265.633 500.301 266.23 500.294 266.829C500.271 267.344 500.427 267.852 500.739 268.281V269.733C500.739 271.809 499.961 272.84 498.391 272.84C497.91 272.843 497.437 272.724 497.025 272.495C496.614 272.267 496.279 271.939 496.059 271.548C495.528 270.756 495.243 269.848 495.234 268.92V268.644C495.585 267.679 495.767 266.67 495.773 265.653L495.044 257.625L495.139 254.039C495.146 253.189 495.082 252.34 494.949 251.499L489.492 251.934C488.076 251.87 486.718 251.403 485.605 250.599C485.579 249.525 485.729 248.453 486.049 247.42C485.725 245.87 485.576 244.294 485.605 242.716C485.689 239.889 485.943 237.068 486.367 234.267C486.775 231.493 487.024 228.702 487.112 225.905V210.661C487.077 210.231 487.2 209.802 487.461 209.442C487.683 209.181 488.191 209.05 488.968 209.05C489.708 209.039 490.434 209.236 491.046 209.616C491.325 209.765 491.557 209.976 491.721 210.23C491.885 210.485 491.975 210.773 491.982 211.068L491.538 217.485V218.936C491.534 219.426 491.598 219.913 491.728 220.388V220.664C491.946 222.34 492.046 224.028 492.03 225.716C492.03 227.618 491.792 230.913 491.316 235.573C490.84 240.233 490.618 243.326 490.618 244.806C490.596 245.853 490.643 246.901 490.761 247.942C491.954 247.942 493.144 247.835 494.314 247.623Z" fill="black"/>
<path d="M530.793 248.987L531.729 255.607C531.729 255.923 531.644 256.235 531.48 256.513C531.317 256.792 531.081 257.029 530.793 257.204C530.138 257.611 529.364 257.829 528.572 257.828C527.78 257.83 527.004 257.623 526.336 257.233C526.04 257.096 525.79 256.889 525.612 256.634C525.433 256.379 525.333 256.084 525.32 255.781L524.686 247.753V247.144L519.15 247.507C516.326 247.507 514.914 246.635 514.914 244.893C514.922 244.36 515.135 243.845 515.517 243.442C515.713 243.233 515.956 243.066 516.23 242.953C516.505 242.84 516.803 242.784 517.103 242.788L522.988 243.079C523.753 243.082 524.517 243.028 525.273 242.919L524.686 236.865C524.686 233.817 525.765 232.307 527.858 232.307C528.2 232.297 528.54 232.353 528.857 232.47C529.174 232.588 529.461 232.765 529.699 232.989C530.163 233.451 530.413 234.06 530.397 234.688V235.689C530.397 240.611 530.825 243.079 531.713 243.079L537.487 242.759C540.93 242.759 542.643 243.587 542.643 245.256C542.649 245.565 542.578 245.87 542.435 246.15C542.292 246.429 542.081 246.675 541.818 246.868C541.27 247.305 540.562 247.538 539.835 247.521L533.966 247.042C531.919 247.042 530.793 247.681 530.793 248.987Z" fill="black"/>
<path d="M554.216 235.791C554.216 216.802 557.78 207.308 564.908 207.308C565.481 207.321 566.036 207.499 566.494 207.816C566.738 207.966 566.936 208.17 567.072 208.408C567.208 208.646 567.276 208.912 567.271 209.181C567.235 209.519 567.108 209.843 566.904 210.126C566.699 210.41 566.423 210.643 566.097 210.807C565.309 211.308 564.41 211.645 563.464 211.794C562.623 212.462 561.878 214.378 561.18 217.514C560.1 222.631 559.421 227.812 559.149 233.018C559.673 232.932 560.204 232.888 560.736 232.888C567.292 232.888 571.147 239.662 572.3 253.212C572.57 256.014 572.696 258.424 572.696 260.471C572.696 262.518 572.696 263.911 572.601 264.71C572.518 265.611 572.332 266.501 572.046 267.367C571.811 268.231 571.372 269.039 570.761 269.733C569.982 270.473 569.032 271.044 567.981 271.406C566.93 271.768 565.804 271.91 564.685 271.823C558.435 271.504 554.967 263.277 554.279 247.144L554.216 235.791ZM565.399 268.354C567.113 268.354 567.985 266.496 567.985 262.75C567.95 258.542 567.654 254.34 567.097 250.163C565.933 240.988 563.988 236.149 561.259 235.646C560.463 236.069 559.843 236.723 559.498 237.504C559.197 238.327 559.057 239.192 559.086 240.059C559.086 241.075 559.086 242.034 559.086 242.963C559.086 243.892 559.086 245.184 559.181 246.824C559.276 248.465 559.324 250.018 559.451 251.484C559.578 252.951 559.736 254.533 559.942 256.246C560.101 257.783 560.361 259.311 560.72 260.819C561.037 262.169 561.418 263.432 561.83 264.608C562.718 267.105 563.908 268.339 565.399 268.354Z" fill="black"/>
<path d="M589.496 240.233L585.705 240.349C581.708 240.349 579.709 239.565 579.709 237.969C579.7 237.716 579.75 237.465 579.857 237.232C579.964 236.999 580.124 236.79 580.328 236.618C580.771 236.278 581.336 236.102 581.914 236.125H599.776C604.937 236.125 607.512 236.851 607.501 238.302C607.491 239.754 603.99 240.48 597 240.48C594.018 240.48 591.654 240.393 589.893 240.233H589.496ZM604.709 247.942L583.706 247.536C581.041 247.536 579.709 246.94 579.709 245.721C579.697 245.468 579.746 245.216 579.853 244.982C579.96 244.749 580.122 244.54 580.328 244.371C580.769 244.027 581.334 243.846 581.914 243.863H596.857C603.636 243.863 607.02 244.588 607.009 246.04C607.022 246.3 606.969 246.559 606.857 246.798C606.744 247.037 606.574 247.249 606.359 247.419C605.892 247.773 605.3 247.959 604.693 247.942H604.709Z" fill="black"/>
<path d="M628.087 266.452H625.724C625.068 266.495 624.412 266.38 623.82 266.118C623.614 265.967 623.452 265.771 623.349 265.548C623.247 265.324 623.207 265.081 623.233 264.841C623.233 264.231 623.36 263.824 623.614 263.65C624.212 263.429 624.86 263.345 625.502 263.403C626.533 263.403 627.088 263.04 627.088 262.3C627.088 257.984 626.686 251.562 625.883 243.035C625.079 234.509 624.677 228.218 624.677 224.163L624.804 221.753C624.804 219.691 623.884 218.661 622.044 218.661L620.219 218.733C618.728 218.733 617.967 218.254 617.967 217.281C617.967 216.12 620.108 215.554 624.312 215.554C626.533 215.554 627.881 215.917 628.373 216.643C628.086 217.722 627.931 218.827 627.913 219.938C628.003 221.786 628.204 223.628 628.516 225.455C628.903 227.98 629.104 230.526 629.119 233.076C629.119 235.486 629.404 240.146 629.959 247.086C630.515 254.025 630.816 259.222 630.816 262.707V263.113C632.069 262.997 633.037 262.924 633.735 262.924C635.972 262.924 637.098 263.476 637.098 264.565C637.098 265.654 634.1 266.452 628.087 266.452Z" fill="#0F0F0F"/>
<path d="M640.064 226.892C640.064 221.511 641.201 218.124 643.474 216.73C644.468 216.151 645.628 215.858 646.806 215.888C654.409 215.888 658.211 227.062 658.211 249.409C658.211 260.432 655.367 265.944 649.677 265.944C645.447 265.944 642.618 260.573 641.19 249.83C640.318 242.211 639.942 234.552 640.064 226.892V226.892ZM644.172 234.354L644.981 240.785C644.909 246.541 645.494 252.287 646.726 257.931C647.551 261.299 648.789 262.983 650.407 262.983C651.184 262.983 651.866 262.329 652.469 261.023C653.148 259.499 653.591 257.897 653.786 256.261C654.231 253.569 654.486 250.853 654.547 248.131C654.547 246.196 654.499 244.337 654.404 242.557C654.309 240.776 654.182 238.671 654.023 236.242C653.857 234.002 653.555 231.773 653.119 229.564C652.732 227.604 652.229 225.666 651.612 223.757C650.343 219.808 648.44 217.688 645.917 217.383C645.249 217.827 644.706 218.409 644.331 219.082C644.028 219.799 643.888 220.564 643.919 221.332L644.172 234.354Z" fill="black"/>
<path d="M501.576 356.518H500.148C497.103 356.518 495.58 355.865 495.58 354.558C495.572 354.315 495.643 354.074 495.784 353.868C495.925 353.661 496.13 353.497 496.373 353.397C496.962 353.123 497.616 352.988 498.276 353.005C499 353.003 499.708 353.2 500.307 353.571C501.639 353.194 502.686 351.931 503.48 349.782C504.166 348.077 504.557 346.284 504.638 344.469C504.638 343.017 504.638 341.972 504.638 341.217C504.638 340.462 504.638 339.489 504.542 338.313C504.447 337.137 504.4 336.136 504.273 335.41C504.146 334.684 503.987 333.755 503.765 332.739C503.594 331.888 503.329 331.056 502.972 330.256C502.625 329.548 502.222 328.864 501.766 328.209C501.346 327.586 500.809 327.036 500.18 326.583C498.725 325.647 496.993 325.141 495.215 325.131C494.69 325.196 494.156 325.104 493.693 324.868C493.23 324.633 492.862 324.267 492.645 323.825C492.297 322.981 492.13 322.084 492.153 321.183L492.597 317.669C492.345 312.788 491.666 307.934 490.567 303.152L491.995 301.932H498.8C501.116 301.932 502.258 302.513 502.258 303.689V304.067L500.672 305.112H498.594V304.909H495.04C495.178 307.812 495.707 313.29 496.627 321.342C496.754 321.342 497.293 321.415 498.213 321.473L500.212 321.676C501.322 321.798 502.398 322.108 503.384 322.591C505.025 323.833 506.146 325.557 506.557 327.469C507.932 331.709 508.616 336.111 508.587 340.534C508.695 342.96 508.563 345.389 508.191 347.793C507.921 348.673 507.604 349.541 507.239 350.392C506.965 351.17 506.553 351.901 506.018 352.555C504.779 354.085 503.279 355.423 501.576 356.518V356.518Z" fill="black"/>
<path d="M527.528 336.601L528.305 342.147C528.305 342.421 528.228 342.691 528.08 342.93C527.933 343.169 527.721 343.369 527.465 343.511C526.925 343.856 526.282 344.038 525.624 344.034C524.956 344.041 524.3 343.869 523.737 343.54C523.483 343.42 523.269 343.239 523.118 343.017C522.968 342.794 522.885 342.539 522.88 342.277L522.357 335.556V335.048L517.709 335.352C515.345 335.352 514.171 334.612 514.171 333.146C514.163 332.686 514.344 332.24 514.679 331.897C514.846 331.718 515.056 331.577 515.293 331.483C515.529 331.39 515.786 331.348 516.043 331.36L520.976 331.592C521.614 331.597 522.251 331.553 522.88 331.462L522.404 326.381C522.404 323.84 523.293 322.563 525.085 322.563C525.38 322.543 525.677 322.585 525.951 322.686C526.226 322.786 526.472 322.943 526.671 323.143C526.873 323.336 527.03 323.564 527.134 323.813C527.238 324.063 527.285 324.328 527.274 324.595V325.437C527.274 329.56 527.639 331.622 528.369 331.622L533.223 331.346C536.094 331.346 537.538 332.057 537.538 333.451C537.544 333.71 537.484 333.967 537.363 334.201C537.242 334.436 537.063 334.641 536.84 334.801C536.397 335.146 535.835 335.336 535.253 335.338L530.32 334.975C528.416 334.946 527.528 335.498 527.528 336.601Z" fill="black"/>
<path d="M560.542 355.153L547.851 355.807C547.094 355.82 546.351 355.617 545.726 355.226C545.438 355.069 545.2 354.845 545.036 354.578C544.871 354.311 544.787 354.008 544.79 353.702V353.44C546.078 352.107 547.075 350.56 547.724 348.882C548.517 347.014 549.046 345.78 549.311 345.18C552.196 340.033 554.569 334.66 556.402 329.124C557.997 323.987 558.782 318.668 558.733 313.329C558.733 307.681 557.401 304.749 554.736 304.618C553.816 305.025 553.15 306.07 552.864 307.928C552.578 309.786 551.706 310.469 550.373 310.469C549.041 310.469 548.375 309.757 548.375 308.335C548.329 307.322 548.516 306.312 548.923 305.369C549.33 304.426 549.949 303.572 550.738 302.862C551.132 302.496 551.601 302.206 552.119 302.009C552.636 301.813 553.192 301.712 553.752 301.715V301.715C554.927 301.611 556.112 301.759 557.213 302.147C558.315 302.535 559.302 303.152 560.098 303.95C560.908 304.824 561.523 305.835 561.906 306.926C562.16 307.812 562.35 308.509 562.445 309.017C562.541 309.525 562.604 310.207 562.667 311.02C562.747 312.24 562.778 314.011 562.778 316.334C562.671 319.394 562.181 322.434 561.319 325.393C560.519 328.611 559.459 331.77 558.146 334.843C557.004 337.428 555.545 340.534 553.816 344.149C552.087 347.764 550.818 350.566 550.056 352.468C553.322 352.011 556.62 351.778 559.923 351.771C561.097 352.468 561.684 353.092 561.684 353.644C561.629 353.958 561.499 354.256 561.301 354.518C561.103 354.779 560.844 354.996 560.542 355.153V355.153Z" fill="black"/>
<path d="M575.627 329.254L572.454 329.356C569.123 329.356 567.441 328.703 567.441 327.367C567.431 327.156 567.471 326.945 567.558 326.75C567.646 326.554 567.779 326.378 567.949 326.235C568.327 325.938 568.816 325.787 569.313 325.814H584.272C588.603 325.814 590.76 326.423 590.76 327.643C590.76 328.862 587.826 329.458 581.956 329.458C579.971 329.482 577.985 329.414 576.007 329.254H575.627ZM588.317 335.715L570.709 335.381C568.472 335.381 567.362 334.873 567.362 333.929C567.351 333.718 567.391 333.507 567.479 333.311C567.567 333.116 567.7 332.94 567.87 332.797C568.251 332.506 568.738 332.356 569.234 332.376H581.75C587.429 332.376 590.268 332.985 590.268 334.205C590.276 334.422 590.229 334.637 590.133 334.836C590.037 335.034 589.894 335.211 589.713 335.352C589.329 335.611 588.858 335.74 588.381 335.715H588.317Z" fill="black"/>
<path d="M848.148 340.476L849.583 515.259H860.908V437.476H873.474V515.259H885.264V437.476H897.17V515.259H907.7V437.525H917.396V515.259H928.701V427.892C928.701 427.892 937.505 398.091 923.776 382.113C910.046 366.136 883.596 364.032 883.596 364.032L878.71 336.088L866.415 190.285L877.662 170.017C877.662 170.017 907.196 165.25 905.8 160.483C904.404 155.716 883.208 156.916 883.208 156.916L887.087 146.873C887.087 146.873 892.71 146.873 892.71 142.632C892.71 138.391 885.846 136.796 883.965 138.917C882.084 141.037 883.965 144.21 883.965 144.21L873.745 153.875L875.84 142.106C875.84 142.106 880.843 139.443 878.962 136.796C877.081 134.15 869.596 135.153 869.596 138.44V141.613L860.637 153.398C860.637 153.398 823.696 135.744 813.302 153.398C799.728 176.411 846.578 190.367 846.578 190.367L848.148 340.476Z" fill="#FFD600" stroke="#263238" stroke-miterlimit="10"/>
<path d="M876.586 365.06C876.586 365.06 858.844 382.233 863.916 388.682C868.988 395.13 888.003 390.82 888.003 385.466C888.003 380.111 882.931 366.137 876.586 365.06Z" fill="#C86F1E" stroke="#263238" stroke-miterlimit="10"/>
<path d="M916.536 403.625C916.536 403.625 893.436 389.981 893.436 401.532C893.436 413.082 904.996 423.595 910.131 421.486C915.267 419.377 924.209 415.127 916.536 403.625Z" fill="#C86F1E" stroke="#263238" stroke-miterlimit="10"/>
<path d="M876.306 402.927C876.306 402.927 865.587 411.525 869.172 416.875C872.757 422.226 885.829 431.901 885.829 423.32C885.829 414.738 883.457 401.8 876.306 402.927Z" fill="#C86F1E" stroke="#263238" stroke-miterlimit="10"/>
<path d="M813.006 194.966H834.744" stroke="#263238" stroke-miterlimit="10"/>
<path d="M813.006 202.924H826.049" stroke="#263238" stroke-miterlimit="10"/>
<path d="M813.006 208.892H834.744" stroke="#263238" stroke-miterlimit="10"/>
<path d="M813.006 216.85H826.049" stroke="#263238" stroke-miterlimit="10"/>
<path d="M813.006 222.818H834.744" stroke="#263238" stroke-miterlimit="10"/>
<path d="M813.006 230.775H826.049" stroke="#263238" stroke-miterlimit="10"/>
<path d="M813.006 236.743H834.744" stroke="#263238" stroke-miterlimit="10"/>
<path d="M813.006 244.701H826.049" stroke="#263238" stroke-miterlimit="10"/>
<path d="M813.006 251.664H834.744" stroke="#263238" stroke-miterlimit="10"/>
<path d="M813.006 258.627H826.049" stroke="#263238" stroke-miterlimit="10"/>
<path d="M813.006 265.59H834.744" stroke="#263238" stroke-miterlimit="10"/>
<path d="M813.006 272.553H826.049" stroke="#263238" stroke-miterlimit="10"/>
<path d="M813.006 279.515H834.744" stroke="#263238" stroke-miterlimit="10"/>
<path d="M813.006 286.479H826.049" stroke="#263238" stroke-miterlimit="10"/>
<path d="M813.006 293.441H834.744" stroke="#263238" stroke-miterlimit="10"/>
<path d="M813.006 301.399H826.049" stroke="#263238" stroke-miterlimit="10"/>
<path d="M813.006 307.367H834.744" stroke="#263238" stroke-miterlimit="10"/>
<path d="M813.006 315.325H826.049" stroke="#263238" stroke-miterlimit="10"/>
<path d="M813.006 321.293H834.744" stroke="#263238" stroke-miterlimit="10"/>
<path d="M813.006 329.25H826.049" stroke="#263238" stroke-miterlimit="10"/>
<path d="M813.006 335.219H834.744" stroke="#263238" stroke-miterlimit="10"/>
<path d="M813.006 343.176H826.049" stroke="#263238" stroke-miterlimit="10"/>
<path d="M813.006 349.145H834.744" stroke="#263238" stroke-miterlimit="10"/>
<path d="M813.006 357.102H826.049" stroke="#263238" stroke-miterlimit="10"/>
<path d="M813.006 363.07H834.744" stroke="#263238" stroke-miterlimit="10"/>
<path d="M813.006 371.028H826.049" stroke="#263238" stroke-miterlimit="10"/>
<path d="M813.006 376.996H834.744" stroke="#263238" stroke-miterlimit="10"/>
<path d="M813.006 384.954H826.049" stroke="#263238" stroke-miterlimit="10"/>
<path d="M813.006 391.916H834.744" stroke="#263238" stroke-miterlimit="10"/>
<path d="M813.006 398.879H826.049" stroke="#263238" stroke-miterlimit="10"/>
<path d="M813.006 405.842H834.744" stroke="#263238" stroke-miterlimit="10"/>
<path d="M813.006 412.805H826.049" stroke="#263238" stroke-miterlimit="10"/>
<path d="M813.006 419.768H834.744" stroke="#263238" stroke-miterlimit="10"/>
<path d="M813.006 426.731H826.049" stroke="#263238" stroke-miterlimit="10"/>
<path d="M813.006 433.694H834.744" stroke="#263238" stroke-miterlimit="10"/>
<path d="M813.006 441.651H826.049" stroke="#263238" stroke-miterlimit="10"/>
<path d="M813.006 447.62H834.744" stroke="#263238" stroke-miterlimit="10"/>
<path d="M813.006 455.577H826.049" stroke="#263238" stroke-miterlimit="10"/>
<path d="M813.006 461.546H834.744" stroke="#263238" stroke-miterlimit="10"/>
<path d="M813.006 469.503H826.049" stroke="#263238" stroke-miterlimit="10"/>
<path d="M813.006 475.471H834.744" stroke="#263238" stroke-miterlimit="10"/>
<path d="M813.006 483.429H826.049" stroke="#263238" stroke-miterlimit="10"/>
<path d="M813.006 489.397H834.744" stroke="#263238" stroke-miterlimit="10"/>
<path d="M813.006 497.354H826.049" stroke="#263238" stroke-miterlimit="10"/>
<path d="M813.006 504.317H834.744" stroke="#263238" stroke-miterlimit="10"/>
<path d="M813.006 511.28H826.049" stroke="#263238" stroke-miterlimit="10"/>
<path d="M868.439 161.644C868.439 163.12 867.929 164.563 866.973 165.79C866.016 167.017 864.657 167.973 863.067 168.538C861.477 169.102 859.728 169.249 858.041 168.959C856.353 168.67 854.804 167.958 853.589 166.913C852.374 165.868 851.547 164.537 851.214 163.089C850.88 161.641 851.055 160.14 851.716 158.777C852.377 157.414 853.495 156.25 854.927 155.433C856.36 154.615 858.043 154.18 859.763 154.183C860.904 154.183 862.034 154.377 863.088 154.752C864.142 155.127 865.099 155.677 865.905 156.369C866.711 157.062 867.35 157.885 867.784 158.79C868.219 159.695 868.442 160.665 868.439 161.644Z" fill="white" stroke="#263238" stroke-miterlimit="10"/>
<path d="M859.744 169.104C862.745 169.104 865.179 166.877 865.179 164.131C865.179 161.384 862.745 159.157 859.744 159.157C856.743 159.157 854.31 161.384 854.31 164.131C854.31 166.877 856.743 169.104 859.744 169.104Z" fill="#263238"/>
<path d="M838.005 187.009C838.005 187.009 852.035 182.983 855.615 176.067L860.83 177.787" stroke="#263238" stroke-miterlimit="10"/>
<path d="M867.162 202.924C867.162 202.924 859.409 216.072 854.156 217.705C848.903 219.339 846.402 225.872 852.218 230.772C855.898 233.849 859.93 236.612 864.255 239.02L870.613 242.712L867.162 202.924Z" fill="#C86F1E" stroke="#263238" stroke-miterlimit="10"/>
<path d="M847.787 255.576C847.787 255.576 851.503 251.552 854.701 260.264C857.9 268.975 853.418 277.654 859.202 281.467C864.986 285.279 867.552 291.8 862.4 296.148C857.248 300.496 848.515 302.394 848.515 302.394L847.787 255.576Z" fill="#C86F1E" stroke="#263238" stroke-miterlimit="10"/>
<path d="M835.879 146.226C835.879 146.226 843.088 167.23 819.527 176.067" stroke="#263238" stroke-miterlimit="10"/>
<path d="M826.048 157.168C826.048 157.561 825.888 157.946 825.59 158.273C825.291 158.6 824.867 158.855 824.37 159.006C823.874 159.156 823.328 159.196 822.8 159.119C822.273 159.042 821.789 158.853 821.409 158.574C821.029 158.296 820.77 157.942 820.665 157.556C820.561 157.17 820.614 156.77 820.82 156.406C821.026 156.043 821.374 155.732 821.821 155.513C822.268 155.295 822.793 155.178 823.331 155.178C824.049 155.183 824.737 155.393 825.245 155.766C825.754 156.138 826.042 156.641 826.048 157.168V157.168Z" fill="#263238" stroke="#263238" stroke-miterlimit="10"/>
<path d="M875.577 294.436C875.577 294.436 868.756 306.805 863.347 312.399C857.939 317.992 856.566 321.871 862.661 324.668C867.697 326.802 872.894 328.664 878.221 330.245L875.577 294.436Z" fill="#C86F1E" stroke="#263238" stroke-miterlimit="10"/>
<path d="M938 124.343H803.223V526.201H938V124.343Z" stroke="#263238" stroke-miterlimit="10"/>
<path d="M88.4259 104.449L21.022 107.403L25.5432 184.621L92.9472 181.667L88.4259 104.449Z" stroke="#263238" stroke-miterlimit="10"/>
<path d="M59.9466 144.512C59.9466 144.512 49.8607 129.726 41.4649 133.66C33.0691 137.593 36.422 143.025 43.1414 145.495L49.8607 147.954C49.8607 147.954 39.2161 145.495 36.422 153.374C33.6279 161.252 39.7749 163.722 44.259 164.166C48.7431 164.61 56.0213 159.741 56.0213 159.741C56.0213 159.741 45.9354 167.62 55.4625 172.056C64.9895 176.493 73.9441 171.565 74.5438 166.145C74.8689 162.981 74.2781 159.796 72.8265 156.887C75.2947 156.593 77.5957 155.624 79.4052 154.119C81.2147 152.613 82.4414 150.645 82.9124 148.493C85.1476 140.615 81.2359 137.161 74.503 137.161C67.77 137.161 59.9466 144.512 59.9466 144.512Z" stroke="#F2294E" stroke-miterlimit="10"/>
<path d="M68.3275 153.883C68.3275 155.063 67.9132 156.217 67.1369 157.199C66.3606 158.18 65.2572 158.945 63.9663 159.397C62.6753 159.849 61.2548 159.967 59.8844 159.736C58.5139 159.506 57.2551 158.938 56.267 158.103C55.279 157.268 54.6061 156.205 54.3335 155.047C54.0609 153.89 54.2008 152.69 54.7355 151.599C55.2703 150.508 56.1758 149.576 57.3376 148.921C58.4994 148.265 59.8653 147.915 61.2626 147.915C63.1352 147.918 64.93 148.548 66.2541 149.666C67.5782 150.785 68.3238 152.301 68.3275 153.883V153.883Z" stroke="#F2294E" stroke-miterlimit="10"/>
<path d="M28.1123 118.074L82.4576 116.084" stroke="#263238" stroke-miterlimit="10"/>
<path d="M29.1982 128.021L83.5436 126.031" stroke="#263238" stroke-miterlimit="10"/>
<path d="M94.4127 202.178L27.167 197.211L19.5647 274.248L86.8104 279.215L94.4127 202.178Z" stroke="#263238" stroke-miterlimit="10"/>
<path d="M32.459 208.591L86.8043 212.57" stroke="#263238" stroke-miterlimit="10"/>
<path d="M31.373 218.538L85.7184 222.517" stroke="#263238" stroke-miterlimit="10"/>
<path d="M30.2856 229.48L84.631 233.459" stroke="#263238" stroke-miterlimit="10"/>
<path d="M29.1982 239.427L83.5436 243.406" stroke="#263238" stroke-miterlimit="10"/>
<path d="M28.1123 249.374L82.4576 253.353" stroke="#263238" stroke-miterlimit="10"/>
<path d="M27.0244 259.321L82.4567 264.294" stroke="#263238" stroke-miterlimit="10"/>
<path d="M55.418 446.668V282.132" stroke="#92E3A9" stroke-linecap="round" stroke-linejoin="round"/>
<path d="M54.0788 431.817C54.0788 431.817 44.6075 419.452 32.4372 413.27C20.267 407.087 0 407.133 0 407.133C0 407.133 10.8124 442.955 54.0788 431.817Z" fill="#92E3A9"/>
<path d="M55.4165 431.817C55.4165 431.817 64.8878 419.452 77.0413 413.27C89.1948 407.087 109.495 407.133 109.495 407.133C109.495 407.133 98.6829 442.955 55.4165 431.817Z" fill="#92E3A9"/>
<path d="M54.0788 387.282C54.0788 387.282 44.6075 374.916 32.4372 368.734C20.267 362.551 0 362.597 0 362.597C0 362.597 10.8124 398.419 54.0788 387.282Z" fill="#92E3A9"/>
<path d="M55.4165 387.282C55.4165 387.282 64.8878 374.916 77.0413 368.734C89.1948 362.551 109.495 362.597 109.495 362.597C109.495 362.597 98.6829 398.419 55.4165 387.282Z" fill="#92E3A9"/>
<path d="M54.0788 342.746C54.0788 342.746 44.6075 330.381 32.4372 324.198C20.267 318.016 0 318.062 0 318.062C0 318.062 10.8124 353.884 54.0788 342.746Z" fill="#92E3A9"/>
<path d="M55.4165 342.746C55.4165 342.746 64.8878 330.381 77.0413 324.198C89.1948 318.016 109.495 318.062 109.495 318.062C109.495 318.062 98.6829 353.884 55.4165 342.746Z" fill="#92E3A9"/>
<path d="M54.0788 298.226C54.0788 298.226 44.6075 285.846 32.4372 279.663C20.267 273.481 0 273.527 0 273.527C0 273.527 10.8124 309.349 54.0788 298.226Z" fill="#92E3A9"/>
<path d="M55.4165 298.226C55.4165 298.226 64.8878 285.846 77.0413 279.663C89.1948 273.481 109.495 273.527 109.495 273.527C109.495 273.527 98.6829 309.349 55.4165 298.226Z" fill="#92E3A9"/>
<path d="M55.3926 282.163C55.3926 282.163 44.5802 268.847 44.027 256.083C43.4738 243.319 52.6267 226.797 52.6267 226.797C52.6267 226.797 85.7847 251.833 55.3926 282.163Z" fill="#92E3A9"/>
<path d="M33.603 442.525H75.0422L64.6824 546.278H43.9628L33.603 442.525Z" fill="#263238" stroke="#263238" stroke-miterlimit="10"/>
</svg>
