<svg width="982" height="539" viewBox="0 0 982 539" fill="none" xmlns="http://www.w3.org/2000/svg">
<path opacity="0.2" d="M146.331 89.707V95.7437L143 215.447L155.605 226.363H224.84V108.771H364.608L361.293 85.6095L146.331 89.707Z" fill="black"/>
<path d="M221.525 91.6301H143V215.446H221.525V91.6301Z" fill="white" stroke="#263238" stroke-linecap="round" stroke-linejoin="round"/>
<path d="M216.729 96.713H147.807V210.363H216.729V96.713Z" fill="#999999" stroke="#263238" stroke-linecap="round" stroke-linejoin="round"/>
<path d="M173.201 198.274C173.201 201.041 172.102 203.694 170.145 205.65C168.189 207.606 165.536 208.706 162.769 208.706C160.003 208.706 157.349 207.606 155.393 205.65C153.437 203.694 152.338 201.041 152.338 198.274C152.338 192.519 157.03 177.13 162.769 177.13C168.509 177.13 173.201 192.519 173.201 198.274Z" fill="#ABEAF2" stroke="#263238" stroke-linecap="round" stroke-linejoin="round"/>
<path d="M173.201 198.274C173.104 195.988 172.741 193.721 172.122 191.518C171.962 191.697 171.79 191.865 171.605 192.018C170.373 193.689 169.324 195.487 168.478 197.383C168.478 197.383 166.914 200.511 165.897 199.76C163.342 198.043 160.689 196.476 157.952 195.068C156.309 194.25 154.74 193.293 153.261 192.206C152.732 194.216 152.423 196.276 152.338 198.352C152.338 201.119 153.437 203.772 155.393 205.728C157.349 207.685 160.003 208.784 162.769 208.784C165.536 208.784 168.189 207.685 170.145 205.728C172.102 203.772 173.201 201.119 173.201 198.352V198.274Z" fill="#35E868" stroke="#263238" stroke-linecap="round" stroke-linejoin="round"/>
<path d="M202.631 198.274C202.527 200.969 201.383 203.518 199.44 205.388C197.496 207.257 194.904 208.302 192.208 208.302C189.511 208.302 186.919 207.257 184.976 205.388C183.032 203.518 181.889 200.969 181.784 198.274C181.784 192.519 186.476 177.13 192.216 177.13C197.955 177.13 202.631 192.519 202.631 198.274Z" fill="#ABEAF2" stroke="#263238" stroke-linecap="round" stroke-linejoin="round"/>
<path d="M202.631 198.274C202.541 195.988 202.184 193.721 201.568 191.518C201.404 191.694 201.232 191.861 201.052 192.018C199.813 193.685 198.764 195.484 197.924 197.383C197.924 197.383 196.36 200.511 195.328 199.76C192.781 198.038 190.134 196.471 187.399 195.068C185.756 194.25 184.186 193.293 182.707 192.206C182.171 194.214 181.861 196.276 181.784 198.352C181.889 201.047 183.032 203.597 184.976 205.466C186.919 207.336 189.511 208.38 192.208 208.38C194.904 208.38 197.496 207.336 199.44 205.466C201.383 203.597 202.527 201.047 202.631 198.352V198.274Z" fill="#E10000" stroke="#263238" stroke-linecap="round" stroke-linejoin="round"/>
<path d="M184.27 152.295L191.01 167.544H181.423L178.593 154.422L184.27 152.295Z" fill="#AB5B2E" stroke="#263238" stroke-linecap="round" stroke-linejoin="round"/>
<path d="M186.757 141.644H167.599L160.139 167.199H179.297L186.757 141.644Z" fill="#AB5B2E" stroke="#263238" stroke-linecap="round" stroke-linejoin="round"/>
<path d="M184.161 144.131H168.741L162.735 164.713H178.156L184.161 144.131Z" fill="white" stroke="#263238" stroke-linecap="round" stroke-linejoin="round"/>
<path d="M192.423 102.984H176.111V131.01H192.423V102.984Z" fill="#B925A1" stroke="black" stroke-linecap="round" stroke-linejoin="round"/>
<path d="M204.482 113.979H194.567V131.01H204.482V113.979Z" fill="#37EE75" stroke="black" stroke-linecap="round" stroke-linejoin="round"/>
<path d="M166.68 61.5093L155.186 85.6406H168.87L172.92 66.8735L166.68 61.5093Z" fill="#AB5B2E" stroke="#263238" stroke-linecap="round" stroke-linejoin="round"/>
<path d="M161.267 48.6378H188.636L199.286 85.1242H171.917L161.267 48.6378Z" fill="#AB5B2E" stroke="#263238" stroke-linecap="round" stroke-linejoin="round"/>
<path d="M164.96 52.1882H187.012L195.598 81.59H173.546L164.96 52.1882Z" fill="white" stroke="#263238" stroke-linecap="round" stroke-linejoin="round"/>
<path d="M216.729 131.511H147.807V138.236H216.729V131.511Z" fill="white" stroke="#263238" stroke-linecap="round" stroke-linejoin="round"/>
<path d="M216.729 167.402H147.807V174.127H216.729V167.402Z" fill="white" stroke="#263238" stroke-linecap="round" stroke-linejoin="round"/>
<path d="M361.293 85.6095H143V91.6462H361.293V85.6095Z" fill="white" stroke="#263238" stroke-linecap="round" stroke-linejoin="round"/>
<path d="M236.167 67.9208L292.375 7.02161" stroke="#263238" stroke-linecap="round" stroke-linejoin="round"/>
<path d="M253.725 47.4178L237.914 15.8109" stroke="#263238" stroke-linecap="round" stroke-linejoin="round"/>
<path d="M272.462 28.6826L271.883 4.69202" stroke="#263238" stroke-linecap="round" stroke-linejoin="round"/>
<path d="M262.168 39.8179L339.207 19.3148" stroke="#263238" stroke-linecap="round" stroke-linejoin="round"/>
<path d="M225.783 61.6497C226.284 71.6588 234.26 84.4361 244.065 84.4361C253.871 84.4361 261.847 71.6588 262.348 61.6497H225.783Z" fill="#E8D635" stroke="#263238" stroke-linecap="round" stroke-linejoin="round"/>
<path d="M343.887 19.2515C343.887 18.3235 343.612 17.4164 343.097 16.6449C342.581 15.8733 341.848 15.2719 340.991 14.9168C340.134 14.5617 339.19 14.4688 338.28 14.6498C337.37 14.8309 336.534 15.2777 335.878 15.9339C335.222 16.59 334.775 17.426 334.594 18.3361C334.413 19.2463 334.506 20.1896 334.861 21.0469C335.216 21.9042 335.817 22.637 336.589 23.1525C337.361 23.6681 338.268 23.9432 339.196 23.9432C340.44 23.9432 341.633 23.4489 342.513 22.569C343.393 21.6892 343.887 20.4958 343.887 19.2515Z" fill="#E8D635"/>
<path d="M298.218 5.27001C298.218 4.34207 297.943 3.43497 297.428 2.66341C296.912 1.89185 296.179 1.2905 295.322 0.935387C294.465 0.580278 293.522 0.487368 292.611 0.668401C291.701 0.849434 290.865 1.29628 290.209 1.95244C289.553 2.6086 289.106 3.44459 288.925 4.3547C288.744 5.26482 288.837 6.20818 289.192 7.06548C289.547 7.92279 290.149 8.65554 290.92 9.17108C291.692 9.68661 292.599 9.96178 293.527 9.96178C294.771 9.96178 295.964 9.46748 296.844 8.5876C297.724 7.70772 298.218 6.51435 298.218 5.27001V5.27001Z" fill="#E8D635"/>
<path d="M275.981 4.69178C275.981 3.76384 275.706 2.85673 275.19 2.08517C274.674 1.31362 273.942 0.712249 273.084 0.35714C272.227 0.00203067 271.284 -0.0908791 270.374 0.090154C269.464 0.271187 268.628 0.718038 267.971 1.37419C267.315 2.03035 266.868 2.86634 266.687 3.77646C266.506 4.68657 266.599 5.62993 266.954 6.48724C267.309 7.34455 267.911 8.07731 268.682 8.59284C269.454 9.10838 270.361 9.38355 271.289 9.38355C272.533 9.38355 273.727 8.88923 274.607 8.00936C275.486 7.12948 275.981 5.93612 275.981 4.69178V4.69178Z" fill="#E8D635"/>
<path d="M242.609 15.2175C242.609 14.2896 242.333 13.3825 241.818 12.6109C241.302 11.8394 240.57 11.238 239.712 10.8829C238.855 10.5278 237.912 10.4349 237.002 10.6159C236.091 10.7969 235.255 11.2438 234.599 11.8999C233.943 12.5561 233.496 13.3921 233.315 14.3022C233.134 15.2123 233.227 16.1557 233.582 17.013C233.937 17.8703 234.539 18.603 235.31 19.1186C236.082 19.6341 236.989 19.9093 237.917 19.9093C239.161 19.9093 240.355 19.415 241.234 18.5351C242.114 17.6552 242.609 16.4619 242.609 15.2175Z" fill="#E8D635"/>
<path opacity="0.2" d="M828.277 89.707V95.7437L831.608 215.447L819.003 226.363H749.768V108.771H610L613.315 85.6095L828.277 89.707Z" fill="black"/>
<path d="M753.083 91.6301H831.608V215.446H753.083V91.6301Z" fill="white" stroke="#263238" stroke-linecap="round" stroke-linejoin="round"/>
<path d="M757.879 96.713H826.801V210.363H757.879V96.713Z" fill="#999999" stroke="#263238" stroke-linecap="round" stroke-linejoin="round"/>
<path d="M801.407 198.274C801.407 201.041 802.506 203.694 804.463 205.65C806.419 207.606 809.072 208.706 811.839 208.706C814.605 208.706 817.258 207.606 819.215 205.65C821.171 203.694 822.27 201.041 822.27 198.274C822.27 192.519 817.578 177.13 811.839 177.13C806.099 177.13 801.407 192.519 801.407 198.274Z" fill="#ABEAF2" stroke="#263238" stroke-linecap="round" stroke-linejoin="round"/>
<path d="M801.407 198.274C801.504 195.988 801.867 193.721 802.486 191.518C802.646 191.697 802.818 191.865 803.002 192.018C804.235 193.689 805.284 195.487 806.13 197.383C806.13 197.383 807.694 200.511 808.711 199.76C811.266 198.043 813.918 196.476 816.656 195.068C818.298 194.25 819.868 193.293 821.347 192.206C821.876 194.216 822.185 196.276 822.27 198.352C822.27 201.119 821.171 203.772 819.215 205.728C817.258 207.685 814.605 208.784 811.839 208.784C809.072 208.784 806.419 207.685 804.463 205.728C802.506 203.772 801.407 201.119 801.407 198.352V198.274Z" fill="#35E868" stroke="#263238" stroke-linecap="round" stroke-linejoin="round"/>
<path d="M771.977 198.274C772.081 200.969 773.225 203.518 775.168 205.388C777.112 207.257 779.704 208.302 782.4 208.302C785.097 208.302 787.689 207.257 789.632 205.388C791.575 203.518 792.719 200.969 792.824 198.274C792.824 192.519 788.132 177.13 782.392 177.13C776.653 177.13 771.977 192.519 771.977 198.274Z" fill="#ABEAF2" stroke="#263238" stroke-linecap="round" stroke-linejoin="round"/>
<path d="M771.977 198.274C772.067 195.988 772.424 193.721 773.04 191.518C773.203 191.694 773.376 191.861 773.556 192.018C774.795 193.685 775.844 195.484 776.684 197.383C776.684 197.383 778.248 200.511 779.28 199.76C781.827 198.038 784.474 196.471 787.209 195.068C788.852 194.25 790.422 193.293 791.901 192.206C792.437 194.214 792.746 196.276 792.824 198.352C792.719 201.047 791.575 203.597 789.632 205.466C787.689 207.336 785.097 208.38 782.4 208.38C779.704 208.38 777.112 207.336 775.168 205.466C773.225 203.597 772.081 201.047 771.977 198.352V198.274Z" fill="#E10000" stroke="#263238" stroke-linecap="round" stroke-linejoin="round"/>
<path d="M790.338 152.295L783.598 167.544H793.184L796.015 154.422L790.338 152.295Z" fill="#AB5B2E" stroke="#263238" stroke-linecap="round" stroke-linejoin="round"/>
<path d="M787.851 141.644H807.009L814.469 167.199H795.311L787.851 141.644Z" fill="#AB5B2E" stroke="#263238" stroke-linecap="round" stroke-linejoin="round"/>
<path d="M790.447 144.131H805.867L811.873 164.713H796.452L790.447 144.131Z" fill="white" stroke="#263238" stroke-linecap="round" stroke-linejoin="round"/>
<path d="M782.185 102.984H798.497V131.01H782.185V102.984Z" fill="#B925A1" stroke="black" stroke-linecap="round" stroke-linejoin="round"/>
<path d="M770.126 113.979H780.041V131.01H770.126V113.979Z" fill="#37EE75" stroke="black" stroke-linecap="round" stroke-linejoin="round"/>
<path d="M807.928 61.5093L819.422 85.6406H805.738L801.687 66.8735L807.928 61.5093Z" fill="#AB5B2E" stroke="#263238" stroke-linecap="round" stroke-linejoin="round"/>
<path d="M813.341 48.6378H785.972L775.322 85.1242H802.691L813.341 48.6378Z" fill="#AB5B2E" stroke="#263238" stroke-linecap="round" stroke-linejoin="round"/>
<path d="M809.647 52.1882H787.596L779.01 81.59H801.062L809.647 52.1882Z" fill="white" stroke="#263238" stroke-linecap="round" stroke-linejoin="round"/>
<path d="M757.879 131.511H826.801V138.236H757.879V131.511Z" fill="white" stroke="#263238" stroke-linecap="round" stroke-linejoin="round"/>
<path d="M757.879 167.402H826.801V174.127H757.879V167.402Z" fill="white" stroke="#263238" stroke-linecap="round" stroke-linejoin="round"/>
<path d="M613.315 85.6095H831.608V91.6462H613.315V85.6095Z" fill="white" stroke="#263238" stroke-linecap="round" stroke-linejoin="round"/>
<path d="M738.44 67.9208L682.233 7.02161" stroke="#263238" stroke-linecap="round" stroke-linejoin="round"/>
<path d="M720.883 47.4178L736.694 15.8109" stroke="#263238" stroke-linecap="round" stroke-linejoin="round"/>
<path d="M702.146 28.6826L702.725 4.69202" stroke="#263238" stroke-linecap="round" stroke-linejoin="round"/>
<path d="M712.439 39.8179L635.401 19.3148" stroke="#263238" stroke-linecap="round" stroke-linejoin="round"/>
<path d="M748.825 61.6497C748.324 71.6588 740.348 84.4361 730.542 84.4361C720.737 84.4361 712.761 71.6588 712.26 61.6497H748.825Z" fill="#E8D635" stroke="#263238" stroke-linecap="round" stroke-linejoin="round"/>
<path d="M630.72 19.2515C630.72 18.3235 630.996 17.4164 631.511 16.6449C632.027 15.8733 632.759 15.2719 633.617 14.9168C634.474 14.5617 635.417 14.4688 636.328 14.6498C637.238 14.8309 638.074 15.2777 638.73 15.9339C639.386 16.59 639.833 17.426 640.014 18.3361C640.195 19.2463 640.102 20.1896 639.747 21.0469C639.392 21.9042 638.79 22.637 638.019 23.1525C637.247 23.6681 636.34 23.9432 635.412 23.9432C634.168 23.9432 632.975 23.4489 632.095 22.569C631.215 21.6892 630.72 20.4958 630.72 19.2515Z" fill="#E8D635"/>
<path d="M676.389 5.27001C676.389 4.34207 676.664 3.43497 677.18 2.66341C677.695 1.89185 678.428 1.2905 679.285 0.935387C680.143 0.580278 681.086 0.487368 681.996 0.668401C682.906 0.849434 683.742 1.29628 684.398 1.95244C685.054 2.6086 685.501 3.44459 685.682 4.3547C685.863 5.26482 685.77 6.20818 685.415 7.06548C685.06 7.92279 684.459 8.65554 683.687 9.17108C682.916 9.68661 682.009 9.96178 681.081 9.96178C679.836 9.96178 678.643 9.46748 677.763 8.5876C676.883 7.70772 676.389 6.51435 676.389 5.27001V5.27001Z" fill="#E8D635"/>
<path d="M698.627 4.69178C698.627 3.76384 698.902 2.85673 699.418 2.08517C699.933 1.31362 700.666 0.712249 701.524 0.35714C702.381 0.00203067 703.324 -0.0908791 704.234 0.090154C705.144 0.271187 705.98 0.718038 706.637 1.37419C707.293 2.03035 707.74 2.86634 707.921 3.77646C708.102 4.68657 708.009 5.62993 707.654 6.48724C707.298 7.34455 706.697 8.07731 705.926 8.59284C705.154 9.10838 704.247 9.38355 703.319 9.38355C702.075 9.38355 700.881 8.88923 700.001 8.00936C699.122 7.12948 698.627 5.93612 698.627 4.69178V4.69178Z" fill="#E8D635"/>
<path d="M731.999 15.2175C731.999 14.2896 732.274 13.3825 732.79 12.6109C733.306 11.8394 734.038 11.238 734.896 10.8829C735.753 10.5278 736.696 10.4349 737.606 10.6159C738.516 10.7969 739.352 11.2438 740.009 11.8999C740.665 12.5561 741.112 13.3921 741.293 14.3022C741.474 15.2123 741.381 16.1557 741.026 17.013C740.671 17.8703 740.069 18.603 739.298 19.1186C738.526 19.6341 737.619 19.9093 736.691 19.9093C735.447 19.9093 734.253 19.415 733.373 18.5351C732.494 17.6552 731.999 16.4619 731.999 15.2175Z" fill="#E8D635"/>
<path d="M602.242 298.964L569.243 311.851H583.678L601.726 302.561L618.21 311.851H632.66L602.242 298.964Z" fill="#263238" stroke="#263238" stroke-linecap="round" stroke-linejoin="round"/>
<path d="M391.394 298.964L358.395 311.851H372.83L390.878 302.561L407.377 311.851H421.812L391.394 298.964Z" fill="#263238" stroke="#263238" stroke-linecap="round" stroke-linejoin="round"/>
<path d="M639.626 133H349.206V302.498H639.626V133Z" fill="#263238" stroke="#263238" stroke-linecap="round" stroke-linejoin="round"/>
<path d="M632.818 136.957H355.988V298.526H632.818V136.957Z" fill="#263238"/>
<path opacity="0.3" d="M632.818 136.957H355.988V298.526H632.818V136.957Z" fill="white"/>
<path opacity="0.32" d="M632.821 190.693C587.843 188.848 537.547 221.659 465.482 261.242C414.31 289.314 377.792 293.85 356.007 292.693V298.526H632.821V190.693Z" fill="white"/>
<path d="M632.818 136.957H355.988V298.526H632.818V136.957Z" stroke="#263238" stroke-linecap="round" stroke-linejoin="round"/>
<path d="M672.825 312.085H316V534.115H672.825V312.085Z" fill="#AB5B2E" stroke="#263238" stroke-linecap="round" stroke-linejoin="round"/>
<path d="M428.535 318.872H322.908V358.799H428.535V318.872Z" fill="white" stroke="#263238" stroke-linecap="round" stroke-linejoin="round"/>
<path d="M546.648 318.872H441.021V358.799H546.648V318.872Z" fill="white" stroke="#263238" stroke-linecap="round" stroke-linejoin="round"/>
<path d="M489.458 374.501H324.354V522.808H489.458V374.501Z" fill="white" stroke="#263238" stroke-linecap="round" stroke-linejoin="round"/>
<path d="M482.633 428.691H472.655V457.217H482.633V428.691Z" fill="#263238" stroke="#263238" stroke-linecap="round" stroke-linejoin="round"/>
<path d="M663.741 374.501H498.638V522.808H663.741V374.501Z" fill="white" stroke="#263238" stroke-linecap="round" stroke-linejoin="round"/>
<path d="M516.132 428.691H506.154V457.217H516.132V428.691Z" fill="#263238" stroke="#263238" stroke-linecap="round" stroke-linejoin="round"/>
<path d="M390.711 335.998H360.762V341.706H390.711V335.998Z" fill="#AB5B2E" stroke="#263238" stroke-linecap="round" stroke-linejoin="round"/>
<path d="M508.802 335.998H478.853V341.706H508.802V335.998Z" fill="#263238" stroke="#263238" stroke-linecap="round" stroke-linejoin="round"/>
<path d="M666.98 318.872H561.353V358.799H666.98V318.872Z" fill="white" stroke="#263238" stroke-linecap="round" stroke-linejoin="round"/>
<path d="M629.142 335.997H599.193V341.706H629.142V335.997Z" fill="#263238" stroke="#263238" stroke-linecap="round" stroke-linejoin="round"/>
<path d="M369.234 361.136C369.234 361.136 361.733 328.419 366.734 329.42C371.735 330.421 393.423 336.364 412.611 332.392C431.798 328.419 481.834 319.505 483.505 324.462C485.177 329.42 486.006 365.124 486.006 365.124L369.234 361.136Z" fill="#59B4E2" stroke="#263238" stroke-linecap="round" stroke-linejoin="round"/>
<path d="M361.732 361.136C361.732 361.136 360.89 328.419 357.561 328.419C354.231 328.419 347.572 335.363 340.873 338.366C334.175 341.368 329.2 333.408 303.34 335.394C277.48 337.38 264.978 342.338 261.635 342.338C258.292 342.338 248.29 338.366 244.921 341.306C241.552 344.246 247.369 346.717 245.724 353.426C244.079 360.136 242.671 368.456 242.671 368.456L245.75 375.008H362.522L361.732 361.136Z" fill="#59B4E2" stroke="#263238" stroke-linecap="round" stroke-linejoin="round"/>
<path d="M242.714 368.455C242.714 368.455 238.292 344.293 233.278 337.349C228.264 330.405 224.066 334.378 224.066 334.378L224.908 340.321C214.371 341.487 203.779 341.816 193.205 341.306C178.189 340.321 175.688 342.307 167.358 339.335C159.028 336.364 155.672 331.406 151.5 331.406C147.328 331.406 143.169 336.364 144.828 343.292C146.486 350.22 144.906 386.847 144.906 386.847H238.345L245.017 364.952" fill="#59B4E2"/>
<path d="M242.714 368.455C242.714 368.455 238.292 344.293 233.278 337.349C228.264 330.405 224.066 334.378 224.066 334.378L224.908 340.321C214.371 341.487 203.779 341.816 193.205 341.306C178.189 340.321 175.688 342.307 167.358 339.335C159.028 336.364 155.672 331.406 151.5 331.406C147.328 331.406 143.169 336.364 144.828 343.292C146.486 350.22 144.906 386.847 144.906 386.847H238.345L245.017 364.952" stroke="#263238" stroke-linecap="round" stroke-linejoin="round"/>
<path d="M445.972 351.002H179.607V536.843H445.972V351.002Z" fill="#263238"/>
<path opacity="0.3" d="M445.972 351.002H179.607V536.843H445.972V351.002Z" fill="white"/>
<path d="M445.972 351.002H179.607V536.843H445.972V351.002Z" stroke="#263238" stroke-linecap="round" stroke-linejoin="round"/>
<path d="M445.972 351.002H482.821C485.641 351.002 488.346 352.333 490.34 354.703C492.334 357.073 493.455 360.287 493.455 363.639V524.723C493.455 527.942 492.379 531.028 490.464 533.304C488.548 535.58 485.951 536.859 483.242 536.859H445.972V351.002Z" fill="#263238"/>
<path opacity="0.3" d="M445.972 351.002H482.821C485.641 351.002 488.346 352.333 490.34 354.703C492.334 357.073 493.455 360.287 493.455 363.639V524.723C493.455 527.942 492.379 531.028 490.464 533.304C488.548 535.58 485.951 536.859 483.242 536.859H445.972V351.002Z" fill="white"/>
<path d="M445.972 351.002H482.821C485.641 351.002 488.346 352.333 490.34 354.703C492.334 357.073 493.455 360.287 493.455 363.639V524.723C493.455 527.942 492.379 531.028 490.464 533.304C488.548 535.58 485.951 536.859 483.242 536.859H445.972V351.002Z" stroke="#263238" stroke-linecap="round" stroke-linejoin="round"/>
<path d="M146.207 458.146H28.9489C26.4196 458.146 24.3691 460.583 24.3691 463.589V531.213C24.3691 534.219 26.4196 536.655 28.9489 536.655H146.207C148.737 536.655 150.787 534.219 150.787 531.213V463.589C150.787 460.583 148.737 458.146 146.207 458.146Z" fill="#263238"/>
<path opacity="0.3" d="M146.207 458.146H28.9489C26.4196 458.146 24.3691 460.583 24.3691 463.589V531.213C24.3691 534.219 26.4196 536.655 28.9489 536.655H146.207C148.737 536.655 150.787 534.219 150.787 531.213V463.589C150.787 460.583 148.737 458.146 146.207 458.146Z" fill="white"/>
<path d="M146.207 458.146H28.9489C26.4196 458.146 24.3691 460.583 24.3691 463.589V531.213C24.3691 534.219 26.4196 536.655 28.9489 536.655H146.207C148.737 536.655 150.787 534.219 150.787 531.213V463.589C150.787 460.583 148.737 458.146 146.207 458.146Z" stroke="#263238" stroke-linecap="round" stroke-linejoin="round"/>
<path d="M150.564 415.06H24.5798C22.0504 415.06 20 417.496 20 420.502V461.414C20 464.42 22.0504 466.857 24.5798 466.857H150.564C153.093 466.857 155.143 464.42 155.143 461.414V420.502C155.143 417.496 153.093 415.06 150.564 415.06Z" fill="#263238"/>
<path opacity="0.3" d="M150.564 415.06H24.5798C22.0504 415.06 20 417.496 20 420.502V461.414C20 464.42 22.0504 466.857 24.5798 466.857H150.564C153.093 466.857 155.143 464.42 155.143 461.414V420.502C155.143 417.496 153.093 415.06 150.564 415.06Z" fill="white"/>
<path d="M150.564 415.06H24.5798C22.0504 415.06 20 417.496 20 420.502V461.414C20 464.42 22.0504 466.857 24.5798 466.857H150.564C153.093 466.857 155.143 464.42 155.143 461.414V420.502C155.143 417.496 153.093 415.06 150.564 415.06Z" stroke="#263238" stroke-linecap="round" stroke-linejoin="round"/>
<path d="M144.639 351.002H179.658V536.843H144.639C141.316 536.843 138.129 535.275 135.779 532.482C133.43 529.69 132.11 525.903 132.11 521.955V365.891C132.11 361.942 133.43 358.155 135.779 355.363C138.129 352.571 141.316 351.002 144.639 351.002V351.002Z" fill="#263238"/>
<path opacity="0.3" d="M144.639 351.002H179.658V536.843H144.639C141.316 536.843 138.129 535.275 135.779 532.482C133.43 529.69 132.11 525.903 132.11 521.955V365.891C132.11 361.942 133.43 358.155 135.779 355.363C138.129 352.571 141.316 351.002 144.639 351.002V351.002Z" fill="white"/>
<path d="M144.639 351.002H179.658V536.843H144.639C141.316 536.843 138.129 535.275 135.779 532.482C133.43 529.69 132.11 525.903 132.11 521.955V365.891C132.11 361.942 133.43 358.155 135.779 355.363C138.129 352.571 141.316 351.002 144.639 351.002V351.002Z" stroke="#263238" stroke-linecap="round" stroke-linejoin="round"/>
<path d="M618.22 361.136C618.22 361.136 625.722 328.419 620.721 329.42C615.72 330.421 594.032 336.364 574.844 332.392C555.656 328.419 505.621 319.505 503.949 324.462C502.278 329.42 501.449 365.124 501.449 365.124L618.22 361.136Z" fill="#59B4E2" stroke="#263238" stroke-linecap="round" stroke-linejoin="round"/>
<path d="M625.722 361.136C625.722 361.136 626.564 328.419 629.894 328.419C633.224 328.419 639.883 335.363 646.581 338.366C653.28 341.368 658.255 333.408 684.115 335.394C709.975 337.38 722.477 342.338 725.82 342.338C729.162 342.338 739.164 338.366 742.533 341.306C745.902 344.246 740.085 346.717 741.73 353.426C743.376 360.136 744.784 368.456 744.784 368.456L741.704 375.008H624.933L625.722 361.136Z" fill="#59B4E2" stroke="#263238" stroke-linecap="round" stroke-linejoin="round"/>
<path d="M744.741 368.455C744.741 368.455 749.162 344.293 754.176 337.349C759.191 330.405 763.389 334.378 763.389 334.378L762.546 340.321C773.084 341.487 783.675 341.816 794.25 341.306C809.266 340.321 811.766 342.307 820.097 339.335C828.427 336.364 831.783 331.406 835.955 331.406C840.127 331.406 844.285 336.364 842.627 343.292C840.969 350.22 842.548 386.847 842.548 386.847H749.11L742.437 364.952" fill="#59B4E2"/>
<path d="M744.741 368.455C744.741 368.455 749.162 344.293 754.176 337.349C759.191 330.405 763.389 334.378 763.389 334.378L762.546 340.321C773.084 341.487 783.675 341.816 794.25 341.306C809.266 340.321 811.766 342.307 820.097 339.335C828.427 336.364 831.783 331.406 835.955 331.406C840.127 331.406 844.285 336.364 842.627 343.292C840.969 350.22 842.548 386.847 842.548 386.847H749.11L742.437 364.952" stroke="#263238" stroke-linecap="round" stroke-linejoin="round"/>
<path d="M541.483 351.002H807.848V536.843H541.483V351.002Z" fill="#263238"/>
<path opacity="0.3" d="M541.483 351.002H807.848V536.843H541.483V351.002Z" fill="white"/>
<path d="M541.483 351.002H807.848V536.843H541.483V351.002Z" stroke="#263238" stroke-linecap="round" stroke-linejoin="round"/>
<path d="M541.482 351.002H504.633C501.813 351.002 499.109 352.333 497.114 354.703C495.12 357.073 494 360.287 494 363.639V524.723C494 527.942 495.076 531.028 496.991 533.304C498.906 535.58 501.504 536.859 504.212 536.859H541.482V351.002Z" fill="#263238"/>
<path opacity="0.3" d="M541.482 351.002H504.633C501.813 351.002 499.109 352.333 497.114 354.703C495.12 357.073 494 360.287 494 363.639V524.723C494 527.942 495.076 531.028 496.991 533.304C498.906 535.58 501.504 536.859 504.212 536.859H541.482V351.002Z" fill="white"/>
<path d="M541.482 351.002H504.633C501.813 351.002 499.109 352.333 497.114 354.703C495.12 357.073 494 360.287 494 363.639V524.723C494 527.942 495.076 531.028 496.991 533.304C498.906 535.58 501.504 536.859 504.212 536.859H541.482V351.002Z" stroke="#263238" stroke-linecap="round" stroke-linejoin="round"/>
<path d="M841.247 458.146H958.506C961.035 458.146 963.085 460.583 963.085 463.589V531.213C963.085 534.219 961.035 536.655 958.506 536.655H841.247C838.718 536.655 836.667 534.219 836.667 531.213V463.589C836.667 460.583 838.718 458.146 841.247 458.146Z" fill="#263238"/>
<path opacity="0.3" d="M841.247 458.146H958.506C961.035 458.146 963.085 460.583 963.085 463.589V531.213C963.085 534.219 961.035 536.655 958.506 536.655H841.247C838.718 536.655 836.667 534.219 836.667 531.213V463.589C836.667 460.583 838.718 458.146 841.247 458.146Z" fill="white"/>
<path d="M841.247 458.146H958.506C961.035 458.146 963.085 460.583 963.085 463.589V531.213C963.085 534.219 961.035 536.655 958.506 536.655H841.247C838.718 536.655 836.667 534.219 836.667 531.213V463.589C836.667 460.583 838.718 458.146 841.247 458.146Z" stroke="#263238" stroke-linecap="round" stroke-linejoin="round"/>
<path d="M836.891 415.06H962.875C965.404 415.06 967.455 417.496 967.455 420.502V461.414C967.455 464.42 965.404 466.857 962.875 466.857H836.891C834.362 466.857 832.311 464.42 832.311 461.414V420.502C832.311 417.496 834.362 415.06 836.891 415.06Z" fill="#263238"/>
<path opacity="0.3" d="M836.891 415.06H962.875C965.404 415.06 967.455 417.496 967.455 420.502V461.414C967.455 464.42 965.404 466.857 962.875 466.857H836.891C834.362 466.857 832.311 464.42 832.311 461.414V420.502C832.311 417.496 834.362 415.06 836.891 415.06Z" fill="white"/>
<path d="M836.891 415.06H962.875C965.404 415.06 967.455 417.496 967.455 420.502V461.414C967.455 464.42 965.404 466.857 962.875 466.857H836.891C834.362 466.857 832.311 464.42 832.311 461.414V420.502C832.311 417.496 834.362 415.06 836.891 415.06Z" stroke="#263238" stroke-linecap="round" stroke-linejoin="round"/>
<path d="M842.816 351.002H807.796V536.843H842.816C846.139 536.843 849.326 535.275 851.675 532.482C854.025 529.69 855.345 525.903 855.345 521.955V365.891C855.345 361.942 854.025 358.155 851.675 355.363C849.326 352.571 846.139 351.002 842.816 351.002V351.002Z" fill="#263238"/>
<path opacity="0.3" d="M842.816 351.002H807.796V536.843H842.816C846.139 536.843 849.326 535.275 851.675 532.482C854.025 529.69 855.345 525.903 855.345 521.955V365.891C855.345 361.942 854.025 358.155 851.675 355.363C849.326 352.571 846.139 351.002 842.816 351.002V351.002Z" fill="white"/>
<path d="M842.816 351.002H807.796V536.843H842.816C846.139 536.843 849.326 535.275 851.675 532.482C854.025 529.69 855.345 525.903 855.345 521.955V365.891C855.345 361.942 854.025 358.155 851.675 355.363C849.326 352.571 846.139 351.002 842.816 351.002V351.002Z" stroke="#263238" stroke-linecap="round" stroke-linejoin="round"/>
<path d="M1 537.159L981 536.978" stroke="#263238" stroke-width="2" stroke-linecap="round" stroke-linejoin="round"/>
</svg>
