<svg width="942" height="529" viewBox="0 0 942 529" fill="none" xmlns="http://www.w3.org/2000/svg">
<path d="M934.43 171.499C925.743 168.235 921.773 170.96 918.62 168.235C915.468 165.51 927.307 158.591 903.604 151.623C903.604 151.623 902.016 136.627 869.625 136.089C837.235 135.55 845.922 151.085 837.235 154.838C828.548 158.591 826.165 152.7 817.478 156.47C808.791 160.239 812.665 167.713 805.638 168.79C799.141 169.769 790.694 164.971 782.657 166.962C779.976 160.897 776.261 155.065 771.587 149.584C742.253 115.43 678.29 99.6835 628.212 90.0722C468.835 59.5088 430.284 134.555 331.5 175.888C232.716 217.221 116.606 179.152 60.199 208.834C3.79236 238.516 -15.0259 312.257 12.5036 346.263C40.0332 380.27 100.916 391.35 110.325 407.651C119.734 423.953 116.798 429.289 116.798 429.289H855.572C861.347 429.289 876.604 408.32 879.636 404.241C896.674 381.053 898.743 358.045 868.831 340.226C839.954 323.027 790.021 312.208 786.507 280.241C782.994 248.274 795.074 211.934 786.916 179.511H940.687C940.687 179.511 943.118 174.713 934.43 171.499ZM326.446 357.376H126.544C126.544 357.376 132.079 354.7 136.82 352.481C141.56 350.261 149.453 352.481 153.4 352.481C157.347 352.481 157.347 349.217 166.058 345.529C174.769 341.841 184.226 347.667 191.325 346.59C198.424 345.513 194.502 338.023 203.189 334.27C211.876 330.517 214.259 336.407 222.946 332.638C231.633 328.869 222.946 313.334 255.336 313.872C287.727 314.411 289.315 329.423 289.315 329.423C313.018 336.375 301.155 343.343 304.331 346.019C307.508 348.695 311.43 346.019 320.141 349.282C328.853 352.546 326.446 357.376 326.446 357.376ZM650.664 118.759H522.378C522.378 118.759 525.915 117.127 528.971 115.675C532.027 114.223 537.081 115.675 539.608 115.675C542.134 115.675 542.159 113.603 547.717 111.204C553.276 108.805 559.389 112.575 563.961 111.889C568.533 111.204 565.982 106.39 571.565 103.975C577.148 101.56 578.664 105.346 584.247 102.947C589.83 100.548 584.247 90.5618 605.038 90.9044C625.83 91.2471 626.841 100.875 626.841 100.875C642.049 105.346 634.445 109.817 636.466 111.547C638.488 113.276 641.039 111.547 646.622 113.603C652.204 115.659 650.664 118.759 650.664 118.759Z" fill="#B5F3F7"/>
<path d="M414.64 35.4235C405.929 32.1599 401.982 34.885 398.83 32.1599C395.677 29.4348 407.517 22.516 383.813 15.5483C383.813 15.5483 382.225 0.552155 349.835 0.0136645C317.444 -0.524826 326.131 15.0098 317.444 18.7629C308.757 22.516 306.374 16.6253 297.687 20.3947C289 24.1641 292.874 31.6377 285.824 32.7147C278.773 33.7917 269.243 27.8193 260.556 31.6377C251.869 35.4561 251.845 38.6055 247.898 38.6055C243.952 38.6055 236.059 36.4678 231.318 38.6055C226.577 40.7431 221.042 43.5008 221.042 43.5008H420.945C420.945 43.5008 423.327 38.6871 414.64 35.4235Z" fill="#B5F3F7"/>
<g opacity="0.7">
<path opacity="0.7" d="M934.43 171.499C925.743 168.235 921.773 170.96 918.62 168.235C915.468 165.51 927.307 158.591 903.604 151.623C903.604 151.623 902.016 136.627 869.625 136.089C837.235 135.55 845.922 151.085 837.235 154.838C828.548 158.591 826.165 152.7 817.478 156.47C808.791 160.239 812.665 167.713 805.638 168.79C799.141 169.769 790.694 164.971 782.657 166.962C779.976 160.897 776.261 155.065 771.587 149.584C742.253 115.43 678.29 99.6835 628.212 90.0722C468.835 59.5088 430.284 134.555 331.5 175.888C232.716 217.221 116.606 179.152 60.199 208.834C3.79236 238.516 -15.0259 312.257 12.5036 346.263C40.0332 380.27 100.916 391.35 110.325 407.651C119.734 423.953 116.798 429.289 116.798 429.289H855.572C861.347 429.289 876.604 408.32 879.636 404.241C896.674 381.053 898.743 358.045 868.831 340.226C839.954 323.027 790.021 312.208 786.507 280.241C782.994 248.274 795.074 211.934 786.916 179.511H940.687C940.687 179.511 943.118 174.713 934.43 171.499ZM326.446 357.376H126.544C126.544 357.376 132.079 354.7 136.82 352.481C141.56 350.261 149.453 352.481 153.4 352.481C157.347 352.481 157.347 349.217 166.058 345.529C174.769 341.841 184.226 347.667 191.325 346.59C198.424 345.513 194.502 338.023 203.189 334.27C211.876 330.517 214.259 336.407 222.946 332.638C231.633 328.869 222.946 313.334 255.336 313.872C287.727 314.411 289.315 329.423 289.315 329.423C313.018 336.375 301.155 343.343 304.331 346.019C307.508 348.695 311.43 346.019 320.141 349.282C328.853 352.546 326.446 357.376 326.446 357.376ZM650.664 118.759H522.378C522.378 118.759 525.915 117.127 528.971 115.675C532.027 114.223 537.081 115.675 539.608 115.675C542.134 115.675 542.159 113.603 547.717 111.204C553.276 108.805 559.389 112.575 563.961 111.889C568.533 111.204 565.982 106.39 571.565 103.975C577.148 101.56 578.664 105.346 584.247 102.947C589.83 100.548 584.247 90.5618 605.038 90.9044C625.83 91.2471 626.841 100.875 626.841 100.875C642.049 105.346 634.445 109.817 636.466 111.547C638.488 113.276 641.039 111.547 646.622 113.603C652.204 115.659 650.664 118.759 650.664 118.759Z" fill="white"/>
<path opacity="0.7" d="M414.64 35.4235C405.929 32.1599 401.982 34.885 398.83 32.1599C395.677 29.4348 407.517 22.516 383.813 15.5483C383.813 15.5483 382.225 0.552155 349.835 0.0136645C317.444 -0.524826 326.131 15.0098 317.444 18.7629C308.757 22.516 306.374 16.6253 297.687 20.3947C289 24.1641 292.874 31.6377 285.824 32.7147C278.773 33.7917 269.243 27.8193 260.556 31.6377C251.869 35.4561 251.845 38.6055 247.898 38.6055C243.952 38.6055 236.059 36.4678 231.318 38.6055C226.577 40.7431 221.042 43.5008 221.042 43.5008H420.945C420.945 43.5008 423.327 38.6871 414.64 35.4235Z" fill="white"/>
</g>
<path d="M922.3 306.603L940.79 356.143H928.192L915.594 317.515L922.3 306.603Z" fill="#738089" stroke="#2E353A" stroke-width="0.887535" stroke-linecap="round" stroke-linejoin="round"/>
<path d="M932.378 428.928H765.837V343.83L920.462 320.206L932.378 353.056V428.928Z" fill="#2E353A"/>
<path d="M788.782 171.396H571.564V428.927H788.782V171.396Z" fill="#2E353A"/>
<path d="M558.19 192.216L548.945 180.243L681.386 78.0002L811.402 178.387L802.176 190.36L681.386 97.0962L558.19 192.216Z" fill="#2E353A"/>
<path d="M749.046 171.396H531.829V428.927H749.046V171.396Z" fill="#C45944" stroke="#2E353A" stroke-width="0.887535" stroke-linecap="round" stroke-linejoin="round"/>
<path d="M640.437 87.5472L531.829 171.395H749.046L640.437 87.5472Z" fill="#C45944" stroke="#2E353A" stroke-width="0.887535" stroke-linejoin="round"/>
<g style="mix-blend-mode:multiply">
<path d="M640.437 87.5472L531.829 171.395V190.491L556.57 171.395L640.437 106.643L724.323 171.395L749.046 190.491V171.395L640.437 87.5472Z" fill="#BABABA"/>
</g>
<path d="M915.594 343.829H749.035V428.928H915.594V343.829Z" fill="#C45944" stroke="#2E353A" stroke-width="0.887535" stroke-linecap="round" stroke-linejoin="round"/>
<path d="M898.809 343.829H765.837V428.928H898.809V343.829Z" fill="#CCCCCC" stroke="#2E353A" stroke-width="0.887535" stroke-linecap="round" stroke-linejoin="round"/>
<g style="mix-blend-mode:multiply">
<path d="M915.594 343.829H749.035V362.073H915.594V343.829Z" fill="#999999"/>
</g>
<path d="M765.837 368.741H898.79" stroke="#2E353A" stroke-width="0.887535" stroke-linecap="round" stroke-linejoin="round"/>
<path d="M765.837 381.339H898.79" stroke="#2E353A" stroke-width="0.887535" stroke-linecap="round" stroke-linejoin="round"/>
<path d="M765.837 393.938H898.79" stroke="#2E353A" stroke-width="0.887535" stroke-linecap="round" stroke-linejoin="round"/>
<path d="M765.837 406.535H898.79" stroke="#2E353A" stroke-width="0.887535" stroke-linecap="round" stroke-linejoin="round"/>
<path d="M765.837 419.132H898.79" stroke="#2E353A" stroke-width="0.887535" stroke-linecap="round" stroke-linejoin="round"/>
<path d="M593.42 333.75H549.753V428.927H593.42V333.75Z" fill="#2E353A"/>
<path d="M660.026 333.75H616.359V399.809H660.026V333.75Z" fill="white" stroke="#2E353A" stroke-width="0.887535" stroke-linecap="round" stroke-linejoin="round"/>
<path d="M660.026 363.985H616.359V369.593H660.026V363.985Z" fill="#2E353A"/>
<path d="M641.005 333.75H635.397V399.809H641.005V333.75Z" fill="#2E353A"/>
<path d="M740.088 333.75H696.421V399.809H740.088V333.75Z" fill="white" stroke="#2E353A" stroke-width="0.887535" stroke-linecap="round" stroke-linejoin="round"/>
<path d="M740.088 363.985H696.421V369.593H740.088V363.985Z" fill="#2E353A"/>
<path d="M721.07 333.75H715.462V399.809H721.07V333.75Z" fill="#2E353A"/>
<path d="M683.82 333.75H675.447V428.927H683.82V333.75Z" fill="#2E353A" stroke="#2E353A" stroke-width="0.887535" stroke-linecap="round" stroke-linejoin="round"/>
<path d="M610.621 333.75H602.248V428.927H610.621V333.75Z" fill="#2E353A" stroke="#2E353A" stroke-width="0.887535" stroke-linecap="round" stroke-linejoin="round"/>
<path d="M740.079 337.671H541.901V349.985H740.079V337.671Z" fill="#2E353A"/>
<path d="M740.079 331.514H541.901V343.828H740.079V331.514Z" fill="#DBDBDB" stroke="#2E353A" stroke-width="0.887535" stroke-linecap="round" stroke-linejoin="round"/>
<path d="M517.245 192.216L508 180.243L640.441 78L770.456 178.387L761.231 190.36L640.441 97.096L517.245 192.216Z" fill="#738089" stroke="#2E353A" stroke-width="0.887535" stroke-linejoin="round"/>
<path d="M915.599 356.143H732.482L749.286 306.603H922.305L915.599 356.143Z" fill="#2E353A"/>
<path d="M770.447 178.387H807.957L681.389 78.0002H640.431L770.447 178.387Z" fill="#2E353A"/>
<path d="M761.225 190.359H802.183L811.409 178.386H770.451L761.225 190.359Z" fill="#2E353A"/>
<path d="M573.263 209.475H549.753V247.553H573.263V209.475Z" fill="white" stroke="#2E353A" stroke-width="0.887535" stroke-linecap="round" stroke-linejoin="round"/>
<path d="M573.263 228.514H549.753V247.553H573.263V228.514Z" fill="#2E353A"/>
<path d="M573.263 226.392H549.753V230.635H573.263V226.392Z" fill="#738089" stroke="#2E353A" stroke-width="0.887535" stroke-linecap="round" stroke-linejoin="round"/>
<path d="M573.263 264.337H549.753V302.416H573.263V264.337Z" fill="white" stroke="#2E353A" stroke-width="0.887535" stroke-linecap="round" stroke-linejoin="round"/>
<path d="M573.263 283.187H549.753V302.397H573.263V283.187Z" fill="#2E353A"/>
<path d="M732.245 209.475H708.735V247.553H732.245V209.475Z" fill="white" stroke="#2E353A" stroke-width="0.887535" stroke-linecap="round" stroke-linejoin="round"/>
<path d="M732.245 228.514H708.735V247.553H732.245V228.514Z" fill="#2E353A"/>
<path d="M732.245 264.337H708.735V302.416H732.245V264.337Z" fill="white" stroke="#2E353A" stroke-width="0.887535" stroke-linecap="round" stroke-linejoin="round"/>
<path d="M732.245 281.066H708.735V302.398H732.245V281.066Z" fill="#2E353A"/>
<path d="M649.951 209.475H626.441V247.553H649.951V209.475Z" fill="white" stroke="#2E353A" stroke-width="0.887535" stroke-linecap="round" stroke-linejoin="round"/>
<path d="M649.951 228.514H626.441V247.553H649.951V228.514Z" fill="#2E353A"/>
<path d="M649.951 264.337H626.441V302.416H649.951V264.337Z" fill="white" stroke="#2E353A" stroke-width="0.887535" stroke-linecap="round" stroke-linejoin="round"/>
<path d="M649.951 281.066H626.441V302.398H649.951V281.066Z" fill="#2E353A"/>
<path d="M649.951 226.392H626.441V230.635H649.951V226.392Z" fill="#738089" stroke="#2E353A" stroke-width="0.887535" stroke-linecap="round" stroke-linejoin="round"/>
<path d="M732.245 226.392H708.735V230.635H732.245V226.392Z" fill="#738089" stroke="#2E353A" stroke-width="0.887535" stroke-linecap="round" stroke-linejoin="round"/>
<path d="M573.263 278.944H549.753V283.188H573.263V278.944Z" fill="#738089" stroke="#2E353A" stroke-width="0.887535" stroke-linecap="round" stroke-linejoin="round"/>
<path d="M649.951 278.944H626.441V283.188H649.951V278.944Z" fill="#738089" stroke="#2E353A" stroke-width="0.887535" stroke-linecap="round" stroke-linejoin="round"/>
<path d="M732.245 278.944H708.735V283.188H732.245V278.944Z" fill="#738089" stroke="#2E353A" stroke-width="0.887535" stroke-linecap="round" stroke-linejoin="round"/>
<path d="M550.982 182.876V192.216" stroke="#2E353A" stroke-width="0.887535" stroke-linecap="round" stroke-linejoin="round"/>
<path d="M567.787 182.876V192.216" stroke="#2E353A" stroke-width="0.887535" stroke-linecap="round" stroke-linejoin="round"/>
<path d="M558.193 192.216V201.556" stroke="#2E353A" stroke-width="0.887535" stroke-linecap="round" stroke-linejoin="round"/>
<path d="M577.391 192.216V201.556" stroke="#2E353A" stroke-width="0.887535" stroke-linecap="round" stroke-linejoin="round"/>
<path d="M543.542 192.216H581.923" stroke="#2E353A" stroke-width="0.887535" stroke-linecap="round" stroke-linejoin="round"/>
<path d="M550.982 307.627V316.967" stroke="#2E353A" stroke-width="0.887535" stroke-linecap="round" stroke-linejoin="round"/>
<path d="M567.787 307.627V316.967" stroke="#2E353A" stroke-width="0.887535" stroke-linecap="round" stroke-linejoin="round"/>
<path d="M558.193 316.965V326.305" stroke="#2E353A" stroke-width="0.887535" stroke-linecap="round" stroke-linejoin="round"/>
<path d="M577.391 316.965V326.305" stroke="#2E353A" stroke-width="0.887535" stroke-linecap="round" stroke-linejoin="round"/>
<path d="M543.542 316.965H581.923" stroke="#2E353A" stroke-width="0.887535" stroke-linecap="round" stroke-linejoin="round"/>
<path d="M585.029 219.156V228.514" stroke="#2E353A" stroke-width="0.887535" stroke-linecap="round" stroke-linejoin="round"/>
<path d="M601.828 219.156V228.514" stroke="#2E353A" stroke-width="0.887535" stroke-linecap="round" stroke-linejoin="round"/>
<path d="M592.236 228.514V237.854" stroke="#2E353A" stroke-width="0.887535" stroke-linecap="round" stroke-linejoin="round"/>
<path d="M611.436 228.514V237.854" stroke="#2E353A" stroke-width="0.887535" stroke-linecap="round" stroke-linejoin="round"/>
<path d="M577.577 228.514H615.958" stroke="#2E353A" stroke-width="0.887535" stroke-linecap="round" stroke-linejoin="round"/>
<path d="M585.029 237.854H615.966" stroke="#2E353A" stroke-width="0.887535" stroke-linecap="round" stroke-linejoin="round"/>
<path d="M585.029 238.193V247.533" stroke="#2E353A" stroke-width="0.887535" stroke-linecap="round" stroke-linejoin="round"/>
<path d="M601.828 238.193V247.533" stroke="#2E353A" stroke-width="0.887535" stroke-linecap="round" stroke-linejoin="round"/>
<path d="M592.236 247.534V256.874" stroke="#2E353A" stroke-width="0.887535" stroke-linecap="round" stroke-linejoin="round"/>
<path d="M611.436 247.534V256.874" stroke="#2E353A" stroke-width="0.887535" stroke-linecap="round" stroke-linejoin="round"/>
<path d="M577.577 247.534H615.958" stroke="#2E353A" stroke-width="0.887535" stroke-linecap="round" stroke-linejoin="round"/>
<path d="M668.72 281.483V290.823" stroke="#2E353A" stroke-width="0.887535" stroke-linecap="round" stroke-linejoin="round"/>
<path d="M685.521 281.483V290.823" stroke="#2E353A" stroke-width="0.887535" stroke-linecap="round" stroke-linejoin="round"/>
<path d="M675.927 290.823V300.162" stroke="#2E353A" stroke-width="0.887535" stroke-linecap="round" stroke-linejoin="round"/>
<path d="M695.128 290.823V300.162" stroke="#2E353A" stroke-width="0.887535" stroke-linecap="round" stroke-linejoin="round"/>
<path d="M661.269 290.823H699.65" stroke="#2E353A" stroke-width="0.887535" stroke-linecap="round" stroke-linejoin="round"/>
<path d="M668.72 300.161H699.656" stroke="#2E353A" stroke-width="0.887535" stroke-linecap="round" stroke-linejoin="round"/>
<path d="M668.72 300.521V309.861" stroke="#2E353A" stroke-width="0.887535" stroke-linecap="round" stroke-linejoin="round"/>
<path d="M685.521 300.521V309.861" stroke="#2E353A" stroke-width="0.887535" stroke-linecap="round" stroke-linejoin="round"/>
<path d="M675.927 309.86V319.2" stroke="#2E353A" stroke-width="0.887535" stroke-linecap="round" stroke-linejoin="round"/>
<path d="M695.128 309.86V319.2" stroke="#2E353A" stroke-width="0.887535" stroke-linecap="round" stroke-linejoin="round"/>
<path d="M661.269 309.86H699.65" stroke="#2E353A" stroke-width="0.887535" stroke-linecap="round" stroke-linejoin="round"/>
<path d="M23.4785 452.052C72.5234 465.318 198.553 450.959 185.631 466.428C172.709 481.897 73.9952 476.088 45.9304 492.814C17.8656 509.54 145.542 508.202 141.026 513.277C136.511 518.351 24.177 521.827 31.5612 528.664H788.488C789.711 523.312 781.004 516.818 766.785 512.346C654.076 509.328 272.145 498.264 312.16 487.576C359.059 475.076 512.181 462.577 540.171 452.786C568.161 442.995 444.176 441.902 423.421 437.562C416.735 436.158 415.937 434.788 418.107 433.596L421.675 433.743V432.258C427.343 430.915 433.189 429.916 439.137 429.272H421.675V426.449L419.18 427.477L414.914 429.272H413.542C415.29 425.739 416.477 422.097 417.085 418.404C418.057 412.024 404.362 426.449 404.362 426.449C404.362 426.449 406.308 421.554 404.362 418.404C402.416 415.255 396.529 422.663 396.529 422.663C396.529 422.663 403.389 404.959 396.529 393.454C389.668 381.95 381.935 422.663 381.935 422.663C381.935 422.663 380.887 406.868 372.081 406.558C364.946 406.297 369.362 417.034 371.308 421.113C369.798 418.824 367.572 416.767 364.772 415.076C358.46 411.127 364.772 424.197 364.772 424.197C364.772 424.197 362.277 420.314 345.787 418.404C329.298 416.495 352.523 426.857 352.523 426.857C345.375 425.515 338.122 424.426 330.795 423.594C327.152 423.202 326.853 423.789 328.05 424.768L325.681 425.764L318.047 429.027C320.547 424.236 322.221 419.278 323.036 414.243C324.284 406.084 306.846 424.491 306.846 424.491C306.846 424.491 309.341 418.307 306.846 414.243C304.351 410.18 296.867 419.661 296.867 419.661C296.867 419.661 305.599 397.126 296.867 382.473C288.136 367.819 278.282 419.661 278.282 419.661C278.282 419.661 276.935 399.574 265.809 399.166C256.753 398.839 262.316 412.4 264.811 417.638C262.891 414.748 260.07 412.152 256.529 410.017C248.471 404.991 256.529 421.619 256.529 421.619C256.529 421.619 253.361 416.724 232.356 414.243C211.351 411.763 240.912 425.013 240.912 425.013C231.812 423.306 222.576 421.922 213.247 420.868C199.277 419.367 223.874 429.305 223.874 429.305H38.4464C38.4464 429.305 -25.5164 438.802 23.4785 452.052ZM328.874 425.421C331.377 426.871 334.055 428.186 336.882 429.354H328.874V425.421Z" fill="#92E3A9"/>
<path d="M628.63 454.027C600.291 462.61 529.916 471.617 529.916 471.617C518.715 472.613 533.883 481.996 611.666 477.345L744.781 429.321H489.703C498.234 432.193 559.004 438.818 593.58 438.818C628.156 438.818 656.969 445.427 628.63 454.027Z" fill="#92E3A9"/>
<path d="M832.412 429.322H882.704C857.458 428.685 832.412 429.322 832.412 429.322Z" fill="#92E3A9"/>
<path d="M915.377 431.231L795.908 481.588C811.051 481.213 826.892 480.968 842.234 480.723C908.417 479.679 884.394 460.897 888.884 454.272C893.374 447.647 930.944 448.74 933.937 437.693C934.786 434.56 926.977 432.536 915.377 431.231Z" fill="#92E3A9"/>
<g opacity="0.3">
<path opacity="0.3" d="M23.4785 452.052C72.5234 465.318 198.553 450.959 185.631 466.428C172.709 481.897 73.9952 476.088 45.9304 492.814C17.8656 509.54 145.542 508.202 141.026 513.277C136.511 518.351 24.177 521.827 31.5612 528.664H788.488C789.711 523.312 781.004 516.818 766.785 512.346C654.076 509.328 272.145 498.264 312.16 487.576C359.059 475.076 512.181 462.577 540.171 452.786C568.161 442.995 444.176 441.902 423.421 437.562C416.735 436.158 415.937 434.788 418.107 433.596L421.675 433.743V432.258C427.343 430.915 433.189 429.916 439.137 429.272H421.675V426.449L419.18 427.477L414.914 429.272H413.542C415.29 425.739 416.477 422.097 417.085 418.404C418.057 412.024 404.362 426.449 404.362 426.449C404.362 426.449 406.308 421.554 404.362 418.404C402.416 415.255 396.529 422.663 396.529 422.663C396.529 422.663 403.389 404.959 396.529 393.454C389.668 381.95 381.935 422.663 381.935 422.663C381.935 422.663 380.887 406.868 372.081 406.558C364.946 406.297 369.362 417.034 371.308 421.113C369.798 418.824 367.572 416.767 364.772 415.076C358.46 411.127 364.772 424.197 364.772 424.197C364.772 424.197 362.277 420.314 345.787 418.404C329.298 416.495 352.523 426.857 352.523 426.857C345.375 425.515 338.122 424.426 330.795 423.594C327.152 423.202 326.853 423.789 328.05 424.768L325.681 425.764L318.047 429.027C320.547 424.236 322.221 419.278 323.036 414.243C324.284 406.084 306.846 424.491 306.846 424.491C306.846 424.491 309.341 418.307 306.846 414.243C304.351 410.18 296.867 419.661 296.867 419.661C296.867 419.661 305.599 397.126 296.867 382.473C288.136 367.819 278.282 419.661 278.282 419.661C278.282 419.661 276.935 399.574 265.809 399.166C256.753 398.839 262.316 412.4 264.811 417.638C262.891 414.748 260.07 412.152 256.529 410.017C248.471 404.991 256.529 421.619 256.529 421.619C256.529 421.619 253.361 416.724 232.356 414.243C211.351 411.763 240.912 425.013 240.912 425.013C231.812 423.306 222.576 421.922 213.247 420.868C199.277 419.367 223.874 429.305 223.874 429.305H38.4464C38.4464 429.305 -25.5164 438.802 23.4785 452.052ZM328.874 425.421C331.377 426.871 334.055 428.186 336.882 429.354H328.874V425.421Z" fill="white"/>
<path opacity="0.3" d="M628.63 454.027C600.291 462.61 529.916 471.617 529.916 471.617C518.715 472.613 533.883 481.996 611.666 477.345L744.781 429.321H489.703C498.234 432.193 559.004 438.818 593.58 438.818C628.156 438.818 656.969 445.427 628.63 454.027Z" fill="white"/>
<path opacity="0.3" d="M832.412 429.322H882.704C857.458 428.685 832.412 429.322 832.412 429.322Z" fill="white"/>
<path opacity="0.3" d="M915.377 431.231L795.908 481.588C811.051 481.213 826.892 480.968 842.234 480.723C908.417 479.679 884.394 460.897 888.884 454.272C893.374 447.647 930.944 448.74 933.937 437.693C934.786 434.56 926.977 432.536 915.377 431.231Z" fill="white"/>
</g>
</svg>
