<svg width="50" height="50" viewBox="0 0 50 50" fill="none" xmlns="http://www.w3.org/2000/svg">
<rect width="50" height="50" rx="25" fill="white"/>
<path d="M10.3553 11.7H15.7373L19.9103 28.041H19.9883V11.7H23.8103V39H19.4033L14.2553 19.071H14.1773V39H10.3553V11.7ZM26.9989 11.7H33.5509C35.6829 11.7 37.2819 12.272 38.3479 13.416C39.4139 14.56 39.9469 16.237 39.9469 18.447V32.253C39.9469 34.463 39.4139 36.14 38.3479 37.284C37.2819 38.428 35.6829 39 33.5509 39H26.9989V11.7ZM33.4729 35.1C34.1749 35.1 34.7079 34.892 35.0719 34.476C35.4619 34.06 35.6569 33.384 35.6569 32.448V18.252C35.6569 17.316 35.4619 16.64 35.0719 16.224C34.7079 15.808 34.1749 15.6 33.4729 15.6H31.2889V35.1H33.4729Z" fill="black"/>
</svg>
