<svg width="30" height="28" viewBox="0 0 30 28" fill="none" xmlns="http://www.w3.org/2000/svg">
<path d="M0.355348 0.699998H5.73735L9.91035 17.041H9.98835V0.699998H13.8103V28H9.40335L4.25535 8.071H4.17735V28H0.355348V0.699998ZM16.9989 0.699998H23.5509C25.6829 0.699998 27.2819 1.272 28.3479 2.416C29.4139 3.56 29.9469 5.237 29.9469 7.447V21.253C29.9469 23.463 29.4139 25.14 28.3479 26.284C27.2819 27.428 25.6829 28 23.5509 28H16.9989V0.699998ZM23.4729 24.1C24.1749 24.1 24.7079 23.892 25.0719 23.476C25.4619 23.06 25.6569 22.384 25.6569 21.448V7.252C25.6569 6.316 25.4619 5.64 25.0719 5.224C24.7079 4.808 24.1749 4.6 23.4729 4.6H21.2889V24.1H23.4729Z" fill="white"/>
</svg>
