<svg width="137" height="158" viewBox="0 0 137 158" fill="none" xmlns="http://www.w3.org/2000/svg">
<path fill-rule="evenodd" clip-rule="evenodd" d="M68.4372 28.5373C66.9219 26.7587 65.8964 24.579 66.0677 22.1366C66.5615 15.0993 76.3576 16.6474 78.2632 20.1992C80.1687 23.751 79.9423 32.7605 77.4796 33.3953C76.4974 33.6485 74.4052 33.0283 72.2757 31.7448L73.6123 41.2008H65.7202L68.4372 28.5373Z" fill="#B28B67"/>
<path fill-rule="evenodd" clip-rule="evenodd" d="M74.783 20.7143C73.712 21.3134 72.9498 22.436 72.0323 23.9084C71.8089 23.8206 71.5655 23.7724 71.3109 23.7724C70.2212 23.7724 69.3378 24.6557 69.3378 25.7454C69.3378 26.2986 69.5655 26.7986 69.9322 27.1568C69.4757 27.8012 68.964 28.4744 68.3778 29.169C66.1899 27.8564 64.5626 24.0306 66.6516 20.3374C68.449 12.9396 78.6335 17.5313 80.593 16.2837C81.0213 18.9682 79.6398 21.1328 74.783 20.7143Z" fill="#191847"/>
<path fill-rule="evenodd" clip-rule="evenodd" d="M65.4028 69.7488L81.5427 110.599L92.3678 145.135H96.6424L80.0932 69.7488L65.4028 69.7488Z" fill="#997659"/>
<path fill-rule="evenodd" clip-rule="evenodd" d="M62.1526 69.7488C61.9808 84.104 59.4743 103.431 59.0739 104.326C58.8069 104.922 49.5909 112.508 31.4258 127.084L34.3699 130.235C55.8031 117.738 67.0156 110.656 68.0074 108.989C69.4951 106.489 74.3386 83.4821 78.2273 69.7488H62.1526Z" fill="#B28B67"/>
<path fill-rule="evenodd" clip-rule="evenodd" d="M31.0322 126.033C30.0434 126.382 29.3623 126.713 28.9888 127.027C28.5345 127.408 27.9352 128.04 27.1907 128.922C27.6329 129.449 31.6068 134.185 39.1125 143.13C40.6429 142.475 41.123 141.709 40.5529 140.832C39.9827 139.955 39.5161 139.22 39.153 138.628L36.5558 129.555C36.5059 129.38 36.3238 129.279 36.1492 129.329C36.1462 129.33 36.1433 129.331 36.1403 129.332L34.7544 129.771C33.7929 129.323 33.119 128.869 32.7327 128.408C32.4188 128.034 32.1364 127.391 31.8855 126.478L31.8855 126.478C31.7892 126.128 31.4272 125.922 31.077 126.018C31.0619 126.023 31.047 126.027 31.0322 126.033Z" fill="#E4E4E4"/>
<path fill-rule="evenodd" clip-rule="evenodd" d="M90.6173 143.541C90.2494 144.523 90.0654 145.258 90.0654 145.745C90.0654 146.338 90.1642 147.203 90.3618 148.341C91.0497 148.341 97.2321 148.341 108.909 148.341C109.391 146.748 109.113 145.887 108.074 145.76C107.036 145.633 106.173 145.519 105.486 145.416L96.8658 141.573C96.6999 141.499 96.5055 141.574 96.4316 141.74C96.4303 141.742 96.4291 141.745 96.4279 141.748L95.8738 143.092C94.9125 143.541 94.1313 143.765 93.5303 143.765C93.042 143.765 92.3676 143.568 91.5072 143.174L91.5072 143.174C91.177 143.022 90.7867 143.167 90.6353 143.497C90.6288 143.512 90.6228 143.526 90.6173 143.541Z" fill="#E4E4E4"/>
<path fill-rule="evenodd" clip-rule="evenodd" d="M76.2542 141.578L96.5779 139.372L81.5156 69.7488H63.3125L76.2542 141.578Z" fill="#69A1AC"/>
<path fill-rule="evenodd" clip-rule="evenodd" d="M35.6299 122.001L48.961 137.781C63.0023 122.445 71.1885 112.439 73.5194 107.761C75.8504 103.084 77.9458 90.413 79.8056 69.7488H59.3122C58.2962 87.9282 57.6114 97.4409 57.2577 98.2869C56.904 99.1329 49.6948 107.038 35.6299 122.001Z" fill="#89C5CC"/>
<path fill-rule="evenodd" clip-rule="evenodd" d="M95.0717 65.7738L104.736 75.1409C107.548 76.3326 109.852 77.6485 111.648 79.0885C112.052 79.5726 112.491 80.5 110.591 80.085C108.691 79.67 106.673 79.3183 106.316 79.9324C105.959 80.5464 107.011 81.4873 106.351 82.2908C105.911 82.8266 104.431 81.1225 101.911 77.1787L91.8618 71.292L95.0717 65.7738ZM47.8139 57.2963L55.2843 57.3242C49.5946 75.6392 46.5743 85.2287 46.2235 86.0926C45.4341 88.0364 47.1046 90.9967 47.8189 92.5875C45.4922 93.6219 45.7402 89.7911 42.8051 91.1478C40.1261 92.3861 38.0882 94.6299 34.9931 92.7323C34.6125 92.4991 34.1955 91.6207 35.2031 90.9343C37.7132 89.2242 41.3304 86.2313 41.8192 85.2461C42.4857 83.9027 44.4839 74.5861 47.8139 57.2963Z" fill="#B28B67"/>
<path fill-rule="evenodd" clip-rule="evenodd" d="M70.5775 36.2411L73.5275 35.7384C78.1746 52.0598 102.052 63.1851 103.517 69.2864C104.055 71.5239 102.434 72.655 103.271 73.3365L99.4369 76.1254C98.7875 75.3727 97.4019 76.7496 94.5082 75.7864C91.6145 74.8233 70.5775 55.567 70.5775 36.2411Z" fill="#DB2721"/>
<path fill-rule="evenodd" clip-rule="evenodd" d="M75.5398 38.411C75.1997 60.0193 87.7719 65.5312 84.9716 74.1995C82.659 81.3577 60.5245 89.0527 56.6942 82.036C55.1438 79.1958 54.4404 75.7606 54.3606 72.0259C53.3816 74.8952 52.6074 77.3652 52.0379 79.4362C51.0554 83.0088 47.2464 83.5766 47.2464 84.9529L42.2282 83.5766C42.5685 81.7069 40.2028 80.7964 40.8371 76.6192C43.6792 57.903 51.3154 44.3361 63.7457 35.9187L63.8771 34.0511C63.9293 33.327 64.5573 32.7811 65.2817 32.8302L74.5686 33.4754C75.2934 33.5246 75.84 34.1529 75.7897 34.8776C75.7897 34.878 75.7896 34.8784 75.7884 34.8787L75.5398 38.411Z" fill="#FF4133"/>
</svg>
