<svg width="137" height="158" viewBox="0 0 137 158" fill="none" xmlns="http://www.w3.org/2000/svg">
<path fill-rule="evenodd" clip-rule="evenodd" d="M75.9013 31.8397C74.6192 30.1026 73.8144 28.0273 74.1298 25.787C75.0385 19.332 83.9686 21.3904 85.4961 24.7872C87.0237 28.184 86.2342 36.4742 83.9232 36.9006C83.0016 37.0706 81.113 36.3641 79.2328 35.0438L79.8554 43.8462L72.5806 43.3375L75.9013 31.8397Z" fill="#915B3C"/>
<path fill-rule="evenodd" clip-rule="evenodd" d="M71.1093 23.4059C70.8906 23.1566 70.7857 22.8153 70.6969 22.492C70.6047 22.1561 70.516 21.8171 70.4634 21.4705C70.3583 20.7781 70.4117 19.9939 70.9351 19.4985C71.3548 19.1013 71.9534 18.9518 72.4965 18.9482C72.8583 18.9457 73.2243 19.022 73.5614 19.1595C73.8958 19.2959 74.1751 19.5408 74.4972 19.7032C74.5613 18.9693 74.7409 18.2094 75.1575 17.6081C75.5584 17.0296 76.1539 16.7309 76.8114 16.6868C77.4863 16.6416 78.1354 16.8442 78.7112 17.2096C78.8553 17.3011 78.9978 17.3964 79.1331 17.5024C79.2465 17.5912 79.3633 17.6968 79.5006 17.7393C79.6536 17.7867 79.737 17.7022 79.846 17.5958C79.9739 17.471 80.1156 17.3631 80.2642 17.2691C80.9213 16.8535 81.7545 16.7219 82.4592 17.0479C82.784 17.1981 83.0933 17.4362 83.2988 17.7489C83.4821 18.0277 83.5966 18.4575 83.8622 18.6614C83.9748 18.7479 84.0655 18.65 84.1785 18.5809C84.3481 18.4771 84.5111 18.3608 84.6825 18.2602C84.9232 18.1189 85.1802 18.0185 85.4508 17.9755C85.8471 17.9126 86.3844 17.9714 86.4602 18.4899C86.4887 18.6847 86.4422 18.8876 86.4152 19.0799C86.3781 19.344 86.3402 19.6079 86.2986 19.8713C86.267 20.0713 86.2313 20.2641 86.1795 20.459C86.1519 20.5629 86.0748 20.7549 86.1126 20.8635C86.1598 20.9993 86.4255 20.9425 86.5365 20.9549C86.7557 20.9794 86.9737 21.0333 87.1704 21.1415C87.3228 21.2253 87.481 21.344 87.5348 21.5291C87.5679 21.6429 87.5492 21.7561 87.5219 21.8688C87.4892 22.0041 87.5106 22.0786 87.5182 22.218C87.8236 22.0933 88.8693 21.8418 88.961 22.3799C88.9915 22.5591 88.88 22.7513 88.7952 22.8947C88.6463 23.1462 88.4585 23.3724 88.2675 23.5873C87.8693 24.0356 87.4048 24.4138 86.9114 24.7306C87.4438 25.0133 87.5368 25.7439 87.0311 26.1399C86.8078 26.3147 86.5224 26.3372 86.2583 26.3065C86.1616 26.2953 86.0244 26.2482 85.9469 26.2598C85.9052 26.266 85.8588 26.2977 85.8017 26.2977C85.4259 26.2971 85.0101 26.1775 84.6504 26.069C84.0094 25.8756 83.4143 25.5239 82.9436 25.0187C82.8229 24.8891 82.721 24.8122 82.547 24.8018C82.3946 24.7927 82.2422 24.8241 82.0897 24.8173C81.6862 24.7994 81.3368 24.5771 80.972 24.4199C80.9138 24.9235 80.731 25.4699 80.4925 25.91C80.2981 26.2689 79.9424 26.2981 79.5942 26.3065C78.481 26.3332 77.3793 26.1395 76.2719 26.0636C77.3269 26.3808 78.4276 26.5581 79.47 26.9175C79.9412 27.08 79.5519 27.378 79.3309 27.588C78.9669 27.9338 78.6835 28.3741 78.4754 28.8441C77.9988 28.124 77.1035 27.6088 76.2677 27.7613C75.3442 27.9299 74.6195 29.1121 75.138 30.0348C75.439 30.5704 76.0335 30.8106 76.5242 31.066C76.1007 31.4489 75.9628 32.0485 75.6894 32.5426C75.5546 32.7862 75.3702 33.0595 75.1019 33.1289C75.0027 33.1546 74.8887 33.1494 74.8067 33.2231C74.7051 33.3144 74.6749 33.4222 74.548 33.4979C74.0416 33.7999 73.289 33.7213 72.8916 33.2532C72.5322 32.8298 72.6768 32.2098 73.0281 31.8307C72.5285 31.5802 71.6102 31.2387 71.8708 30.4513C70.7609 30.2992 68.1798 28.3014 69.7689 27.0845C68.98 26.5628 68.3047 25.3755 68.9022 24.4124C69.3624 23.6707 70.3313 23.3925 71.1093 23.4059Z" fill="#191847"/>
<path fill-rule="evenodd" clip-rule="evenodd" d="M66.6104 69.8132L89.1887 107.56L106.116 139.472H109.762L81.4001 69.8132L66.6104 69.8132Z" fill="#784931"/>
<path fill-rule="evenodd" clip-rule="evenodd" d="M103.887 137.999C103.547 138.906 103.377 139.585 103.377 140.036C103.377 140.584 103.468 141.383 103.651 142.434C104.286 142.434 109.999 142.434 120.789 142.434C121.234 140.962 120.977 140.167 120.017 140.05C119.058 139.932 118.261 139.826 117.626 139.732L109.661 136.181C109.507 136.112 109.328 136.181 109.259 136.335C109.258 136.337 109.257 136.34 109.256 136.343L108.744 137.585C107.856 137.999 107.134 138.206 106.579 138.206C106.127 138.206 105.504 138.024 104.709 137.66L104.709 137.66C104.404 137.52 104.043 137.654 103.904 137.959C103.897 137.972 103.892 137.985 103.887 137.999Z" fill="#E4E4E4"/>
<path fill-rule="evenodd" clip-rule="evenodd" d="M101.415 134.362L108.446 132.235C105.366 123.026 101.59 112.891 97.1195 101.832C92.6487 90.7721 87.8472 80.0993 82.7151 69.8132H62.8564C68.5623 82.8246 74.6112 94.6471 81.0032 105.281C87.3953 115.914 94.1993 125.608 101.415 134.362Z" fill="#5C63AB"/>
<path fill-rule="evenodd" clip-rule="evenodd" d="M65.1267 69.8132C62.9957 83.0778 58.8857 100.025 58.4978 100.548C58.2392 100.896 48.93 104.016 30.5703 109.906L31.3579 113.121C53.2518 109.962 64.7881 107.511 65.9666 105.769C67.7344 103.154 76.5613 82.5032 79.9801 69.8132H65.1267Z" fill="#915B3C"/>
<path fill-rule="evenodd" clip-rule="evenodd" d="M37.0239 107.127L38.4112 112.305C54.7865 113.741 64.8201 112.703 68.5118 109.192C72.2036 105.68 76.4111 92.5537 81.1343 69.8132H62.1979C59.2053 88.4346 57.5323 98.1362 57.1788 98.9179C56.8253 99.6996 50.107 102.436 37.0239 107.127Z" fill="#8991DC"/>
<path fill-rule="evenodd" clip-rule="evenodd" d="M31.4695 108.567C30.5168 108.389 29.8186 108.34 29.3749 108.418C28.8353 108.513 28.0637 108.742 27.0602 109.104C27.1705 109.73 28.1625 115.356 30.0361 125.982C31.5634 126.165 32.3016 125.774 32.2506 124.808C32.1996 123.843 32.1655 123.04 32.1485 122.398L34.2624 113.937C34.3031 113.774 34.2041 113.609 34.0413 113.568C34.0385 113.568 34.0357 113.567 34.0329 113.566L32.7208 113.278C32.1584 112.475 31.829 111.8 31.7326 111.253C31.6542 110.809 31.7255 110.164 31.9463 109.317L31.9463 109.317C32.0311 108.993 31.8365 108.661 31.5118 108.576C31.4978 108.572 31.4837 108.569 31.4695 108.567Z" fill="#E4E4E4"/>
<path fill-rule="evenodd" clip-rule="evenodd" d="M93.7287 66.8188L102.038 75.5111C104.504 76.6662 106.513 77.9167 108.067 79.2627C108.411 79.7089 108.774 80.5535 107.095 80.1226C105.417 79.6917 103.632 79.3139 103.295 79.8529C102.957 80.3919 103.865 81.2676 103.252 81.967C102.844 82.4333 101.58 80.8606 99.46 77.2491L90.6989 71.6628L93.7287 66.8188ZM51.0483 56.2829L56.15 58.1663C47.8934 69.2252 43.4859 75.0651 42.9274 75.6859C41.6707 77.0828 42.1612 80.0854 42.2714 81.6431C40.0069 81.8057 41.3889 78.6542 38.5164 78.9029C35.8946 79.13 33.501 80.3993 31.4923 77.858C31.2453 77.5456 31.1656 76.6786 32.2193 76.4073C34.8445 75.7314 38.7896 74.3122 39.5007 73.6312C40.4704 72.7025 44.3196 66.9198 51.0483 56.2829Z" fill="#915B3C"/>
<path fill-rule="evenodd" clip-rule="evenodd" d="M95.8181 67.9729C97.0618 68.1013 98.3618 68.5403 99.7089 69.2754C100.372 69.6371 100.616 70.4677 100.254 71.1306C100.044 71.5156 99.6759 71.7594 99.2742 71.8252C99.513 72.0735 99.7544 72.321 99.9985 72.5679L96.7237 77.0592C87.4814 70.2201 78.629 64.7315 75.7598 55.6252C74.7968 52.5689 76.9666 43.1467 77.4375 39.6627L80.8693 38.9146C83.7045 48.9228 88.1821 58.8343 95.8181 67.9729Z" fill="#69A1AC"/>
<path fill-rule="evenodd" clip-rule="evenodd" d="M60.5239 69.8433C69.7492 72.5355 77.154 73.8412 82.7382 73.7602C83.43 73.7502 83.9094 70.8599 83.7379 70.0173C81.0682 56.8947 79.4727 47.3515 80.9754 38.8288C80.0069 39.1357 78.4426 38.9314 76.2825 38.2161C68.7748 45.9483 64.2588 55.5427 60.5239 69.8433Z" fill="#191847"/>
<path fill-rule="evenodd" clip-rule="evenodd" d="M58.5204 70.9857C58.2539 70.6288 58.1668 70.1488 58.3306 69.699L58.6423 68.8424C58.8536 68.2619 59.4171 67.9114 60.0036 67.9445C60.1832 67.5132 60.3484 67.0826 60.498 66.6525C61.7615 63.0197 61.3758 59.1712 62.0592 55.5792C56.5235 58.8361 50.957 65.1639 45.3597 74.5624L40.0013 71.9028C40.3582 71.1397 40.721 70.3878 41.0899 69.6471C40.503 69.1615 40.0402 67.3286 40.6389 67.1411C41.2572 66.9475 41.8939 66.8467 42.5474 66.8366C50.4815 52.1422 60.9685 42.2217 74.0082 37.0749L75.0491 37.2584L77.4113 37.675C74.0729 50.7488 82.8117 82.1177 73.6499 105.976C64.4179 106.394 52.8256 97.9864 39.6129 100.741C41.8265 90.8721 53.0877 80.8061 58.5204 70.9857L58.5204 70.9857Z" fill="#89C5CC"/>
<path fill-rule="evenodd" clip-rule="evenodd" d="M75.1913 37.5921L72.8103 42.0674L75.2917 46.1746L71.9889 48.476L76.734 61.3133L70.4697 48.2321L73.7266 45.8986L71.5215 42.2669L75.1913 37.5921Z" fill="black" fill-opacity="0.1"/>
<path fill-rule="evenodd" clip-rule="evenodd" d="M73.9492 65.4503C73.2881 65.3338 72.8467 64.7034 72.9633 64.0423C73.0798 63.3813 73.7102 62.9399 74.3713 63.0564C75.0323 63.173 75.4737 63.8034 75.3572 64.4644C75.2406 65.1255 74.6102 65.5669 73.9492 65.4503ZM74.2318 72.5966C73.5707 72.4801 73.1293 71.8497 73.2459 71.1886C73.3624 70.5276 73.9928 70.0862 74.6539 70.2027C75.315 70.3193 75.7564 70.9497 75.6398 71.6107C75.5232 72.2718 74.8928 72.7132 74.2318 72.5966ZM73.3175 79.5319C72.6564 79.4153 72.215 78.7849 72.3316 78.1239C72.4481 77.4628 73.0785 77.0214 73.7396 77.138C74.4006 77.2545 74.842 77.8849 74.7255 78.546C74.6089 79.207 73.9785 79.6484 73.3175 79.5319Z" fill="black" fill-opacity="0.4"/>
</svg>
