<svg width="137" height="158" viewBox="0 0 137 158" fill="none" xmlns="http://www.w3.org/2000/svg">
<rect x="0.5" y="0.5" width="136" height="157" rx="9.5" fill="white" stroke="black"/>
<path fill-rule="evenodd" clip-rule="evenodd" d="M71.5274 28.6738C70.1778 26.8452 69.3306 24.6606 69.6626 22.3023C70.6192 15.5075 80.0194 17.6743 81.6274 21.25C83.2354 24.8256 82.4044 33.5522 79.9717 34.0011C79.0015 34.1801 77.0135 33.4364 75.0343 32.0465L75.6897 41.3124L68.0319 40.777L71.5274 28.6738Z" fill="#915B3C"/>
<path fill-rule="evenodd" clip-rule="evenodd" d="M66.4839 19.7958C66.2537 19.5334 66.1433 19.1742 66.0498 18.8338C65.9527 18.4802 65.8594 18.1234 65.804 17.7585C65.6934 17.0296 65.7496 16.2042 66.3005 15.6827C66.7424 15.2646 67.3725 15.1072 67.9441 15.1034C68.325 15.1008 68.7103 15.1811 69.0651 15.3259C69.4171 15.4695 69.7112 15.7272 70.0502 15.8982C70.1177 15.1257 70.3067 14.3257 70.7453 13.6928C71.1672 13.0838 71.7941 12.7694 72.4863 12.723C73.1967 12.6754 73.88 12.8886 74.4861 13.2733C74.6378 13.3696 74.7878 13.4699 74.9303 13.5816C75.0495 13.675 75.1726 13.7861 75.3171 13.8308C75.4781 13.8807 75.5659 13.7918 75.6807 13.6798C75.8153 13.5485 75.9645 13.4349 76.1209 13.3359C76.8126 12.8984 77.6896 12.7599 78.4315 13.1031C78.7733 13.2612 79.0989 13.5118 79.3153 13.841C79.5082 14.1344 79.6288 14.5869 79.9083 14.8015C80.0269 14.8926 80.1224 14.7896 80.2413 14.7168C80.4198 14.6075 80.5914 14.4851 80.7718 14.3792C81.0252 14.2304 81.2957 14.1248 81.5806 14.0795C81.9977 14.0133 82.5634 14.0752 82.6431 14.621C82.6731 14.826 82.6242 15.0396 82.5957 15.2421C82.5567 15.5201 82.5168 15.7979 82.473 16.0752C82.4398 16.2857 82.4022 16.4886 82.3477 16.6938C82.3186 16.8032 82.2374 17.0052 82.2772 17.1196C82.3269 17.2625 82.6066 17.2028 82.7234 17.2158C82.9542 17.2415 83.1837 17.2984 83.3907 17.4122C83.5512 17.5004 83.7176 17.6253 83.7743 17.8203C83.8092 17.94 83.7895 18.0592 83.7607 18.1778C83.7263 18.3203 83.7488 18.3987 83.7568 18.5454C84.0783 18.4141 85.179 18.1494 85.2756 18.7158C85.3077 18.9044 85.1903 19.1068 85.101 19.2577C84.9444 19.5224 84.7466 19.7606 84.5456 19.9868C84.1264 20.4587 83.6375 20.8569 83.1181 21.1903C83.6785 21.4879 83.7764 22.2569 83.244 22.6738C83.009 22.8578 82.7086 22.8815 82.4306 22.8492C82.3288 22.8374 82.1844 22.7879 82.1028 22.8C82.0589 22.8066 82.0101 22.84 81.9499 22.8399C81.5544 22.8393 81.1167 22.7134 80.738 22.5991C80.0633 22.3956 79.4369 22.0253 78.9414 21.4936C78.8143 21.3571 78.7071 21.2762 78.5239 21.2653C78.3634 21.2557 78.203 21.2887 78.0425 21.2815C77.6178 21.2627 77.25 21.0287 76.866 20.8632C76.8047 21.3934 76.6122 21.9686 76.3612 22.4318C76.1565 22.8096 75.7821 22.8404 75.4156 22.8491C74.2438 22.8773 73.0841 22.6734 71.9184 22.5935C73.0289 22.9274 74.1875 23.1141 75.2849 23.4924C75.7809 23.6634 75.3711 23.9771 75.1384 24.1982C74.7553 24.5622 74.457 25.0256 74.2379 25.5205C73.7362 24.7623 72.7937 24.22 71.9139 24.3806C70.9418 24.558 70.179 25.8026 70.7248 26.7738C71.0416 27.3376 71.6674 27.5905 72.1839 27.8593C71.7381 28.2623 71.5929 28.8935 71.3052 29.4136C71.1633 29.6701 70.9691 29.9577 70.6868 30.0308C70.5823 30.0579 70.4624 30.0524 70.376 30.13C70.2691 30.2261 70.2372 30.3396 70.1037 30.4192C69.5706 30.7371 68.7784 30.6544 68.36 30.1616C67.9817 29.716 68.1339 29.0633 68.5038 28.6642C67.9779 28.4005 67.0112 28.0411 67.2855 27.2122C66.1171 27.0522 63.4002 24.9491 65.073 23.6681C64.2425 23.119 63.5316 21.8692 64.1606 20.8553C64.645 20.0746 65.6649 19.7818 66.4839 19.7958Z" fill="#191847"/>
<path fill-rule="evenodd" clip-rule="evenodd" d="M61.7461 68.6468L85.5133 108.381L103.332 141.973H107.17L77.3146 68.6468L61.7461 68.6468Z" fill="#784931"/>
<path fill-rule="evenodd" clip-rule="evenodd" d="M100.985 140.423C100.628 141.378 100.449 142.093 100.449 142.567C100.449 143.144 100.545 143.985 100.737 145.092C101.406 145.092 107.42 145.092 118.777 145.092C119.246 143.542 118.976 142.705 117.965 142.582C116.955 142.458 116.116 142.347 115.448 142.247L107.063 138.509C106.902 138.437 106.713 138.51 106.641 138.671C106.64 138.674 106.639 138.676 106.637 138.679L106.098 139.987C105.163 140.423 104.404 140.641 103.819 140.641C103.344 140.641 102.688 140.449 101.851 140.066L101.851 140.066C101.53 139.918 101.15 140.059 101.003 140.38C100.997 140.394 100.991 140.408 100.985 140.423Z" fill="#5C63AB"/>
<path fill-rule="evenodd" clip-rule="evenodd" d="M98.3831 136.594L105.785 134.355C102.542 124.661 98.5673 113.993 93.8611 102.351C89.1549 90.7093 84.1006 79.4745 78.6983 68.6468H57.7939C63.8002 82.3433 70.1676 94.7883 76.8962 105.982C83.6248 117.175 90.7871 127.38 98.3831 136.594Z" fill="#5C63AB"/>
<path fill-rule="evenodd" clip-rule="evenodd" d="M60.1845 68.6468C57.9414 82.6098 53.6149 100.449 53.2066 101C52.9344 101.367 43.1351 104.65 23.8086 110.851L24.6376 114.235C47.6844 110.91 59.8281 108.33 61.0687 106.495C62.9296 103.744 72.2212 82.0049 75.8201 68.6468H60.1845Z" fill="#915B3C"/>
<path fill-rule="evenodd" clip-rule="evenodd" d="M30.6025 107.925L32.0628 113.376C49.3004 114.888 59.8623 113.795 63.7484 110.099C67.6346 106.402 72.0636 92.5847 77.0355 68.6468H57.102C53.9519 88.2487 52.1908 98.4611 51.8187 99.2839C51.4465 100.107 44.3745 102.987 30.6025 107.925Z" fill="#8991DC"/>
<path fill-rule="evenodd" clip-rule="evenodd" d="M24.7554 109.441C23.7526 109.254 23.0176 109.202 22.5506 109.284C21.9826 109.385 21.1703 109.625 20.114 110.007C20.2302 110.666 21.2744 116.588 23.2466 127.773C24.8543 127.966 25.6314 127.554 25.5777 126.538C25.524 125.521 25.4882 124.676 25.4702 124L27.6955 115.094C27.7383 114.922 27.6341 114.749 27.4627 114.706C27.4597 114.705 27.4568 114.705 27.4538 114.704L26.0727 114.4C25.4807 113.555 25.1339 112.845 25.0324 112.269C24.9499 111.801 25.0249 111.122 25.2574 110.231L25.2574 110.231C25.3466 109.889 25.1419 109.54 24.8 109.451C24.7853 109.447 24.7704 109.443 24.7554 109.441Z" fill="#5C63AB"/>
<path fill-rule="evenodd" clip-rule="evenodd" d="M90.2953 65.4947L99.0421 74.6447C101.638 75.8606 103.753 77.177 105.388 78.5938C105.751 79.0635 106.132 79.9526 104.366 79.499C102.599 79.0454 100.72 78.6478 100.365 79.2151C100.01 79.7825 100.965 80.7043 100.32 81.4405C99.8901 81.9313 98.5595 80.2759 96.3284 76.4742L87.106 70.5937L90.2953 65.4947ZM45.3676 54.404L50.7379 56.3866C42.0466 68.0278 37.4069 74.1752 36.819 74.8287C35.4962 76.2992 36.0125 79.4598 36.1285 81.0996C33.7447 81.2707 35.1995 77.9533 32.1758 78.2151C29.4159 78.4541 26.8963 79.7903 24.7818 77.1152C24.5219 76.7863 24.438 75.8737 25.5472 75.5881C28.3106 74.8766 32.4634 73.3826 33.2119 72.6658C34.2327 71.6882 38.2846 65.601 45.3676 54.404Z" fill="#915B3C"/>
<path fill-rule="evenodd" clip-rule="evenodd" d="M92.4955 66.7096C93.8046 66.8447 95.173 67.3068 96.5911 68.0806C97.2889 68.4614 97.5459 69.3358 97.1651 70.0336C96.944 70.4388 96.5563 70.6954 96.1335 70.7647C96.3849 71.0261 96.639 71.2867 96.8959 71.5466L93.4487 76.2743C83.7198 69.0751 74.4012 63.2975 71.3809 53.7117C70.3673 50.4945 72.6513 40.5761 73.147 36.9088L76.7595 36.1212C79.744 46.6564 84.4573 57.0898 92.4955 66.7096Z" fill="#69A1AC"/>
<path fill-rule="evenodd" clip-rule="evenodd" d="M55.3415 68.6784C65.0526 71.5124 72.8473 72.8869 78.7255 72.8016C79.4538 72.7911 79.9584 69.7486 79.7779 68.8616C76.9676 55.048 75.288 45.0024 76.87 36.0309C75.8504 36.3539 74.2037 36.1389 71.9299 35.3859C64.0269 43.5252 59.2731 53.6249 55.3415 68.6784Z" fill="#191847"/>
<path fill-rule="evenodd" clip-rule="evenodd" d="M53.2326 69.8811C52.9521 69.5053 52.8604 69.0001 53.0328 68.5265L53.361 67.6248C53.5834 67.0138 54.1765 66.6449 54.7939 66.6796C54.983 66.2257 55.1569 65.7724 55.3144 65.3197C56.6443 61.4956 56.2384 57.4444 56.9577 53.6633C51.1306 57.0917 45.271 63.7526 39.3789 73.646L33.7383 70.8464C34.114 70.0431 34.496 69.2516 34.8843 68.4719C34.2665 67.9607 33.7794 66.0313 34.4096 65.834C35.0604 65.6301 35.7306 65.5241 36.4185 65.5134C44.7704 50.0453 55.8096 39.6024 69.5359 34.1846L70.6317 34.3778L73.1182 34.8163C69.6041 48.5785 78.803 81.5991 69.1587 106.714C59.4406 107.154 47.238 98.3034 33.3295 101.203C35.6597 90.8146 47.5139 80.2185 53.2326 69.8811L53.2326 69.8811Z" fill="#89C5CC"/>
<path fill-rule="evenodd" clip-rule="evenodd" d="M70.7819 34.729L68.2756 39.44L70.8876 43.7635L67.4109 46.186L72.4059 59.6993L65.8117 45.9293L69.2401 43.473L66.9189 39.65L70.7819 34.729Z" fill="black" fill-opacity="0.1"/>
<path fill-rule="evenodd" clip-rule="evenodd" d="M69.4743 64.0542C68.7785 63.9315 68.3138 63.2679 68.4365 62.572C68.5592 61.8761 69.2228 61.4115 69.9187 61.5342C70.6145 61.6569 71.0792 62.3205 70.9565 63.0163C70.8338 63.7122 70.1702 64.1769 69.4743 64.0542ZM69.7718 71.5767C69.076 71.454 68.6113 70.7905 68.734 70.0946C68.8567 69.3987 69.5203 68.9341 70.2162 69.0568C70.912 69.1795 71.3767 69.8431 71.254 70.5389C71.1313 71.2348 70.4677 71.6994 69.7718 71.5767ZM68.8094 78.8772C68.1135 78.7545 67.6489 78.0909 67.7716 77.395C67.8943 76.6991 68.5578 76.2345 69.2537 76.3572C69.9496 76.4799 70.4142 77.1435 70.2915 77.8393C70.1688 78.5352 69.5052 78.9999 68.8094 78.8772Z" fill="black" fill-opacity="0.4"/>
</svg>
