<svg width="137" height="158" viewBox="0 0 137 158" fill="none" xmlns="http://www.w3.org/2000/svg">
<rect x="0.5" y="0.5" width="136" height="157" rx="9.5" fill="white" stroke="black"/>
<path fill-rule="evenodd" clip-rule="evenodd" d="M68.7275 42.9201C67.4612 41.4338 66.6042 39.6123 66.7474 37.5712C67.1601 31.6905 75.3463 32.9842 76.9387 35.9523C78.5311 38.9204 78.3419 46.4493 76.2839 46.9798C75.4631 47.1913 73.7147 46.6731 71.9352 45.6005L73.0522 53.5025H66.457L68.7275 42.9201Z" fill="#B28B67"/>
<path fill-rule="evenodd" clip-rule="evenodd" d="M73.1799 32.5314C72.3107 32.3889 69.9703 32.2909 69.5387 32.2909C69.2629 32.2909 68.964 32.354 68.8006 32.1007C68.6668 31.8933 68.7158 31.5425 68.6759 31.3019C68.6295 31.0223 68.5637 30.7463 68.4971 30.471C68.3076 29.6877 68.0209 28.9425 67.6199 28.2428C66.8675 26.9301 65.7651 25.9019 64.3735 25.3036C62.8367 24.6429 61.0977 24.4916 59.4446 24.6256C57.6756 24.769 56.0743 25.353 54.4041 25.9025C52.8125 26.4262 51.1455 26.6323 49.4808 26.3766C47.8036 26.119 46.5364 25.2099 45.1217 24.3471C43.6734 23.4639 42.0184 22.8862 40.3063 23.019C38.7082 23.143 37.2352 23.8029 35.9137 24.6844C34.6772 25.5091 33.657 26.5014 33.081 27.898C32.4614 29.4003 32.462 31.0493 33.4809 32.377C34.9578 34.3015 37.6997 34.7991 39.9809 34.7497C41.3003 34.7211 42.5961 34.4803 43.8419 34.0421C45.5032 33.4578 46.9388 32.4674 48.493 31.6638C49.2224 31.2867 49.9763 30.9771 50.7665 30.754C51.5334 30.5374 52.2887 30.4381 52.983 30.9013C53.7175 31.3914 54.3757 31.8728 55.216 32.1796C56.022 32.4739 56.8759 32.6385 57.7347 32.6319C59.4056 32.619 61.0528 32.0983 62.6757 31.7496C63.9991 31.4653 65.4151 31.1819 66.7643 31.4552C67.3273 31.5693 68.1497 31.8048 68.353 32.3899C64.9306 33.0102 63.5864 37.2428 64.5513 40.3499C65.072 42.027 68.2022 43.9874 69.4193 43.1058C70.1903 42.5472 69.7222 41.814 69.4193 41.3299C68.8391 40.4029 68.6406 39.2121 69.7142 38.5667C70.6402 38.0101 71.6138 39.332 71.6322 39.3305C71.8867 39.3104 74.0858 38.0667 75.601 36.2519C77.0957 36.3405 77.3224 35.3549 76.9655 34.5489C76.6086 33.7429 74.3809 32.7285 73.1799 32.5314Z" fill="#191847"/>
<path fill-rule="evenodd" clip-rule="evenodd" d="M64.8115 76.317L85.2307 110.454L100.539 139.314H103.837L78.1869 76.317L64.8115 76.317Z" fill="#997659"/>
<path fill-rule="evenodd" clip-rule="evenodd" d="M98.5227 137.982C98.2152 138.803 98.0615 139.417 98.0615 139.824C98.0615 140.32 98.1441 141.043 98.3092 141.994C98.884 141.994 104.05 141.994 113.808 141.994C114.211 140.662 113.979 139.943 113.111 139.837C112.243 139.731 111.522 139.635 110.948 139.549L103.744 136.338C103.606 136.276 103.443 136.338 103.381 136.477C103.38 136.479 103.379 136.482 103.378 136.484L102.915 137.607C102.112 137.982 101.459 138.17 100.957 138.17C100.549 138.17 99.9854 138.005 99.2664 137.675L99.2664 137.675C98.9904 137.549 98.6642 137.67 98.5377 137.946C98.5323 137.958 98.5273 137.97 98.5227 137.982Z" fill="#E4E4E4"/>
<path fill-rule="evenodd" clip-rule="evenodd" d="M96.2875 134.693L102.646 132.769C99.8604 124.441 96.4458 115.276 92.4025 105.274C88.3593 95.2716 84.017 85.6194 79.3757 76.317H61.416C66.5762 88.0841 72.0467 98.776 77.8274 108.393C83.6082 118.01 89.7616 126.776 96.2875 134.693Z" fill="#DB2721"/>
<path fill-rule="evenodd" clip-rule="evenodd" d="M63.4691 76.317C61.5419 88.313 57.8249 103.639 57.4741 104.112C57.2402 104.428 48.8213 107.249 32.2173 112.576L32.9295 115.483C52.7298 112.626 63.1628 110.41 64.2287 108.834C65.8274 106.47 73.8102 87.7934 76.9021 76.317H63.4691Z" fill="#B28B67"/>
<path fill-rule="evenodd" clip-rule="evenodd" d="M38.0542 110.062L39.3088 114.745C54.1182 116.044 63.1923 115.106 66.531 111.93C69.8697 108.754 73.6748 96.8828 77.9464 76.317H60.8208C58.1144 93.1576 56.6014 101.931 56.2817 102.638C55.962 103.345 49.8862 105.82 38.0542 110.062Z" fill="#FF4133"/>
<path fill-rule="evenodd" clip-rule="evenodd" d="M33.0307 111.364C32.1691 111.204 31.5377 111.159 31.1364 111.23C30.6484 111.316 29.9506 111.523 29.043 111.851C29.1429 112.417 30.04 117.505 31.7344 127.114C33.1157 127.28 33.7832 126.926 33.7371 126.053C33.691 125.18 33.6602 124.453 33.6448 123.873L35.5566 116.221C35.5933 116.074 35.5038 115.925 35.3566 115.888C35.354 115.887 35.3515 115.887 35.349 115.886L34.1624 115.625C33.6538 114.899 33.3558 114.289 33.2686 113.794C33.1978 113.392 33.2622 112.809 33.462 112.043L33.462 112.043C33.5386 111.75 33.3627 111.45 33.069 111.373C33.0563 111.37 33.0435 111.367 33.0307 111.364Z" fill="#E4E4E4"/>
<path fill-rule="evenodd" clip-rule="evenodd" d="M88.4556 71.9504L96.24 79.5444C98.505 80.5105 100.361 81.5773 101.807 82.7448C102.133 83.1373 102.487 83.8892 100.956 83.5527C99.4256 83.2162 97.8004 82.9311 97.5127 83.4289C97.2251 83.9267 98.0728 84.6895 97.5411 85.341C97.1866 85.7753 95.9945 84.3938 93.9649 81.1965L85.8701 76.4241L88.4556 71.9504ZM53.9035 73.0214L59.6461 73.0439C56.1003 84.4903 54.1861 90.5636 53.9035 91.264C53.2676 92.8398 54.6132 95.2398 55.1886 96.5295C53.3145 97.3681 53.5142 94.2624 51.15 95.3623C48.9921 96.3662 47.3506 98.1853 44.8575 96.6469C44.551 96.4578 44.2151 95.7457 45.0266 95.1892C47.0485 93.8028 49.9622 91.3764 50.3559 90.5777C50.8927 89.4886 52.0753 83.6365 53.9035 73.0214Z" fill="#B28B67"/>
<path fill-rule="evenodd" clip-rule="evenodd" d="M70.2229 48.9249L72.5991 48.5174C76.6902 58.7372 83.8328 68.0231 94.0268 76.3753L86.3237 85.7339C76.1308 73.8415 69.8479 61.5719 70.2229 48.9249Z" fill="#191847"/>
<path fill-rule="evenodd" clip-rule="evenodd" d="M59.8643 78.7866H81.0237C76.1215 66.8673 73.6704 56.742 73.6704 48.4107L67.2877 47.4597C62.2715 55.5273 60.8549 65.4602 59.8643 78.7866Z" fill="#DDE3E9"/>
<path fill-rule="evenodd" clip-rule="evenodd" d="M67.1528 47.4642C67.1536 47.4627 67.1545 47.4612 67.1553 47.4597H67.5719C68.0705 47.4769 68.8298 47.5078 69.85 47.5525L71.3923 51.9601C71.5554 57.3339 72.5081 68.1636 74.2504 84.4491H60.38C60.4164 85.5739 60.4763 86.7092 60.5599 87.855H50.2466C51.7893 70.4504 57.423 56.9853 67.1477 47.4597L67.1528 47.4642V47.4642Z" fill="#2F3676"/>
<path fill-rule="evenodd" clip-rule="evenodd" d="M61.2961 70.0572C61.6909 77.0686 62.6792 81.902 64.2611 84.5574H60.3835C60.2137 79.5129 60.5179 74.6795 61.2961 70.0572V70.0572Z" fill="black" fill-opacity="0.1"/>
<path fill-rule="evenodd" clip-rule="evenodd" d="M63.4673 76.0387L70.3067 72.8591V76.0387H63.4673Z" fill="white" fill-opacity="0.2"/>
</svg>
