<svg width="137" height="158" viewBox="0 0 137 158" fill="none" xmlns="http://www.w3.org/2000/svg">
<path fill-rule="evenodd" clip-rule="evenodd" d="M66.7885 33.0776C65.3216 31.3557 64.3287 29.2455 64.4946 26.8809C64.9727 20.068 74.4565 21.5668 76.3013 25.0054C78.1461 28.4439 77.9269 37.1662 75.5427 37.7808C74.5918 38.0259 72.5663 37.4255 70.5047 36.1829L71.7987 45.3374H64.1582L66.7885 33.0776Z" fill="#B28B67"/>
<path fill-rule="evenodd" clip-rule="evenodd" d="M71.9459 21.0422C70.9389 20.8771 68.2275 20.7636 67.7275 20.7636C67.4079 20.7636 67.0616 20.8366 66.8724 20.5432C66.7174 20.303 66.7742 19.8966 66.7279 19.6178C66.6742 19.2939 66.5979 18.9742 66.5208 18.6553C66.3012 17.7478 65.9691 16.8844 65.5046 16.0738C64.6328 14.5531 63.3557 13.3619 61.7435 12.6687C59.9631 11.9033 57.9485 11.7281 56.0334 11.8833C53.984 12.0494 52.1289 12.7259 50.194 13.3626C48.3501 13.9693 46.4188 14.2081 44.4903 13.9118C42.5472 13.6133 41.0791 12.5602 39.4402 11.5607C37.7624 10.5374 35.845 9.86812 33.8615 10.022C32.01 10.1656 30.3036 10.9301 28.7726 11.9513C27.3402 12.9068 26.1583 14.0564 25.491 15.6744C24.7731 17.4148 24.7738 19.3252 25.9542 20.8633C27.6653 23.0928 30.8418 23.6694 33.4845 23.6121C35.0131 23.579 36.5143 23.3 37.9575 22.7924C39.8821 22.1154 41.5453 20.968 43.3458 20.0371C44.1908 19.6003 45.0643 19.2415 45.9798 18.983C46.8682 18.7321 47.7432 18.6171 48.5476 19.1537C49.3985 19.7215 50.161 20.2792 51.1345 20.6346C52.0683 20.9756 53.0575 21.1663 54.0524 21.1586C55.9882 21.1437 57.8965 20.5405 59.7766 20.1365C61.3098 19.8071 62.9503 19.4788 64.5133 19.7955C65.1656 19.9276 66.1183 20.2004 66.3539 20.8783C62.3889 21.5969 60.8317 26.5004 61.9495 30.1C62.5528 32.0429 66.1792 34.3141 67.5891 33.2927C68.4824 32.6456 67.9401 31.7961 67.5891 31.2353C66.917 30.1614 66.6871 28.7819 67.9308 28.0342C69.0035 27.3893 70.1314 28.9207 70.1528 28.919C70.4476 28.8958 72.9953 27.4549 74.7507 25.3524C76.4823 25.455 76.745 24.3132 76.3315 23.3795C75.918 22.4457 73.3372 21.2705 71.9459 21.0422Z" fill="#191847"/>
<path fill-rule="evenodd" clip-rule="evenodd" d="M57.9943 71.7609C58.5683 79.5955 95.5483 102.662 95.7641 103.309C95.8599 103.596 92.0231 112.689 84.2536 130.586L87.4862 131.842C99.4033 112.888 105.056 102.401 104.444 100.381C103.567 97.4894 94.0033 87.9771 75.7515 71.8442L57.9943 71.7609Z" fill="#B28B67"/>
<path fill-rule="evenodd" clip-rule="evenodd" d="M85.1044 126.544L90.3821 128.465C101.511 115.909 105.873 105.548 105.078 100.269C104.548 96.7501 95.0165 87.2537 76.4845 71.7801L57.6159 71.7801C58.2597 89.9238 92.5355 103.378 92.994 104.151C93.4525 104.924 88.9407 112.497 85.1044 126.544Z" fill="#2F3676"/>
<path fill-rule="evenodd" clip-rule="evenodd" d="M83.0647 129.969C82.4049 130.74 81.9942 131.348 81.8328 131.791C81.6364 132.331 81.4398 133.151 81.2428 134.251C81.8686 134.479 87.493 136.526 98.1158 140.392C99.0818 139.102 99.1135 138.228 98.2109 137.768C97.3083 137.309 96.5615 136.919 95.9706 136.598L89.4007 130.248C89.2743 130.126 89.0728 130.129 88.9506 130.255C88.9485 130.258 88.9464 130.26 88.9444 130.262L87.9952 131.301C86.9722 131.391 86.1873 131.336 85.6405 131.137C85.1963 130.976 84.6481 130.573 83.9959 129.929L83.9959 129.929C83.7457 129.682 83.3425 129.685 83.0955 129.935C83.0848 129.946 83.0746 129.957 83.0647 129.969Z" fill="#E4E4E4"/>
<path fill-rule="evenodd" clip-rule="evenodd" d="M62.2466 71.7608L45.773 111.309L29.582 144.744H33.402L75.1952 71.7608H62.2466Z" fill="#997659"/>
<path fill-rule="evenodd" clip-rule="evenodd" d="M29.3541 143.2C28.9979 144.151 28.8198 144.862 28.8198 145.335C28.8198 145.909 28.9155 146.746 29.1067 147.848C29.7727 147.848 35.758 147.848 47.0625 147.848C47.5291 146.305 47.2598 145.472 46.2545 145.349C45.2492 145.226 44.414 145.115 43.7491 145.016L35.4034 141.296C35.2428 141.224 35.0546 141.296 34.983 141.457C34.9818 141.459 34.9806 141.462 34.9794 141.465L34.443 142.766C33.5123 143.201 32.7561 143.418 32.1742 143.418C31.7015 143.418 31.0486 143.227 30.2156 142.845L30.2156 142.845C29.896 142.698 29.5181 142.839 29.3715 143.158C29.3652 143.172 29.3594 143.186 29.3541 143.2Z" fill="#E4E4E4"/>
<path fill-rule="evenodd" clip-rule="evenodd" d="M31.0439 137.798L39.532 139.39C46.0949 129.741 73.561 90.1783 76.5723 71.7608H57.6761C47.6195 85.0748 37.2998 127.99 31.0439 137.798Z" fill="#5C63AB"/>
<path fill-rule="evenodd" clip-rule="evenodd" d="M90.9 63.0434L102.435 57.9774C104.456 55.9638 106.408 54.4333 108.289 53.3861C108.852 53.2069 109.814 53.1528 108.788 54.6509C107.762 56.1491 106.751 57.7711 107.16 58.2962C107.57 58.8212 108.757 58.2417 109.227 59.0955C109.539 59.6648 107.538 60.3457 103.223 61.1383L94.5834 67.7621L90.9 63.0434ZM44.2636 64.4387L50.7873 65.7331C44.2267 77.9596 40.7083 84.4396 40.2322 85.1732C39.1611 86.8239 40.1605 89.8489 40.5297 91.442C38.2137 91.9811 39.127 88.4952 36.1962 89.223C33.521 89.8873 31.2528 91.5922 28.7584 89.2929C28.4517 89.0102 28.2272 88.1266 29.2728 87.6735C31.8778 86.5444 35.7266 84.4302 36.3506 83.6094C37.2017 82.4901 39.8393 76.0999 44.2636 64.4387Z" fill="#B28B67"/>
<path fill-rule="evenodd" clip-rule="evenodd" d="M68.5182 40.0311L71.271 39.5589C77.267 45.3753 79.7139 59.349 83.7097 61.1987C87.4877 62.9474 92.8432 61.2552 99.2091 58.9702L101.159 63.3259C95.3746 69.5835 83.0524 74.8702 78.0577 71.8521C70.0722 67.0269 68.2287 49.7924 68.5182 40.0311Z" fill="#DB2721"/>
<path fill-rule="evenodd" clip-rule="evenodd" d="M56.5176 74.6261C67.5555 74.6261 75.6748 74.6261 80.8754 74.6261C81.9884 74.6261 81.7787 73.0189 81.6178 72.2079C79.7609 62.8481 72.5121 52.7588 72.5121 39.4354L65.4862 38.3336C59.6749 47.68 57.6652 59.1873 56.5176 74.6261Z" fill="#DDE3E9"/>
<path fill-rule="evenodd" clip-rule="evenodd" d="M54.0888 65.1497C49.1233 74.1065 44.9496 80.555 41.5675 84.4951L36.4619 83.4951C39.7507 63.0987 49.2746 48.0448 65.0337 38.3336H66.3018L67.8155 38.3336C74.123 59.8343 75.8618 74.1603 73.0321 81.3115H51.1062C51.4531 76.0789 52.5654 70.5452 54.0888 65.1497H54.0888Z" fill="#FF4133"/>
</svg>
