<svg width="137" height="158" viewBox="0 0 137 158" fill="none" xmlns="http://www.w3.org/2000/svg">
<path fill-rule="evenodd" clip-rule="evenodd" d="M65.5109 27.2106C63.9681 25.3997 62.924 23.1804 63.0984 20.6936C63.6012 13.5286 73.5752 15.1048 75.5154 18.7211C77.4555 22.3374 77.225 31.5105 74.7175 32.1568C73.7175 32.4146 71.5873 31.7832 69.4192 30.4763L70.78 40.104H62.7446L65.5109 27.2106Z" fill="#57331F"/>
<path fill-rule="evenodd" clip-rule="evenodd" d="M69.821 21.4849C70.1286 25.7695 70.9422 27.9118 72.2619 27.9118C74.2416 27.9118 75.9212 26.6551 76.7898 26.6551C77.423 26.6551 77.2816 27.4475 76.8619 28.035C76.5156 28.5197 74.8293 28.9869 74.8293 29.7383C74.8293 30.4898 76.1616 29.9084 76.1616 30.3541C76.1616 31.0913 76.3958 32.4774 75.1163 32.4774C73.8214 32.4774 70.1088 32.0055 69.4725 30.0837C69.0619 28.8434 68.7964 26.2732 68.676 22.3733C68.5975 22.3639 68.5175 22.3591 68.4365 22.3591C67.327 22.3591 66.4276 23.2585 66.4276 24.368C66.4276 24.9312 66.6594 25.4403 67.0328 25.8051C66.568 26.4611 66.047 27.1465 65.4501 27.8537C63.2076 26.5083 61.5435 22.5697 63.7359 18.7861C64.3419 16.9326 65.7138 15.9426 67.3341 15.4829C68.6465 14.9339 70.009 14.872 71.1592 15.2011C73.4137 15.3945 75.427 16.082 75.9975 16.4903C75.9975 18.6247 75.5839 19.258 72.0513 19.2022C71.1833 19.6606 70.516 20.45 69.821 21.4849Z" fill="#191847"/>
<path fill-rule="evenodd" clip-rule="evenodd" d="M62.1001 67.8103L78.5331 109.403L89.5547 144.565H93.9069L77.0572 67.8103L62.1001 67.8103Z" fill="#3D2216"/>
<path fill-rule="evenodd" clip-rule="evenodd" d="M58.7911 67.8103C58.6161 82.4261 56.0642 102.104 55.6565 103.015C55.3847 103.622 46.0013 111.346 27.5063 126.187L30.504 129.395C52.3263 116.671 63.7423 109.46 64.7522 107.763C66.2669 105.218 71.1984 81.793 75.1577 67.8103H58.7911Z" fill="#57331F"/>
<path fill-rule="evenodd" clip-rule="evenodd" d="M27.1051 125.116C26.0984 125.472 25.4049 125.809 25.0246 126.128C24.5621 126.516 23.9518 127.16 23.1938 128.058C23.644 128.595 27.6901 133.417 35.3321 142.524C36.8903 141.857 37.3792 141.077 36.7987 140.184C36.2181 139.291 35.7431 138.543 35.3734 137.941L32.7291 128.702C32.6782 128.524 32.4928 128.421 32.315 128.472C32.312 128.473 32.309 128.474 32.306 128.475L30.8949 128.922C29.916 128.466 29.2298 128.004 28.8365 127.535C28.5169 127.154 28.2294 126.499 27.9739 125.57L27.9739 125.57C27.8759 125.213 27.5073 125.004 27.1507 125.102C27.1354 125.106 27.1202 125.111 27.1051 125.116Z" fill="#E4E4E4"/>
<path fill-rule="evenodd" clip-rule="evenodd" d="M87.7723 142.942C87.3977 143.942 87.2104 144.69 87.2104 145.187C87.2104 145.79 87.311 146.671 87.5122 147.83C88.2126 147.83 94.5072 147.83 106.396 147.83C106.887 146.207 106.603 145.331 105.546 145.202C104.489 145.073 103.611 144.956 102.911 144.852L94.1343 140.939C93.9654 140.864 93.7675 140.939 93.6922 141.108C93.6909 141.111 93.6896 141.114 93.6884 141.117L93.1242 142.486C92.1455 142.942 91.3501 143.171 90.7382 143.171C90.241 143.171 89.5544 142.97 88.6784 142.568L88.6784 142.568C88.3422 142.414 87.9448 142.562 87.7907 142.898C87.784 142.912 87.7779 142.927 87.7723 142.942Z" fill="#E4E4E4"/>
<path fill-rule="evenodd" clip-rule="evenodd" d="M73.1489 140.944L93.8416 138.698L78.5058 67.8103H59.9722L73.1489 140.944Z" fill="#69A1AC"/>
<path fill-rule="evenodd" clip-rule="evenodd" d="M31.7861 121.012L45.3593 137.078C59.6556 121.463 67.9904 111.275 70.3637 106.513C72.7369 101.751 74.8704 88.8497 76.764 67.8103H55.8985C54.8641 86.3198 54.1668 96.0053 53.8067 96.8666C53.4466 97.728 46.1064 105.776 31.7861 121.012Z" fill="#89C5CC"/>
<path fill-rule="evenodd" clip-rule="evenodd" d="M91.3869 63.6584L100.871 72.9109C103.631 74.088 105.892 75.3878 107.655 76.8102C108.051 77.2884 108.483 78.2045 106.618 77.7945C104.753 77.3846 102.773 77.0372 102.422 77.6437C102.072 78.2502 103.104 79.1796 102.457 79.9734C102.025 80.5025 100.572 78.8194 98.0993 74.9238L88.2368 69.1091L91.3869 63.6584ZM45.0081 55.2846L52.3395 55.3122C46.7557 73.4031 43.7916 82.8753 43.4472 83.7286C42.6725 85.6486 44.3119 88.5727 45.013 90.1441C42.7296 91.1658 42.9729 87.3818 40.0925 88.7219C37.4633 89.9451 35.4633 92.1614 32.4257 90.2871C32.0522 90.0567 31.643 89.1891 32.6318 88.5111C35.0952 86.8219 38.6452 83.8656 39.1249 82.8925C39.779 81.5655 41.74 72.3629 45.0081 55.2846Z" fill="#57331F"/>
<path fill-rule="evenodd" clip-rule="evenodd" d="M67.348 34.4871L70.2431 33.9905C74.8038 50.1122 98.2366 61.1014 99.6751 67.1281C100.203 69.3382 98.612 70.4554 99.4337 71.1286L95.6706 73.8834C95.0333 73.1399 93.6734 74.4999 90.8336 73.5486C87.9937 72.5972 67.348 53.5765 67.348 34.4871Z" fill="#191847"/>
<path fill-rule="evenodd" clip-rule="evenodd" d="M72.218 36.6304C71.8843 57.9743 84.2227 63.4188 81.4744 71.9811C79.2049 79.0517 57.482 86.6525 53.723 79.7217C52.2014 76.9162 51.511 73.5231 51.4327 69.8341C50.472 72.6682 49.7121 75.108 49.1532 77.1536C48.189 80.6825 44.4509 81.2434 44.4509 82.6029L39.526 81.2434C39.86 79.3966 37.5383 78.4972 38.1608 74.3712C40.95 55.8839 48.4442 42.4831 60.6433 34.1686L60.7695 32.3638C60.8211 31.626 61.461 31.0697 62.1989 31.1213L71.2167 31.7519C71.9545 31.8034 72.5108 32.4434 72.4592 33.1812L72.218 36.6304Z" fill="#2F3676"/>
</svg>
