<svg width="137" height="158" viewBox="0 0 137 158" fill="none" xmlns="http://www.w3.org/2000/svg">
<rect x="0.5" y="0.5" width="136" height="157" rx="9.5" fill="white" stroke="black"/>
<path fill-rule="evenodd" clip-rule="evenodd" d="M67.5109 25.2106C65.9681 23.3997 64.924 21.1804 65.0984 18.6936C65.6012 11.5286 75.5752 13.1048 77.5154 16.7211C79.4555 20.3374 79.225 29.5105 76.7175 30.1568C75.7175 30.4146 73.5873 29.7832 71.4192 28.4763L72.78 38.104H64.7446L67.5109 25.2106Z" fill="#57331F"/>
<path fill-rule="evenodd" clip-rule="evenodd" d="M71.821 19.4849C72.1286 23.7695 72.9422 25.9118 74.2619 25.9118C76.2416 25.9118 77.9212 24.6551 78.7898 24.6551C79.423 24.6551 79.2816 25.4475 78.8619 26.035C78.5156 26.5197 76.8293 26.9869 76.8293 27.7383C76.8293 28.4898 78.1616 27.9084 78.1616 28.3541C78.1616 29.0913 78.3958 30.4774 77.1163 30.4774C75.8214 30.4774 72.1088 30.0055 71.4725 28.0837C71.0619 26.8434 70.7964 24.2732 70.676 20.3733C70.5975 20.3639 70.5175 20.3591 70.4365 20.3591C69.327 20.3591 68.4276 21.2585 68.4276 22.368C68.4276 22.9312 68.6594 23.4403 69.0328 23.8051C68.568 24.4611 68.047 25.1465 67.4501 25.8537C65.2076 24.5083 63.5435 20.5697 65.7359 16.7861C66.3419 14.9326 67.7138 13.9426 69.3341 13.4829C70.6465 12.9339 72.009 12.872 73.1592 13.2011C75.4137 13.3945 77.427 14.082 77.9975 14.4903C77.9975 16.6247 77.5839 17.258 74.0513 17.2022C73.1833 17.6606 72.516 18.45 71.821 19.4849Z" fill="#191847"/>
<path fill-rule="evenodd" clip-rule="evenodd" d="M64.1001 65.8104L80.5331 107.403L91.5547 142.565H95.9069L79.0572 65.8104L64.1001 65.8104Z" fill="#3D2216"/>
<path fill-rule="evenodd" clip-rule="evenodd" d="M60.7911 65.8104C60.6161 80.4262 58.0642 100.104 57.6565 101.015C57.3847 101.622 48.0013 109.346 29.5063 124.187L32.504 127.395C54.3263 114.671 65.7423 107.46 66.7522 105.763C68.2669 103.218 73.1984 79.793 77.1577 65.8104H60.7911Z" fill="#57331F"/>
<path fill-rule="evenodd" clip-rule="evenodd" d="M29.1051 123.116C28.0984 123.472 27.4049 123.809 27.0246 124.128C26.5621 124.516 25.9518 125.16 25.1938 126.058C25.644 126.595 29.6901 131.417 37.3321 140.524C38.8903 139.857 39.3792 139.077 38.7987 138.184C38.2181 137.291 37.7431 136.543 37.3734 135.941L34.7291 126.702C34.6782 126.524 34.4928 126.421 34.315 126.472C34.312 126.473 34.309 126.474 34.306 126.475L32.8949 126.923C31.916 126.466 31.2298 126.004 30.8365 125.535C30.5169 125.154 30.2294 124.499 29.9739 123.57L29.9739 123.57C29.8759 123.213 29.5073 123.004 29.1507 123.102C29.1354 123.106 29.1202 123.111 29.1051 123.116Z" fill="#E4E4E4"/>
<path fill-rule="evenodd" clip-rule="evenodd" d="M89.7723 140.942C89.3977 141.942 89.2104 142.69 89.2104 143.187C89.2104 143.79 89.311 144.671 89.5122 145.83C90.2126 145.83 96.5072 145.83 108.396 145.83C108.887 144.207 108.603 143.332 107.546 143.202C106.489 143.073 105.611 142.956 104.911 142.852L96.1343 138.939C95.9654 138.864 95.7675 138.939 95.6922 139.108C95.6909 139.111 95.6896 139.114 95.6884 139.117L95.1242 140.486C94.1455 140.942 93.3501 141.171 92.7382 141.171C92.241 141.171 91.5544 140.97 90.6784 140.568L90.6784 140.568C90.3422 140.414 89.9448 140.562 89.7907 140.898C89.784 140.912 89.7779 140.927 89.7723 140.942Z" fill="#E4E4E4"/>
<path fill-rule="evenodd" clip-rule="evenodd" d="M75.1489 138.944L95.8416 136.698L80.5058 65.8104H61.9722L75.1489 138.944Z" fill="#69A1AC"/>
<path fill-rule="evenodd" clip-rule="evenodd" d="M33.7861 119.012L47.3593 135.078C61.6556 119.463 69.9904 109.275 72.3637 104.513C74.7369 99.7506 76.8704 86.8497 78.764 65.8104H57.8985C56.8641 84.3199 56.1668 94.0053 55.8067 94.8667C55.4466 95.728 48.1064 103.776 33.7861 119.012Z" fill="#89C5CC"/>
<path fill-rule="evenodd" clip-rule="evenodd" d="M93.3869 61.6584L102.871 70.9108C105.631 72.088 107.892 73.3877 109.655 74.8102C110.051 75.2883 110.483 76.2044 108.618 75.7945C106.753 75.3845 104.773 75.0372 104.422 75.6437C104.072 76.2502 105.104 77.1796 104.457 77.9733C104.025 78.5025 102.572 76.8193 100.099 72.9238L90.2368 67.1091L93.3869 61.6584ZM47.0081 53.2846L54.3395 53.3121C48.7557 71.4031 45.7916 80.8753 45.4472 81.7286C44.6725 83.6486 46.3119 86.5727 47.013 88.144C44.7296 89.1658 44.9729 85.3818 42.0925 86.7219C39.4633 87.9451 37.4633 90.1614 34.4257 88.2871C34.0522 88.0567 33.643 87.189 34.6318 86.511C37.0952 84.8219 40.6452 81.8656 41.1249 80.8925C41.779 79.5655 43.74 70.3629 47.0081 53.2846Z" fill="#57331F"/>
<path fill-rule="evenodd" clip-rule="evenodd" d="M69.348 32.4871L72.2431 31.9905C76.8038 48.1122 100.237 59.1013 101.675 65.128C102.203 67.3382 100.612 68.4554 101.434 69.1286L97.6706 71.8833C97.0333 71.1398 95.6734 72.4999 92.8336 71.5485C89.9937 70.5972 69.348 51.5765 69.348 32.4871Z" fill="#191847"/>
<path fill-rule="evenodd" clip-rule="evenodd" d="M74.218 34.6304C73.8843 55.9743 86.2227 61.4187 83.4744 69.981C81.2049 77.0516 59.482 84.6525 55.723 77.7217C54.2014 74.9161 53.511 71.523 53.4327 67.834C52.472 70.6682 51.7121 73.108 51.1532 75.1536C50.189 78.6825 46.4509 79.2434 46.4509 80.6029L41.526 79.2434C41.86 77.3965 39.5383 76.4972 40.1608 72.3711C42.95 53.8839 50.4442 40.483 62.6433 32.1686L62.7695 30.3638C62.8211 29.626 63.461 29.0696 64.1989 29.1212L73.2167 29.7518C73.9545 29.8034 74.5108 30.4434 74.4592 31.1812L74.218 34.6304Z" fill="#2F3676"/>
</svg>
