<svg width="137" height="158" viewBox="0 0 137 158" fill="none" xmlns="http://www.w3.org/2000/svg">
<rect width="137" height="158" rx="10" fill="white"/>
<path fill-rule="evenodd" clip-rule="evenodd" d="M68.5314 24.2493C66.9837 22.4327 65.9363 20.2063 66.1113 17.7117C66.6156 10.5239 76.6213 12.1051 78.5676 15.7329C80.5139 19.3607 80.2826 28.5629 77.7672 29.2112C76.7641 29.4698 74.627 28.8364 72.4521 27.5255L73.8173 37.1837H65.7563L68.5314 24.2493Z" fill="#B28B67"/>
<path fill-rule="evenodd" clip-rule="evenodd" d="M72.8553 18.5055C73.1639 22.8037 73.9801 24.9528 75.304 24.9528C77.2899 24.9528 78.9748 23.6921 79.8462 23.6921C80.4814 23.6921 80.3396 24.487 79.9186 25.0763C79.5712 25.5626 77.8795 26.0313 77.8795 26.7851C77.8795 27.539 79.2161 26.9558 79.2161 27.4028C79.2161 28.1424 79.451 29.5329 78.1674 29.5329C76.8684 29.5329 73.144 29.0595 72.5057 27.1315C72.0938 25.8873 71.8274 23.309 71.7067 19.3967C71.6279 19.3873 71.5477 19.3825 71.4664 19.3825C70.3534 19.3825 69.4511 20.2847 69.4511 21.3977C69.4511 21.9627 69.6837 22.4734 70.0582 22.8394C69.5919 23.4975 69.0694 24.1851 68.4705 24.8945C66.2209 23.5448 64.5515 19.5937 66.7509 15.7982C67.3588 13.9388 68.7351 12.9456 70.3605 12.4844C71.6771 11.9337 73.0439 11.8716 74.1977 12.2018C76.4594 12.3957 78.479 13.0854 79.0514 13.495C79.0514 15.6362 78.6365 16.2715 75.0927 16.2155C74.2219 16.6754 73.5525 17.4673 72.8553 18.5055Z" fill="#191847"/>
<path fill-rule="evenodd" clip-rule="evenodd" d="M63.0713 65.061L75.2483 107.793L84.1328 139.289H90.6127L81.1717 65.061H63.0713Z" fill="#191847"/>
<path fill-rule="evenodd" clip-rule="evenodd" d="M59.8151 65.061C59.5335 87.0855 58.573 99.0983 58.2773 101.099C57.9816 103.1 53.5101 115.83 44.8628 139.289H51.5756C62.5843 116.784 68.7296 104.054 70.0115 101.099C71.2935 98.1442 75.2498 86.1314 81.2087 65.061H59.8151Z" fill="#2F3676"/>
<path fill-rule="evenodd" clip-rule="evenodd" d="M44.2622 145.334L44.5981 138.281H51.6514C54.9959 140.632 59.3622 142.535 64.7504 143.991V145.334H51.9872L47.6209 144.663V145.334H44.2622Z" fill="#191847"/>
<path fill-rule="evenodd" clip-rule="evenodd" d="M83.2246 145.334L83.5605 138.281H90.6138C93.9583 140.632 98.3246 142.535 103.713 143.991V145.334H90.9497L86.5833 144.663V145.334H83.2246Z" fill="#191847"/>
<path fill-rule="evenodd" clip-rule="evenodd" d="M91.4032 59.5561L101.542 68.1516C104.386 69.1364 106.74 70.2789 108.603 71.5791C109.033 72.0298 109.529 72.9164 107.634 72.6367C105.739 72.3569 103.733 72.1479 103.425 72.7794C103.117 73.4109 104.215 74.2686 103.623 75.1083C103.227 75.6681 101.656 74.0853 98.9088 70.36L88.6322 65.2312L91.4032 59.5561ZM45.4923 55.8366L51.4412 56.7005C45.0556 70.5551 41.6322 77.8821 41.171 78.6818C40.1333 80.4809 41.3537 83.6146 41.8308 85.2735C39.4198 85.9698 40.1898 82.2447 37.1412 83.1738C34.3586 84.0218 32.0624 85.9443 29.3064 83.6583C28.9676 83.3772 28.6822 82.4582 29.7591 81.9227C32.4422 80.5886 36.3815 78.1474 36.9939 77.2477C37.8289 76.0208 40.6617 68.8837 45.4923 55.8366Z" fill="#B28B67"/>
<path fill-rule="evenodd" clip-rule="evenodd" d="M70.3564 31.5854L74.0426 30.3664C79.0429 42.8575 86.5002 54.9433 98.9599 65.1518L95.8788 70.4675C84.9285 64.017 74.5627 59.0062 70.3564 49.327C68.9447 46.0784 70.2412 35.4697 70.3564 31.5854Z" fill="#C5CFD6"/>
<path fill-rule="evenodd" clip-rule="evenodd" d="M57.6943 66.7403C68.2536 67.8599 76.5648 67.8599 82.6282 66.7403C83.3794 66.6016 83.4979 65.3439 83.1495 64.4903C77.7245 51.1977 74.0044 39.5991 74.0044 30.3663C73.0089 30.8682 71.2668 30.9434 68.7781 30.592C62.0896 40.1066 59.0152 51.0236 57.6943 66.7403Z" fill="#323337"/>
<path fill-rule="evenodd" clip-rule="evenodd" d="M67.1175 29.7945H69.9049C70.5539 33.6116 72.601 85.3014 78.9204 102.21H44.7269C45.4682 86.7204 51.3159 68.1131 57.2396 52.5425C52.0016 57.3357 47.4362 65.4576 43.5435 76.908L37.1387 75.2639C41.9009 54.7434 51.6919 39.6606 66.5119 30.0158C66.544 29.9417 66.5759 29.8679 66.6077 29.7945H66.8544C66.9451 29.7362 67.0361 29.6781 67.1273 29.6203L67.1175 29.7945V29.7945Z" fill="#DDE3E9"/>
</svg>
