<svg width="137" height="158" viewBox="0 0 137 158" fill="none" xmlns="http://www.w3.org/2000/svg">
<rect width="137" height="158" rx="10" fill="white"/>
<path fill-rule="evenodd" clip-rule="evenodd" d="M66.4013 33.8225C64.9861 32.1613 64.0283 30.1255 64.1883 27.8443C64.6495 21.2717 73.7989 22.7176 75.5786 26.0349C77.3583 29.3522 77.1469 37.7668 74.8467 38.3597C73.9294 38.5962 71.9753 38.017 69.9865 36.8182L71.2348 45.6499H63.8638L66.4013 33.8225Z" fill="#B28B67"/>
<mask id="mask0" mask-type="alpha" maskUnits="userSpaceOnUse" x="56" y="21" width="20" height="17">
<path d="M75.097 24.7486C75.0324 24.3478 75.1603 24.151 73.5486 23.0218C71.937 21.8925 69.3349 20.5607 66.7141 21.1403C63.313 21.8925 61.9621 24.136 60.6505 25.2267C59.4682 26.21 58.2819 26.3247 57.5788 27.5447C56.8758 28.7648 56.5018 32.2749 57.1131 33.6704C57.9564 35.5954 59.6194 36.1139 60.8333 36.6685C62.9153 37.6196 65.8581 36.6151 65.9294 36.4487C66.4809 35.1614 69.4492 31.5303 71.2345 30.0047C72.5474 28.8829 75.4001 26.6299 75.097 24.7486Z" fill="white"/>
</mask>
<g mask="url(#mask0)">
<path d="M75.097 24.7486C75.0324 24.3478 75.1603 24.151 73.5486 23.0218C71.937 21.8925 69.3349 20.5607 66.7141 21.1403C63.313 21.8925 61.9621 24.136 60.6505 25.2267C59.4682 26.21 58.2819 26.3247 57.5788 27.5447C56.8758 28.7648 56.5018 32.2749 57.1131 33.6704C57.9564 35.5954 59.6194 36.1139 60.8333 36.6685C62.9153 37.6196 65.8581 36.6151 65.9294 36.4487C66.4809 35.1614 69.4492 31.5303 71.2345 30.0047C72.5474 28.8829 75.4001 26.6299 75.097 24.7486Z" fill="#5C63AB"/>
<path fill-rule="evenodd" clip-rule="evenodd" d="M60.6257 24.4581C61.1786 27.9531 62.6299 31.1496 64.9797 34.0476C62.2397 31.9216 60.4345 28.949 59.564 25.1297L60.6257 24.4581ZM59.2563 25.7917C60.1632 29.5467 62.518 33.0948 66.3207 36.4361C61.9206 33.7801 59.1565 30.3527 58.0283 26.1538L59.2563 25.7917Z" fill="black" fill-opacity="0.2"/>
</g>
<path fill-rule="evenodd" clip-rule="evenodd" d="M62.0244 71.1484L84.8459 109.302L101.955 141.557H105.641L76.9734 71.1484L62.0244 71.1484Z" fill="#997659"/>
<path fill-rule="evenodd" clip-rule="evenodd" d="M99.7019 140.068C99.3583 140.985 99.1865 141.672 99.1865 142.127C99.1865 142.681 99.2788 143.489 99.4633 144.552C100.106 144.552 105.88 144.552 116.786 144.552C117.236 143.063 116.976 142.26 116.006 142.141C115.036 142.023 114.231 141.916 113.589 141.82L105.538 138.231C105.383 138.162 105.201 138.231 105.132 138.386C105.131 138.389 105.13 138.391 105.129 138.394L104.611 139.649C103.714 140.068 102.984 140.278 102.423 140.278C101.967 140.278 101.337 140.094 100.533 139.725L100.533 139.725C100.225 139.584 99.8601 139.719 99.7188 140.028C99.7127 140.041 99.7071 140.054 99.7019 140.068Z" fill="#E4E4E4"/>
<path fill-rule="evenodd" clip-rule="evenodd" d="M97.2035 136.392L104.31 134.242C101.197 124.934 97.3804 114.69 92.8615 103.512C88.3426 92.3329 83.4894 81.5452 78.302 71.1484H58.2295C63.9967 84.2999 70.1108 96.2497 76.5717 106.998C83.0325 117.746 89.9098 127.544 97.2035 136.392Z" fill="#DB2721"/>
<path fill-rule="evenodd" clip-rule="evenodd" d="M60.5242 71.1484C58.3703 84.5558 54.216 101.685 53.8239 102.214C53.5625 102.566 44.1531 105.719 25.5957 111.673L26.3918 114.922C48.5215 111.73 60.1819 109.252 61.3731 107.491C63.16 104.849 72.0819 83.975 75.5376 71.1484H60.5242Z" fill="#B28B67"/>
<path fill-rule="evenodd" clip-rule="evenodd" d="M32.1196 108.864L33.5218 114.098C50.0735 115.549 60.2151 114.5 63.9466 110.951C67.6781 107.401 71.9309 94.1337 76.705 71.1484H57.5646C54.5399 89.9703 52.8488 99.7763 52.4915 100.566C52.1342 101.357 45.3436 104.122 32.1196 108.864Z" fill="#FF4133"/>
<path fill-rule="evenodd" clip-rule="evenodd" d="M26.505 110.319C25.5421 110.14 24.8364 110.09 24.3879 110.169C23.8425 110.265 23.0626 110.496 22.0483 110.862C22.1598 111.495 23.1625 117.182 25.0563 127.922C26.6 128.107 27.3461 127.711 27.2946 126.736C27.243 125.76 27.2086 124.948 27.1914 124.299L29.3281 115.747C29.3692 115.583 29.2691 115.416 29.1046 115.375C29.1017 115.374 29.0989 115.373 29.0961 115.373L27.7699 115.081C27.2014 114.27 26.8685 113.588 26.771 113.035C26.6918 112.586 26.7638 111.933 26.9871 111.078L26.9871 111.078C27.0727 110.75 26.8761 110.414 26.5478 110.328C26.5337 110.325 26.5194 110.322 26.505 110.319Z" fill="#E4E4E4"/>
<path fill-rule="evenodd" clip-rule="evenodd" d="M62.9735 39.5985C63.0452 39.3651 63.118 39.131 63.1919 38.8962L63.4646 39.0245C63.5072 38.9806 63.55 38.9378 63.5932 38.8962L72.1899 40.2254C72.1899 45.0598 76.0364 49.5831 78.4697 53.4749C82.2524 59.5247 88.9833 66.2303 84.6677 75.2181C80.7792 83.3165 70.6503 84.6316 54.2812 79.1635C54.2812 74.8015 57.8664 70.4164 57.9807 65.1127C58.0894 60.0637 59.0335 44.7661 62.9735 39.5985Z" fill="#C1DEE2"/>
<path fill-rule="evenodd" clip-rule="evenodd" d="M73.6523 72.9219C74.2272 69.9549 74.6002 67.9742 74.7712 66.9796C79.3511 72.1549 81.9969 74.7726 82.7087 74.8327C84.0473 74.9456 85.0364 73.7585 85.3181 74.0922C85.7836 75.4743 84.4688 78.9338 81.9556 79.4369C80.7555 79.6771 78.8984 77.2023 78.1332 76.3254C77.8322 75.9805 76.3386 74.846 73.6523 72.9219ZM81.5634 57.1033C82.7506 57.1033 83.3883 57.5942 84.0903 58.5844C84.7922 59.5747 85.4565 64.2449 84.3295 64.2449C83.2024 64.2449 78.4805 62.4395 78.4805 61.2258C78.4805 60.0121 81.7025 59.4981 81.7025 58.5844C81.7025 57.6707 80.3762 57.1033 81.5634 57.1033Z" fill="#B28B67"/>
<path fill-rule="evenodd" clip-rule="evenodd" d="M71.2554 77.4367C71.1848 77.6892 71.1129 77.9464 71.0397 78.2084C57.5888 68.8074 57.5823 57.4148 61.5827 44.6451C58.5675 57.2165 59.7959 67.8193 71.2554 77.4367Z" fill="black" fill-opacity="0.2"/>
</svg>
