<svg width="137" height="158" viewBox="0 0 137 158" fill="none" xmlns="http://www.w3.org/2000/svg">
<rect x="0.5" y="0.5" width="136" height="157" rx="9.5" fill="white" stroke="black"/>
<path fill-rule="evenodd" clip-rule="evenodd" d="M60.6652 37.9608C59.0195 36.0291 57.9057 33.6617 58.0918 31.0091C58.628 23.3661 69.2674 25.0474 71.337 28.905C73.4066 32.7625 73.1606 42.5475 70.4859 43.2369C69.4192 43.5119 67.1469 42.8384 64.8341 41.4444L66.2858 51.7143H57.7144L60.6652 37.9608Z" fill="#B28B67"/>
<path fill-rule="evenodd" clip-rule="evenodd" d="M67.9511 24.7036C66.7799 24.3464 65.0797 24.2253 64.3644 24.3072C64.7713 23.3324 64.9327 22.2464 64.8011 21.189C64.6732 20.1615 64.2141 19.2866 63.7894 18.3698C63.5937 17.9472 63.3719 17.5269 63.0412 17.2037C62.7043 16.8744 62.2778 16.657 61.8307 16.5533C61.373 16.4472 60.8945 16.456 60.4362 16.5524C60.2334 16.595 60.0515 16.6877 59.8527 16.7392C59.649 16.792 59.5502 16.6646 59.4024 16.5365C59.0462 16.2278 58.5241 16.0755 58.0734 16.021C57.5679 15.9598 57.0432 16.0361 56.5611 16.2023C56.0917 16.3641 55.6409 16.6268 55.3015 17.0096C55.1505 17.18 55.0133 17.3739 54.9242 17.588C54.8876 17.6759 54.8816 17.7279 54.7939 17.7601C54.7128 17.7899 54.618 17.7908 54.5343 17.8191C53.7251 18.0932 53.0332 18.7185 52.6565 19.5213C52.4367 19.9896 52.3325 20.8142 52.3611 21.7385C52.3896 22.6627 53.2241 25.0743 54.0047 25.954C54.7014 26.7391 55.7255 27.2572 56.7138 27.484C56.0578 28.2339 55.6211 29.1709 55.2982 30.1238C54.9475 31.1589 54.7304 32.2345 54.6502 33.3304C54.5741 34.3716 54.567 35.4727 54.8111 36.4917C55.0395 37.4446 55.5278 38.2263 56.343 38.7223C56.7164 38.9494 57.1182 39.1201 57.5223 39.2761C57.9205 39.4298 58.32 39.5792 58.7371 39.6655C59.5266 39.8287 60.4363 39.8007 61.0445 39.1722C61.2637 38.9457 61.5048 38.661 61.6647 38.3843C61.7222 38.2847 61.7568 38.2196 61.687 38.1224C61.6033 38.0058 61.4679 37.9166 61.3604 37.8254C60.7474 37.3057 60.3679 36.612 60.2722 35.7875C60.1752 34.9509 60.3999 33.8712 61.2132 33.5061C62.2172 33.0554 63.3228 33.5727 64.2152 34.0549C64.5944 32.7164 65.3731 31.5112 66.5939 30.8973C67.9446 30.218 69.4944 30.1385 70.8824 29.5558C71.2441 29.4039 71.6125 29.2315 71.8788 28.9221C71.9901 28.7927 72.1206 28.625 72.1651 28.4539C72.2234 28.2293 72.0785 28.0409 71.9666 27.8657C71.3731 26.937 69.1223 25.0607 67.9511 24.7036Z" fill="#191847"/>
<path fill-rule="evenodd" clip-rule="evenodd" d="M100.173 87.8199C102.737 84.3422 109.147 86.6444 109.143 89.5234C109.133 97.0825 102.235 132.969 101.874 135.234C101.514 137.5 97.6559 138.241 97.4313 135.41C97.0738 130.906 96.4096 115.29 97.0741 108.026C97.2682 105.904 97.4729 103.853 97.6791 101.931C94.0536 108.444 88.5407 117.65 81.1404 129.548L77.0273 127.669C80.2572 117.027 82.9056 109.515 84.9726 105.131C88.5119 97.6249 91.8305 91.197 93.2272 88.9329C95.0721 85.9421 98.0645 86.3391 100.173 87.8199Z" fill="#B28B67"/>
<path fill-rule="evenodd" clip-rule="evenodd" d="M77.3215 121.759L91.4385 88.3169C94.8204 82.8767 104.302 89.4239 103.149 92.5792C100.531 99.7426 87.2144 122.934 86.4343 125.068L77.3215 121.759Z" fill="#1F28CF"/>
<path fill-rule="evenodd" clip-rule="evenodd" d="M109.5 92.1345C109.5 101.613 105.345 123.895 105.342 125.982L95.2769 125.643C97.0363 106.27 97.7783 96.5186 97.5028 96.3873C96.8829 96.0919 72.0933 99.8183 64.6585 100.1C53.9375 100.505 49.5025 93.9281 49.1426 81.4466H69.9096C87.6672 83.5663 99.3383 85.0406 104.923 85.8695C108.509 86.4017 109.5 89.5233 109.5 92.1345Z" fill="#2B44FF"/>
<path fill-rule="evenodd" clip-rule="evenodd" d="M76.4707 126.62C75.8249 127.558 75.438 128.284 75.3099 128.798C75.1541 129.423 75.0309 130.361 74.9402 131.612C75.6651 131.792 82.1801 133.417 94.4853 136.485C95.4119 134.932 95.3447 133.953 94.2838 133.546C93.2229 133.139 92.344 132.792 91.647 132.503L83.5724 126.189C83.417 126.067 83.1926 126.094 83.071 126.25C83.069 126.252 83.0669 126.255 83.0649 126.258L82.1278 127.529C80.9969 127.749 80.1148 127.78 79.4815 127.622C78.9669 127.494 78.308 127.109 77.505 126.467L77.505 126.467C77.1968 126.221 76.7473 126.271 76.501 126.579C76.4904 126.592 76.4803 126.606 76.4707 126.62Z" fill="#E4E4E4"/>
<path fill-rule="evenodd" clip-rule="evenodd" d="M96.885 130.072C96.4854 131.139 96.2856 131.937 96.2856 132.466C96.2856 133.11 96.3929 134.05 96.6075 135.286C97.3546 135.286 104.069 135.286 116.751 135.286C117.274 133.555 116.972 132.621 115.845 132.483C114.717 132.345 113.78 132.22 113.034 132.109L103.671 127.935C103.491 127.855 103.28 127.936 103.2 128.116C103.198 128.119 103.197 128.122 103.196 128.125L102.594 129.585C101.55 130.072 100.701 130.316 100.049 130.316C99.5184 130.316 98.786 130.102 97.8515 129.673L97.8515 129.673C97.4929 129.509 97.0689 129.666 96.9046 130.025C96.8975 130.04 96.8909 130.056 96.885 130.072Z" fill="#E4E4E4"/>
<path d="M114.321 135.286H97.8926C97.2022 135.286 96.6426 135.845 96.6426 136.536C96.6426 137.226 97.2022 137.786 97.8926 137.786H114.321C115.012 137.786 115.571 137.226 115.571 136.536C115.571 135.845 115.012 135.286 114.321 135.286Z" fill="#2F3676"/>
<path fill-rule="evenodd" clip-rule="evenodd" d="M48.0709 83.5H86.2852C88.2577 83.5 89.8567 85.099 89.8567 87.0714V104.571H45.9281C45.1391 104.571 44.4995 103.932 44.4995 103.143V87.0714C44.4995 85.099 46.0985 83.5 48.0709 83.5Z" fill="#2F3676"/>
<path fill-rule="evenodd" clip-rule="evenodd" d="M86.2856 83.5H87.0691C88.8182 83.5 90.31 84.7668 90.5933 86.4928L98.4285 134.214H94.6122" fill="#2F3676"/>
<path d="M96.6429 141.357C100.193 141.357 103.071 138.479 103.071 134.929C103.071 131.378 100.193 128.5 96.6429 128.5C93.0925 128.5 90.2144 131.378 90.2144 134.929C90.2144 138.479 93.0925 141.357 96.6429 141.357Z" fill="#191847"/>
<path fill-rule="evenodd" clip-rule="evenodd" d="M49.1429 140.643C34.1523 140.643 22 128.491 22 113.5C22 98.5094 34.1523 86.3571 49.1429 86.3571C64.1334 86.3571 76.2857 98.5094 76.2857 113.5C76.2857 128.491 64.1334 140.643 49.1429 140.643ZM49.1429 135.643C61.372 135.643 71.2857 125.729 71.2857 113.5C71.2857 101.271 61.372 91.3571 49.1429 91.3571C36.9137 91.3571 27 101.271 27 113.5C27 125.729 36.9137 135.643 49.1429 135.643Z" fill="#191847"/>
<path d="M50.571 89.9286H47.7139V137.071H50.571V89.9286Z" fill="#191847"/>
<path d="M66.3155 97.3376L65.3054 96.3274C65.0264 96.0485 64.5742 96.0485 64.2952 96.3274L31.9703 128.652C31.6914 128.931 31.6914 129.383 31.9703 129.662L32.9805 130.673C33.2594 130.952 33.7117 130.952 33.9906 130.673L66.3155 98.3477C66.5945 98.0688 66.5945 97.6165 66.3155 97.3376Z" fill="#191847"/>
<path d="M72.7144 114.214V112.786C72.7144 112.391 72.3946 112.071 72.0001 112.071H26.2858C25.8913 112.071 25.5715 112.391 25.5715 112.786V114.214C25.5715 114.609 25.8913 114.929 26.2858 114.929H72.0001C72.3946 114.929 72.7144 114.609 72.7144 114.214Z" fill="#191847"/>
<path d="M65.3051 130.673L66.3152 129.662C66.5942 129.383 66.5942 128.931 66.3152 128.652L33.9904 96.3274C33.7114 96.0484 33.2591 96.0484 32.9802 96.3274L31.9701 97.3375C31.6911 97.6165 31.6911 98.0687 31.97 98.3477L64.2949 130.673C64.5739 130.952 65.0261 130.952 65.3051 130.673Z" fill="#191847"/>
<path fill-rule="evenodd" clip-rule="evenodd" d="M85.3772 44.6931L98.9142 40.6294C101.44 38.6635 103.822 37.2262 106.06 36.3174C106.711 36.1948 107.789 36.266 106.442 37.7939C105.095 39.3219 103.747 40.9896 104.132 41.6303C104.516 42.271 105.918 41.788 106.323 42.8029C106.593 43.4794 104.272 43.964 99.3587 44.2566L88.8334 50.4509L85.3772 44.6931ZM84.181 68.56L95.5732 76.9256C98.663 77.7593 101.244 78.7967 103.318 80.0376C103.807 80.4838 104.399 81.3874 102.368 81.2313C100.337 81.0751 98.1941 81.0021 97.9139 81.6948C97.6337 82.3875 98.8626 83.2159 98.2962 84.1506C97.9185 84.7737 96.1345 83.2113 92.9439 79.4635L81.6626 74.7854L84.181 68.56Z" fill="#B28B67"/>
<path fill-rule="evenodd" clip-rule="evenodd" d="M66.486 46.031C72.6898 57.5987 81.6608 66.4662 94.6663 75.6842L89.7419 81.2367C75.2207 75.8403 67.5568 72.5844 63.7932 61.6553C62.8486 58.9123 62.1885 50.1682 61.6221 45.5674L66.486 46.031Z" fill="#2026A2"/>
<path fill-rule="evenodd" clip-rule="evenodd" d="M49.1426 84.5714H76.6426C70.4134 65.5733 67.2313 52.5342 67.0962 45.4541C67.0893 45.0932 66.4227 44.4571 66.1278 44.5404C63.971 45.1496 61.663 44.9218 59.2039 43.8571C52.6845 54.3423 50.43 67.2516 49.1426 84.5714Z" fill="#F2F2F2"/>
<path fill-rule="evenodd" clip-rule="evenodd" d="M61.551 43.8741C69.4337 43.9386 82.2229 45.3781 96.9725 40.6429L98.4286 47.9191C87.2811 55.0886 75.9933 60.6425 66.1023 59.8538C70.3974 78.2775 70.1994 93.3593 60.717 93.3593C56.1887 93.3593 51.3011 93.3593 46.054 93.3593C43.7252 77.7085 49.8458 56.0084 55.5201 45.0631C55.7367 44.6451 56.1981 43.8571 57.2847 43.8571C58.2315 43.8571 59.6517 43.8571 61.5453 43.8571C61.5472 43.8628 61.5491 43.8684 61.551 43.8741Z" fill="#1F28CF"/>
</svg>
