<svg width="137" height="158" viewBox="0 0 137 158" fill="none" xmlns="http://www.w3.org/2000/svg">
<rect x="0.5" y="0.5" width="136" height="157" rx="9.5" fill="white" stroke="black"/>
<path fill-rule="evenodd" clip-rule="evenodd" d="M59.6652 34.0251C58.0195 32.0934 56.9057 29.7261 57.0918 27.0734C57.628 19.4304 68.2674 21.1117 70.337 24.9693C72.4066 28.8268 72.1606 38.6118 69.4859 39.3013C68.4192 39.5762 66.1469 38.9027 63.8341 37.5087L65.2858 47.7786H56.7144L59.6652 34.0251Z" fill="#B28B67"/>
<path fill-rule="evenodd" clip-rule="evenodd" d="M64.2628 27.9175C64.5909 32.4879 65.4588 34.7731 66.8666 34.7731C68.9783 34.7731 70.7699 33.4326 71.6965 33.4326C72.3719 33.4326 72.2211 34.2778 71.7734 34.9045C71.404 35.4215 69.6052 35.9199 69.6052 36.7215C69.6052 37.5231 71.0264 36.9029 71.0264 37.3783C71.0264 38.1647 71.2762 39.6433 69.9114 39.6433C68.5301 39.6433 64.5698 39.1399 63.8911 37.0899C63.4531 35.7668 63.1699 33.0252 63.0415 28.8651C62.9577 28.8552 62.8724 28.85 62.7859 28.85C61.6025 28.85 60.6431 29.8094 60.6431 30.9929C60.6431 31.5937 60.8903 32.1367 61.2886 32.5258C60.7928 33.2257 60.2371 33.9568 59.6003 34.7112C57.2082 33.276 55.4331 29.0747 57.7718 25.0387C58.4182 23.0616 59.8816 22.0055 61.61 21.5151C63.01 20.9295 64.4634 20.8634 65.6902 21.2145C68.0952 21.4208 70.2427 22.1542 70.8513 22.5897C70.8513 24.8665 70.4102 25.5421 66.6419 25.4825C65.716 25.9715 65.0042 26.8136 64.2628 27.9175Z" fill="#191847"/>
<path fill-rule="evenodd" clip-rule="evenodd" d="M99.1728 83.8842C101.737 80.4065 108.147 82.7087 108.143 85.5877C108.133 93.1469 101.235 129.033 100.874 131.299C100.514 133.564 96.6559 134.305 96.4313 131.474C96.0738 126.97 95.4096 111.355 96.0741 104.09C96.2682 101.968 96.4729 99.9168 96.6791 97.9953C93.0536 104.508 87.5407 113.714 80.1404 125.612L76.0273 123.733C79.2572 113.091 81.9056 105.579 83.9726 101.195C87.5119 93.6892 90.8305 87.2613 92.2272 84.9972C94.0721 82.0064 97.0645 82.4034 99.1728 83.8842Z" fill="#B28B67"/>
<path fill-rule="evenodd" clip-rule="evenodd" d="M76.3215 117.823L90.4385 84.3812C93.8204 78.941 103.302 85.4882 102.149 88.6435C99.5307 95.8069 86.2144 118.998 85.4343 121.132L76.3215 117.823Z" fill="#1F28CF"/>
<path fill-rule="evenodd" clip-rule="evenodd" d="M108.5 88.1988C108.5 97.6778 104.345 119.959 104.342 122.047L94.2769 121.707C96.0363 102.335 96.7783 92.5829 96.5028 92.4516C95.8829 92.1563 71.0933 95.8826 63.6585 96.164C52.9375 96.5697 48.5025 89.9925 48.1426 77.5109H68.9096C86.6672 79.6306 98.3383 81.1049 103.923 81.9338C107.509 82.466 108.5 85.5876 108.5 88.1988Z" fill="#2B44FF"/>
<path fill-rule="evenodd" clip-rule="evenodd" d="M86.1998 116.01L88.5046 116.584C91.5667 117.348 93.4302 120.449 92.6667 123.511L91.9755 126.284C91.212 129.346 88.1107 131.209 85.0485 130.446L82.7438 129.871C79.6816 129.108 77.8182 126.006 78.5817 122.944L79.2729 120.172C80.0363 117.11 83.1377 115.246 86.1998 116.01ZM83.8122 118.739C83.0467 118.548 82.2714 119.014 82.0805 119.779L80.8765 124.609C80.6856 125.374 81.1514 126.149 81.917 126.34L87.4361 127.716C88.2017 127.907 88.977 127.441 89.1679 126.676L90.3719 121.847C90.5628 121.081 90.0969 120.306 89.3314 120.115L83.8122 118.739Z" fill="#C5CFD6"/>
<path fill-rule="evenodd" clip-rule="evenodd" d="M95.885 126.136C95.4854 127.203 95.2856 128.001 95.2856 128.531C95.2856 129.175 95.3929 130.114 95.6075 131.35C96.3546 131.35 103.069 131.35 115.751 131.35C116.274 129.619 115.972 128.685 114.845 128.547C113.717 128.409 112.78 128.285 112.034 128.173L102.671 124C102.491 123.919 102.28 124 102.2 124.18C102.198 124.183 102.197 124.187 102.196 124.19L101.594 125.65C100.55 126.137 99.7015 126.38 99.0487 126.38C98.5184 126.38 97.786 126.166 96.8515 125.738L96.8515 125.738C96.4929 125.573 96.0689 125.731 95.9046 126.089C95.8975 126.105 95.8909 126.121 95.885 126.136Z" fill="#E4E4E4"/>
<path d="M113.321 131.35H96.8926C96.2022 131.35 95.6426 131.91 95.6426 132.6C95.6426 133.29 96.2022 133.85 96.8926 133.85H113.321C114.012 133.85 114.571 133.29 114.571 132.6C114.571 131.91 114.012 131.35 113.321 131.35Z" fill="#2F3676"/>
<path fill-rule="evenodd" clip-rule="evenodd" d="M47.0709 79.5643H85.2852C87.2577 79.5643 88.8567 81.1633 88.8567 83.1358V100.636H44.9281C44.1391 100.636 43.4995 99.9962 43.4995 99.2072V83.1358C43.4995 81.1633 45.0985 79.5643 47.0709 79.5643Z" fill="#2F3676"/>
<path fill-rule="evenodd" clip-rule="evenodd" d="M85.2856 79.5643H86.0691C87.8182 79.5643 89.31 80.8311 89.5933 82.5571L97.4285 130.279H93.6122" fill="#2F3676"/>
<path d="M95.6429 137.421C99.1933 137.421 102.071 134.543 102.071 130.993C102.071 127.443 99.1933 124.564 95.6429 124.564C92.0925 124.564 89.2144 127.443 89.2144 130.993C89.2144 134.543 92.0925 137.421 95.6429 137.421Z" fill="#191847"/>
<path fill-rule="evenodd" clip-rule="evenodd" d="M48.1429 136.707C33.1523 136.707 21 124.555 21 109.564C21 94.5737 33.1523 82.4215 48.1429 82.4215C63.1334 82.4215 75.2857 94.5737 75.2857 109.564C75.2857 124.555 63.1334 136.707 48.1429 136.707ZM48.1429 131.707C60.372 131.707 70.2857 121.793 70.2857 109.564C70.2857 97.3352 60.372 87.4215 48.1429 87.4215C35.9137 87.4215 26 97.3352 26 109.564C26 121.793 35.9137 131.707 48.1429 131.707Z" fill="#191847"/>
<path d="M49.571 85.9929H46.7139V133.136H49.571V85.9929Z" fill="#191847"/>
<path d="M65.3155 93.4019L64.3054 92.3917C64.0264 92.1128 63.5742 92.1128 63.2952 92.3917L30.9703 124.717C30.6914 124.996 30.6914 125.448 30.9703 125.727L31.9805 126.737C32.2594 127.016 32.7117 127.016 32.9906 126.737L65.3155 94.412C65.5945 94.1331 65.5945 93.6808 65.3155 93.4019Z" fill="#191847"/>
<path d="M71.7144 110.279V108.85C71.7144 108.456 71.3946 108.136 71.0001 108.136H25.2858C24.8913 108.136 24.5715 108.456 24.5715 108.85V110.279C24.5715 110.673 24.8913 110.993 25.2858 110.993H71.0001C71.3946 110.993 71.7144 110.673 71.7144 110.279Z" fill="#191847"/>
<path d="M64.3051 126.737L65.3152 125.727C65.5942 125.448 65.5942 124.996 65.3152 124.717L32.9904 92.3917C32.7114 92.1128 32.2591 92.1128 31.9802 92.3917L30.9701 93.4019C30.6911 93.6808 30.6911 94.1331 30.97 94.412L63.2949 126.737C63.5739 127.016 64.0261 127.016 64.3051 126.737Z" fill="#191847"/>
<path fill-rule="evenodd" clip-rule="evenodd" d="M84.1363 72.8541L95.5286 81.2197C98.6184 82.0535 101.2 83.0908 103.273 84.3317C103.763 84.7779 104.354 85.6815 102.324 85.5254C100.293 85.3692 98.1495 85.2963 97.8692 85.989C97.589 86.6817 98.818 87.51 98.2515 88.4447C97.8739 89.0678 96.0898 87.5054 92.8993 83.7576L81.618 79.0795L84.1363 72.8541ZM40.3959 73.1429L47.8592 73.1722C43.251 88.0485 40.7632 95.9418 40.3959 96.852C39.5695 98.9001 41.3183 102.019 42.0661 103.695C39.6304 104.785 39.8899 100.749 36.8173 102.178C34.0128 103.483 31.8794 105.847 28.6391 103.848C28.2408 103.602 27.8042 102.677 28.859 101.953C31.4867 100.152 35.2735 96.9981 35.7852 95.9601C36.4829 94.5446 38.0198 86.9389 40.3959 73.1429Z" fill="#B28B67"/>
<path fill-rule="evenodd" clip-rule="evenodd" d="M61.6054 41.8258L64.6936 41.296C76.152 51.1944 80.8583 70.2104 94.9034 80.2839L91.5229 84.4742C67.1572 81.4573 61.1179 58.2625 61.6054 41.8258Z" fill="#E87613"/>
<path fill-rule="evenodd" clip-rule="evenodd" d="M48.1431 80.6358C60.5258 80.6358 69.6343 80.6358 75.4686 80.6358C76.7172 80.6358 76.4819 78.8328 76.3014 77.923C74.2183 67.4228 66.0864 56.1042 66.0864 41.1575L58.2044 39.9215C51.685 50.4066 49.4305 63.316 48.1431 80.6358Z" fill="#DDE3E9"/>
<path fill-rule="evenodd" clip-rule="evenodd" d="M48.3629 50.2279C47.2181 49.8988 46.3116 49.1313 45.6433 47.9255C42.7624 42.7272 43.8029 39.8652 46.8816 38.9244C49.9603 37.9837 52.7059 39.9215 57.6112 39.9215C57.878 39.9215 58.1224 39.9382 58.3443 39.9716L60.8117 40.1124C67.8912 64.1055 69.8436 80.1132 66.6691 88.1358H45.1618C43.8875 91.1071 42.6682 93.6071 41.5037 95.6358H35.6433C35.0918 77.8026 39.3316 62.6666 48.3629 50.2279Z" fill="#FF9B21"/>
<path fill-rule="evenodd" clip-rule="evenodd" d="M49.845 75.8135C50.5214 81.4729 51.6208 85.5803 53.1431 88.1358H45.1616C46.648 84.6697 48.2092 80.5623 49.845 75.8135V75.8135Z" fill="black" fill-opacity="0.1"/>
</svg>
