<svg width="137" height="158" viewBox="0 0 137 158" fill="none" xmlns="http://www.w3.org/2000/svg">
<rect x="0.5" y="0.5" width="136" height="157" rx="9.5" fill="white" stroke="black"/>
<path fill-rule="evenodd" clip-rule="evenodd" d="M68.4351 25.5367C66.9199 23.7582 65.8944 21.5786 66.0658 19.1363C66.5595 12.0993 76.3552 13.6473 78.2606 17.199C80.1661 20.7506 79.9397 29.7597 77.477 30.3945C76.4949 30.6476 74.4028 30.0275 72.2735 28.7441L73.61 38.1996H65.7183L68.4351 25.5367Z" fill="#B28B67"/>
<path fill-rule="evenodd" clip-rule="evenodd" d="M74.7796 17.7141C73.7087 18.3131 72.9465 19.4357 72.0291 20.9081C71.8056 20.8202 71.5623 20.772 71.3077 20.772C70.2181 20.772 69.3347 21.6553 69.3347 22.7449C69.3347 23.2981 69.5624 23.7981 69.9291 24.1563C69.4726 24.8007 68.961 25.4738 68.3747 26.1684C66.1869 24.8558 64.5597 21.0303 66.6486 17.3372C68.4459 9.93975 78.63 14.5313 80.5893 13.2837C81.0176 15.9681 79.6362 18.1326 74.7796 17.7141Z" fill="#191847"/>
<path fill-rule="evenodd" clip-rule="evenodd" d="M65.4009 66.7462L81.54 107.595L92.3646 142.129H96.639L80.0906 66.7462L65.4009 66.7462Z" fill="#997659"/>
<path fill-rule="evenodd" clip-rule="evenodd" d="M62.1512 66.7462C61.9793 81.1007 59.473 100.427 59.0726 101.321C58.8056 101.918 49.59 109.504 31.4258 124.079L34.3698 127.229C55.8019 114.733 67.0139 107.652 68.0056 105.985C69.4933 103.485 74.3366 80.4789 78.2251 66.7462H62.1512Z" fill="#B28B67"/>
<path fill-rule="evenodd" clip-rule="evenodd" d="M31.0318 123.027C30.043 123.377 29.3619 123.708 28.9885 124.022C28.5342 124.403 27.9349 125.035 27.1904 125.917C27.6326 126.444 31.6063 131.18 39.1117 140.124C40.642 139.469 41.1221 138.703 40.552 137.826C39.9819 136.949 39.5153 136.215 39.1522 135.623L36.5551 126.549C36.5052 126.375 36.3231 126.274 36.1485 126.323C36.1456 126.324 36.1426 126.325 36.1396 126.326L34.7538 126.766C33.7924 126.318 33.1185 125.863 32.7322 125.403C32.4183 125.029 32.1359 124.386 31.885 123.473L31.885 123.473C31.7887 123.123 31.4268 122.917 31.0766 123.013C31.0615 123.017 31.0465 123.022 31.0318 123.027Z" fill="#FF4133"/>
<path fill-rule="evenodd" clip-rule="evenodd" d="M90.6153 140.535C90.2474 141.517 90.0635 142.251 90.0635 142.739C90.0635 143.332 90.1623 144.197 90.3598 145.335C91.0477 145.335 97.2298 145.335 108.906 145.335C109.388 143.742 109.11 142.881 108.071 142.754C107.033 142.627 106.17 142.513 105.484 142.41L96.8635 138.567C96.6977 138.493 96.5032 138.568 96.4293 138.734C96.428 138.737 96.4268 138.739 96.4256 138.742L95.8715 140.086C94.9103 140.535 94.1292 140.759 93.5282 140.759C93.0399 140.759 92.3656 140.562 91.5052 140.168L91.5052 140.168C91.175 140.016 90.7847 140.161 90.6333 140.491C90.6268 140.506 90.6208 140.52 90.6153 140.535Z" fill="#FF4133"/>
<path fill-rule="evenodd" clip-rule="evenodd" d="M76.2526 138.572L96.5753 136.366L81.5138 66.7462H63.3115L76.2526 138.572Z" fill="#69A1AC"/>
<path fill-rule="evenodd" clip-rule="evenodd" d="M35.6299 118.996L48.9603 134.775C63.001 119.44 71.1868 109.434 73.5176 104.757C75.8484 100.08 77.9437 87.4094 79.8035 66.7462H59.3111C58.2952 84.9248 57.6104 94.4371 57.2567 95.283C56.903 96.129 49.6941 104.033 35.6299 118.996Z" fill="#89C5CC"/>
<path fill-rule="evenodd" clip-rule="evenodd" d="M95.0722 62.7715L104.736 72.1381C107.548 73.3297 109.852 74.6455 111.647 76.0855C112.051 76.5696 112.491 77.497 110.591 77.082C108.691 76.667 106.673 76.3153 106.316 76.9293C105.959 77.5433 107.011 78.4842 106.351 79.2877C105.911 79.8234 104.431 78.1195 101.912 74.1758L91.8625 68.2894L95.0722 62.7715ZM47.8167 54.2943L55.2867 54.3222C49.5973 72.6364 46.5772 82.2254 46.2263 83.0893C45.437 85.033 47.1074 87.9931 47.8217 89.5839C45.4951 90.6183 45.743 86.7876 42.8081 88.1442C40.1293 89.3825 38.0915 91.6261 34.9965 89.7287C34.6159 89.4954 34.199 88.6171 35.2064 87.9307C37.7164 86.2207 41.3335 83.2279 41.8222 82.2428C42.4887 80.8995 44.4868 71.5833 47.8167 54.2943Z" fill="#B28B67"/>
<path fill-rule="evenodd" clip-rule="evenodd" d="M70.5795 33.2402L73.5293 32.7375C78.1762 49.0581 102.052 60.1828 103.518 66.2839C104.055 68.5213 102.435 69.6523 103.272 70.3338L99.4374 73.1226C98.7882 72.3699 97.4026 73.7467 94.509 72.7836C91.6154 71.8206 70.5795 52.5652 70.5795 33.2402Z" fill="#DB2721"/>
<path fill-rule="evenodd" clip-rule="evenodd" d="M75.5435 35.4099C75.2035 57.0172 87.7751 62.5288 84.9748 71.1968C82.6624 78.3546 60.5289 86.0492 56.6989 79.0329C55.1485 76.1927 54.4451 72.7578 54.3653 69.0233C53.3864 71.8924 52.6122 74.3623 52.0427 76.4331C51.0603 80.0055 47.2515 80.5734 47.2515 81.9496L42.2335 80.5734C42.5738 78.7037 40.2082 77.7933 40.8425 73.6163C43.6845 54.901 51.3203 41.3348 63.75 32.9178L63.8814 31.0503C63.9336 30.3262 64.5616 29.7803 65.2859 29.8294L74.5724 30.4746C75.2971 30.5238 75.8438 31.152 75.7934 31.8767C75.7934 31.8771 75.7934 31.8775 75.7921 31.8778L75.5435 35.4099Z" fill="#FF4133"/>
</svg>
